<?xml version="1.0" encoding="UTF-8" standalone="no"?>
<!-- Created with Inkscape (http://www.inkscape.org/) -->

<svg
   version="1.1"
   id="svg1"
   width="114.67023"
   height="149.36356"
   viewBox="0 0 114.67023 149.36356"
   sodipodi:docname="B04-6.svg"
   inkscape:version="1.3.1 (9b9bdc1480, 2023-11-25, custom)"
   xmlns:inkscape="http://www.inkscape.org/namespaces/inkscape"
   xmlns:sodipodi="http://sodipodi.sourceforge.net/DTD/sodipodi-0.dtd"
   xmlns="http://www.w3.org/2000/svg"
   xmlns:svg="http://www.w3.org/2000/svg">
  <defs
     id="defs1" />
  <sodipodi:namedview
     id="namedview1"
     pagecolor="#ffffff"
     bordercolor="#000000"
     borderopacity="0.25"
     inkscape:showpageshadow="2"
     inkscape:pageopacity="0.0"
     inkscape:pagecheckerboard="0"
     inkscape:deskcolor="#d1d1d1"
     showgrid="false"
     inkscape:zoom="5.5495501"
     inkscape:cx="57.301943"
     inkscape:cy="89.196421"
     inkscape:window-width="1848"
     inkscape:window-height="1016"
     inkscape:window-x="72"
     inkscape:window-y="27"
     inkscape:window-maximized="1"
     inkscape:current-layer="g1">
    <inkscape:page
       x="0"
       y="0"
       id="page1"
       width="114.67023"
       height="149.36356"
       margin="0"
       bleed="0" />
  </sodipodi:namedview>
  <g
     id="g1"
     inkscape:groupmode="layer"
     inkscape:label=""
     transform="translate(0.00234941,-11.304602)">
    <path
       id="path1"
       d="m 41.021268,125.64533 c 0,2.256 -1.828431,4.08933 -4.084029,4.08933 -2.250274,0 -4.077375,-1.83333 -4.077375,-4.08933 0,-2.25467 1.827101,-4.088 4.077375,-4.088 1.855046,0 3.41733,1.24 3.921679,2.932 0.105128,0.36533 0.16235,0.75067 0.16235,1.156 z"
       style="fill:#000000;fill-opacity:1;fill-rule:nonzero;stroke:#000000;stroke-width:0.154307;stroke-linecap:butt;stroke-linejoin:miter;stroke-miterlimit:4;stroke-dasharray:none;stroke-opacity:1" />
    <path
       id="path2"
       d="m 32.859864,130.95866 h 8.161404 c 0,0 1.968158,-4.12533 4.009508,-8.20933 0.214248,-0.42667 1.099187,-0.68133 1.735279,-0.38 0.634761,0.292 1.020675,1.12533 0.806426,1.55733 C 45.531132,128.01066 43.062617,133 43.062617,133 v 10.21866 l 2.036026,8.17734 v 2.04133 H 28.786481 V 151.396 l 2.036026,-8.17734 V 133 c 0,0 -2.499122,-5.03067 -4.536479,-9.11467 -0.212918,-0.432 0.07319,-1.30133 0.698637,-1.57867 0.624115,-0.27066 1.583575,0.0533 1.801816,0.48 2.036026,4.08267 4.073383,8.172 4.073383,8.172 z"
       style="fill:#000000;fill-opacity:1;fill-rule:nonzero;stroke:#000000;stroke-width:0.154307;stroke-linecap:butt;stroke-linejoin:miter;stroke-miterlimit:4;stroke-dasharray:none;stroke-opacity:1" />
    <path
       id="path3"
       d="m 40.60874,124.828 c 6.120055,0 6.167961,4.09333 5.760756,5.31733 -0.130412,0.39067 -0.45245,-2.74933 -3.187113,-3.02 l -2.573643,-0.256 z"
       style="fill:#000000;fill-opacity:1;fill-rule:nonzero;stroke:#000000;stroke-width:0.154307;stroke-linecap:butt;stroke-linejoin:miter;stroke-miterlimit:4;stroke-dasharray:none;stroke-opacity:1" />
    <path
       id="path4"
       d="m 33.271061,124.828 c -6.120054,0 -6.161307,4.09333 -5.755433,5.31733 0.130412,0.39067 0.453781,-2.74933 3.18179,-3.02 l 2.573643,-0.256 z"
       style="fill:#000000;fill-opacity:1;fill-rule:nonzero;stroke:#000000;stroke-width:0.154307;stroke-linecap:butt;stroke-linejoin:miter;stroke-miterlimit:4;stroke-dasharray:none;stroke-opacity:1" />
    <path
       id="path5"
       d="m 30.822507,153.43733 c 0,0 0,4.084 0,6.13067 0,1.364 4.078706,1.364 4.078706,0 0,-2.04667 0,-6.13067 0,-6.13067 z"
       style="fill:#000000;fill-opacity:1;fill-rule:nonzero;stroke:#000000;stroke-width:0.154307;stroke-linecap:butt;stroke-linejoin:miter;stroke-miterlimit:4;stroke-dasharray:none;stroke-opacity:1" />
    <path
       id="path6"
       d="m 38.978588,153.43733 c 0,0 0,4.084 0,6.13067 0,1.364 4.084029,1.364 4.084029,0 0,-2.04667 0,-6.13067 0,-6.13067 z"
       style="fill:#000000;fill-opacity:1;fill-rule:nonzero;stroke:#000000;stroke-width:0.154307;stroke-linecap:butt;stroke-linejoin:miter;stroke-miterlimit:4;stroke-dasharray:none;stroke-opacity:1" />
    <path
       id="path7"
       d="m 92.005756,125.64533 c 0,2.256 -1.823108,4.08933 -4.078706,4.08933 -2.250274,0 -4.078705,-1.83333 -4.078705,-4.08933 0,-2.25467 1.828431,-4.088 4.078705,-4.088 1.853716,0 3.412008,1.24 3.911034,2.932 0.110451,0.36533 0.167672,0.75067 0.167672,1.156 z"
       style="fill:#000000;fill-opacity:1;fill-rule:nonzero;stroke:#000000;stroke-width:0.154307;stroke-linecap:butt;stroke-linejoin:miter;stroke-miterlimit:4;stroke-dasharray:none;stroke-opacity:1" />
    <path
       id="path8"
       d="m 83.848345,130.95866 h 8.157411 c 0,0 1.968159,-4.12533 4.004185,-8.20933 0.214248,-0.42667 1.104511,-0.68133 1.744595,-0.38 0.630769,0.292 1.016682,1.12533 0.802434,1.55733 C 96.515621,128.01066 94.041782,133 94.041782,133 v 10.21866 c 0,3.40667 0,2.724 0,6.13067 H 81.806996 c 0,-3.40667 0,-2.724 0,-6.13067 V 133 c 0,0 -2.49513,-5.03067 -4.541802,-9.11467 -0.212918,-0.432 0.07851,-1.30133 0.698636,-1.57867 0.629438,-0.27066 1.588899,0.0533 1.80714,0.48 2.036026,4.08267 4.077375,8.172 4.077375,8.172 z"
       style="fill:#000000;fill-opacity:1;fill-rule:nonzero;stroke:#000000;stroke-width:0.154307;stroke-linecap:butt;stroke-linejoin:miter;stroke-miterlimit:4;stroke-dasharray:none;stroke-opacity:1" />
    <path
       id="path9"
       d="M 81.806996,149.34933 V 159.568 c 0,1.364 4.084028,1.364 4.084028,0 v -10.21867 z"
       style="fill:#000000;fill-opacity:1;fill-rule:nonzero;stroke:#000000;stroke-width:0.154307;stroke-linecap:butt;stroke-linejoin:miter;stroke-miterlimit:4;stroke-dasharray:none;stroke-opacity:1" />
    <path
       id="path10"
       d="M 89.968399,149.34933 V 159.568 c 0,1.364 4.073383,1.364 4.073383,0 v -10.21867 z"
       style="fill:#000000;fill-opacity:1;fill-rule:nonzero;stroke:#000000;stroke-width:0.154307;stroke-linecap:butt;stroke-linejoin:miter;stroke-miterlimit:4;stroke-dasharray:none;stroke-opacity:1" />
    <path
       id="path11"
       d="m 86.297331,122.38 c 2.036,-2.864 4.077333,-2.45867 4.077333,-2.45867 0,0 -1.229333,0 -1.229333,2.052 1.229333,-1.228 2.453333,-1.228 2.453333,-1.228 0,0 -1.224,0 -1.224,1.63467 -1.229333,0 -1.229333,-0.40667 -1.229333,-0.40667"
       style="fill:#000000;fill-opacity:1;fill-rule:nonzero;stroke:none;stroke-width:1.33333" />
    <path
       id="path12"
       d="M 0.172,-50.68 H 85.995 V -78.262 H 0.172 Z"
       style="fill:none;stroke:#000000;stroke-width:0.347531;stroke-linecap:butt;stroke-linejoin:miter;stroke-miterlimit:4;stroke-dasharray:none;stroke-opacity:1"
       transform="scale(1.330736,-1.3333333)" />
    <path
       id="path13"
       d="m 20.098,-92.09 c -9.194,4.598 -9.194,13.828 -9.194,13.828"
       style="fill:none;stroke:#000000;stroke-width:0.306986;stroke-linecap:butt;stroke-linejoin:miter;stroke-miterlimit:4;stroke-dasharray:none;stroke-opacity:1"
       transform="scale(1.330736,-1.3333333)"
       sodipodi:nodetypes="cc" />
    <path
       id="path14"
       d="m 73.737,-92.09 c 3.065,9.195 1.531,13.828 1.531,13.828"
       style="fill:none;stroke:#000000;stroke-width:0.347531;stroke-linecap:butt;stroke-linejoin:miter;stroke-miterlimit:4;stroke-dasharray:none;stroke-opacity:1"
       transform="scale(1.330736,-1.3333333)"
       sodipodi:nodetypes="cc" />
    <path
       id="path15"
       d="m 10.904,-50.68 c 0,12.262 8.849,16.387 16.853,18.391 12.266,3.062 29.221,2.129 39.851,0 7.66,-1.531 9.194,-7.66 7.66,-18.391"
       style="fill:none;stroke:#000000;stroke-width:0.347531;stroke-linecap:butt;stroke-linejoin:miter;stroke-miterlimit:4;stroke-dasharray:none;stroke-opacity:1"
       transform="scale(1.330736,-1.3333333)" />
    <path
       id="path16"
       d="m 69.139,23.039 -1.147,-8.863 7.276,-5.184 1.146,8.863 z"
       style="fill:#808080;fill-opacity:1;fill-rule:nonzero;stroke:#000000;stroke-width:0.347531;stroke-linecap:butt;stroke-linejoin:miter;stroke-miterlimit:4;stroke-dasharray:none;stroke-opacity:1"
       transform="scale(1.330736,1.3333333)" />
    <path
       id="path17"
       d="m 26.73749,24.409971 -11.783124,-1.643935 -4.123641,-11.178741 11.7896,1.645496 z"
       style="fill:#808080;fill-opacity:1;fill-rule:nonzero;stroke:#000000;stroke-width:0.462923;stroke-linecap:butt;stroke-linejoin:miter;stroke-miterlimit:4;stroke-dasharray:none;stroke-opacity:1" />
    <path
       id="path18"
       d="m 69.139,-23.039 c 0,-4.594 9.193,-6.133 9.193,-6.133 M 32.36,-50.68 c -3.069,35.25 36.779,27.641 36.779,27.641"
       style="fill:none;stroke:#000000;stroke-width:0.347531;stroke-linecap:butt;stroke-linejoin:miter;stroke-miterlimit:4;stroke-dasharray:none;stroke-opacity:1"
       transform="scale(1.330736,-1.3333333)" />
    <path
       id="path19"
       d="m 53.812,-50.68 c 0,32.184 -21.365783,32.332 -33.627783,32.332 0,-7.664 -12.2550001,-7.664 -12.2550001,-7.664"
       style="fill:none;stroke:#000000;stroke-width:0.347531;stroke-linecap:butt;stroke-linejoin:miter;stroke-miterlimit:4;stroke-dasharray:none;stroke-opacity:1"
       transform="scale(1.330736,-1.3333333)"
       sodipodi:nodetypes="ccc" />
    <path
       id="path20"
       d="m 32.36,-78.262 c 0,-10.73 7.663,-10.73 10.724,-10.73 4.599,0 10.728,1.531 10.728,10.73"
       style="fill:none;stroke:#000000;stroke-width:0.347531;stroke-linecap:butt;stroke-linejoin:miter;stroke-miterlimit:4;stroke-dasharray:none;stroke-opacity:1"
       transform="scale(1.330736,-1.3333333)" />
  </g>
</svg>
