<?xml version="1.0" encoding="UTF-8" standalone="no"?>
<!-- Created with Inkscape (http://www.inkscape.org/) -->

<svg
   version="1.1"
   id="svg1"
   width="1234.8986"
   height="66.553467"
   viewBox="0 0 1234.8985 66.553467"
   sodipodi:docname="B16-1.svg"
   inkscape:version="1.3.1 (9b9bdc1480, 2023-11-25, custom)"
   xmlns:inkscape="http://www.inkscape.org/namespaces/inkscape"
   xmlns:sodipodi="http://sodipodi.sourceforge.net/DTD/sodipodi-0.dtd"
   xmlns="http://www.w3.org/2000/svg"
   xmlns:svg="http://www.w3.org/2000/svg">
  <defs
     id="defs1" />
  <sodipodi:namedview
     id="namedview1"
     pagecolor="#ffffff"
     bordercolor="#000000"
     borderopacity="0.25"
     inkscape:showpageshadow="2"
     inkscape:pageopacity="0.0"
     inkscape:pagecheckerboard="0"
     inkscape:deskcolor="#d1d1d1"
     showgrid="false"
     inkscape:zoom="0.72637544"
     inkscape:cx="617.44929"
     inkscape:cy="33.040765"
     inkscape:window-width="1464"
     inkscape:window-height="800"
     inkscape:window-x="72"
     inkscape:window-y="27"
     inkscape:window-maximized="1"
     inkscape:current-layer="g1">
    <inkscape:page
       x="0"
       y="0"
       inkscape:label="1"
       id="page1"
       width="1234.8986"
       height="66.553467"
       margin="0"
       bleed="0" />
  </sodipodi:namedview>
  <g
     id="g1"
     inkscape:groupmode="layer"
     inkscape:label="1"
     transform="translate(99.407331,-9.1254675)">
    <g
       id="g2"
       transform="translate(-114)">
      <path
         id="path3"
         d="m 22.699999,10.458801 c -3.734933,0 -6.773999,3.04 -6.773999,6.774667 0,3.734665 3.039066,6.773333 6.773999,6.773333 3.735467,0 6.774534,-3.038668 6.774534,-6.773333 0,-3.734667 -3.039067,-6.774667 -6.774534,-6.774667 z m 0,14.881332 c -4.470266,0 -8.107333,-3.635999 -8.107333,-8.106665 0,-4.470667 3.637067,-8.1080005 8.107333,-8.1080005 4.4708,0 8.107867,3.6373335 8.107867,8.1080005 0,4.470665 -3.637067,8.106665 -8.107867,8.106665"
         style="fill:#040606;fill-opacity:1;fill-rule:nonzero;stroke:none;stroke-width:0.133333" />
      <path
         id="path4"
         d="m 55.463999,17.233468 c 0,4.109333 -3.3312,7.439999 -7.440534,7.439999 -4.109866,0 -7.441199,-3.330666 -7.441199,-7.439999 0,-4.109334 3.331333,-7.4413345 7.441199,-7.4413345 4.109334,0 7.440534,3.3320005 7.440534,7.4413345"
         style="fill:#040606;fill-opacity:1;fill-rule:nonzero;stroke:none;stroke-width:0.133333" />
      <path
         id="path5"
         d="m 48.022932,10.458801 c -3.734933,0 -6.774,3.04 -6.774,6.774667 0,3.734665 3.039067,6.773333 6.774,6.773333 3.735867,0 6.774933,-3.038668 6.774933,-6.773333 0,-3.734667 -3.039066,-6.774667 -6.774933,-6.774667 z m 0,14.881332 c -4.470266,0 -8.107333,-3.635999 -8.107333,-8.106665 0,-4.470667 3.637067,-8.1080005 8.107333,-8.1080005 4.4708,0 8.108267,3.6373335 8.108267,8.1080005 0,4.470665 -3.637467,8.106665 -8.108267,8.106665"
         style="fill:#040606;fill-opacity:1;fill-rule:nonzero;stroke:none;stroke-width:0.133333" />
      <path
         id="path6"
         d="m 30.141199,42.402799 c 0,4.109333 -3.331333,7.441333 -7.440666,7.441333 -4.109867,0 -7.4412,-3.332 -7.4412,-7.441333 0,-4.109333 3.331333,-7.441333 7.4412,-7.441333 4.109333,0 7.440666,3.332 7.440666,7.441333"
         style="fill:#040606;fill-opacity:1;fill-rule:nonzero;stroke:none;stroke-width:0.133333" />
      <path
         id="path7"
         d="m 22.699999,35.628133 c -3.734933,0 -6.773999,3.04 -6.773999,6.774666 0,3.734667 3.039066,6.773333 6.773999,6.773333 3.735467,0 6.774534,-3.038666 6.774534,-6.773333 0,-3.734666 -3.039067,-6.774666 -6.774534,-6.774666 z m 0,14.881333 c -4.470266,0 -8.107333,-3.636 -8.107333,-8.106667 0,-4.470666 3.637067,-8.108 8.107333,-8.108 4.4708,0 8.107867,3.637334 8.107867,8.108 0,4.470667 -3.637067,8.106667 -8.107867,8.106667"
         style="fill:#040606;fill-opacity:1;fill-rule:nonzero;stroke:none;stroke-width:0.133333" />
      <path
         id="path8"
         d="m 55.463999,42.402799 c 0,4.109333 -3.3312,7.441333 -7.440534,7.441333 -4.109866,0 -7.441199,-3.332 -7.441199,-7.441333 0,-4.109333 3.331333,-7.441333 7.441199,-7.441333 4.109334,0 7.440534,3.332 7.440534,7.441333"
         style="fill:#040606;fill-opacity:1;fill-rule:nonzero;stroke:none;stroke-width:0.133333" />
      <path
         id="path9"
         d="m 48.022932,35.628133 c -3.734933,0 -6.774,3.04 -6.774,6.774666 0,3.734667 3.039067,6.773333 6.774,6.773333 3.735867,0 6.774933,-3.038666 6.774933,-6.773333 0,-3.734666 -3.039066,-6.774666 -6.774933,-6.774666 z m 0,14.881333 c -4.470266,0 -8.107333,-3.636 -8.107333,-8.106667 0,-4.470666 3.637067,-8.108 8.107333,-8.108 4.4708,0 8.108267,3.637334 8.108267,8.108 0,4.470667 -3.637467,8.106667 -8.108267,8.106667"
         style="fill:#040606;fill-opacity:1;fill-rule:nonzero;stroke:none;stroke-width:0.133333" />
      <path
         id="path10"
         d="m 22.699999,60.797466 c -3.734933,0 -6.773999,3.038666 -6.773999,6.774134 0,3.734933 3.039066,6.773999 6.773999,6.773999 3.735467,0 6.774534,-3.039066 6.774534,-6.773999 0,-3.735468 -3.039067,-6.774135 -6.774534,-6.774134 z m 0,14.881467 c -4.470266,0 -8.107333,-3.6364 -8.107333,-8.107333 0,-4.470135 3.637067,-8.107468 8.107333,-8.107468 4.4708,0 8.107867,3.637333 8.107867,8.107468 0,4.470933 -3.637067,8.107333 -8.107867,8.107333"
         style="fill:#040606;fill-opacity:1;fill-rule:nonzero;stroke:none;stroke-width:0.133333" />
      <path
         id="path11"
         d="m 48.022932,60.797466 c -3.734933,0 -6.774,3.038666 -6.774,6.774134 0,3.734933 3.039067,6.773999 6.774,6.773999 3.735867,0 6.774933,-3.039066 6.774933,-6.773999 0,-3.735468 -3.039066,-6.774135 -6.774933,-6.774134 z m 0,14.881467 c -4.470266,0 -8.107333,-3.6364 -8.107333,-8.107333 0,-4.470135 3.637067,-8.107468 8.107333,-8.107468 4.4708,0 8.108267,3.637333 8.108267,8.107468 0,4.470933 -3.637467,8.107333 -8.108267,8.107333"
         style="fill:#040606;fill-opacity:1;fill-rule:nonzero;stroke:none;stroke-width:0.133333" />
      <text
         xml:space="preserve"
         style="font-style:normal;font-variant:normal;font-weight:normal;font-stretch:normal;font-size:53.3333px;font-family:'CMU Serif';-inkscape-font-specification:'CMU Serif';fill:#000000;stroke-width:1.70079"
         x="66.930313"
         y="56.381378"
         id="text96"><tspan
           sodipodi:role="line"
           id="tspan96"
           x="66.930313"
           y="56.381378">0</tspan></text>
    </g>
    <g
       id="g3"
       transform="translate(-101.12465)">
      <path
         id="path13"
         d="m 146.6121,17.233468 c 0,4.109333 -3.332,7.439999 -7.44133,7.439999 -4.10934,0 -7.44,-3.330666 -7.44,-7.439999 0,-4.109334 3.33066,-7.4413345 7.44,-7.4413345 4.10933,0 7.44133,3.3320005 7.44133,7.4413345"
         style="fill:#040606;fill-opacity:1;fill-rule:nonzero;stroke:none;stroke-width:0.133333" />
      <path
         id="path14"
         d="m 139.17077,10.458801 c -3.73467,0 -6.77467,3.04 -6.77467,6.774667 0,3.734665 3.04,6.773333 6.77467,6.773333 3.736,0 6.77466,-3.038668 6.77466,-6.773333 0,-3.734667 -3.03866,-6.774667 -6.77466,-6.774667 z m 0,14.881332 c -4.47067,0 -8.108,-3.635999 -8.108,-8.106665 0,-4.470667 3.63733,-8.1080005 8.108,-8.1080005 4.47066,0 8.108,3.6373335 8.108,8.1080005 0,4.470665 -3.63734,8.106665 -8.108,8.106665"
         style="fill:#040606;fill-opacity:1;fill-rule:nonzero;stroke:none;stroke-width:0.133333" />
      <path
         id="path15"
         d="m 164.49477,10.458801 c -3.736,0 -6.77467,3.04 -6.77467,6.774667 0,3.734665 3.03867,6.773333 6.77467,6.773333 3.73466,0 6.77333,-3.038668 6.77333,-6.773333 0,-3.734667 -3.03867,-6.774667 -6.77333,-6.774667 z m 0,14.881332 c -4.47067,0 -8.108,-3.635999 -8.108,-8.106665 0,-4.470667 3.63733,-8.1080005 8.108,-8.1080005 4.47066,0 8.10666,3.6373335 8.10666,8.1080005 0,4.470665 -3.636,8.106665 -8.10666,8.106665"
         style="fill:#040606;fill-opacity:1;fill-rule:nonzero;stroke:none;stroke-width:0.133333" />
      <path
         id="path16"
         d="m 139.17077,35.628133 c -3.73467,0 -6.77467,3.04 -6.77467,6.774666 0,3.734667 3.04,6.773333 6.77467,6.773333 3.736,0 6.77466,-3.038666 6.77466,-6.773333 0,-3.734666 -3.03866,-6.774666 -6.77466,-6.774666 z m 0,14.881333 c -4.47067,0 -8.108,-3.636 -8.108,-8.106667 0,-4.470666 3.63733,-8.108 8.108,-8.108 4.47066,0 8.108,3.637334 8.108,8.108 0,4.470667 -3.63734,8.106667 -8.108,8.106667"
         style="fill:#040606;fill-opacity:1;fill-rule:nonzero;stroke:none;stroke-width:0.133333" />
      <path
         id="path17"
         d="m 164.49477,35.628133 c -3.736,0 -6.77467,3.04 -6.77467,6.774666 0,3.734667 3.03867,6.773333 6.77467,6.773333 3.73466,0 6.77333,-3.038666 6.77333,-6.773333 0,-3.734666 -3.03867,-6.774666 -6.77333,-6.774666 z m 0,14.881333 c -4.47067,0 -8.108,-3.636 -8.108,-8.106667 0,-4.470666 3.63733,-8.108 8.108,-8.108 4.47066,0 8.10666,3.637334 8.10666,8.108 0,4.470667 -3.636,8.106667 -8.10666,8.106667"
         style="fill:#040606;fill-opacity:1;fill-rule:nonzero;stroke:none;stroke-width:0.133333" />
      <path
         id="path18"
         d="m 139.17077,60.797466 c -3.73467,0 -6.77467,3.038666 -6.77467,6.774134 0,3.734933 3.04,6.773999 6.77467,6.773999 3.736,0 6.77466,-3.039066 6.77466,-6.773999 0,-3.735468 -3.03866,-6.774135 -6.77466,-6.774134 z m 0,14.881467 c -4.47067,0 -8.108,-3.6364 -8.108,-8.107333 0,-4.470135 3.63733,-8.107468 8.108,-8.107468 4.47066,0 8.108,3.637333 8.108,8.107468 0,4.470933 -3.63734,8.107333 -8.108,8.107333"
         style="fill:#040606;fill-opacity:1;fill-rule:nonzero;stroke:none;stroke-width:0.133333" />
      <path
         id="path19"
         d="m 164.49477,60.797466 c -3.736,0 -6.77467,3.038666 -6.77467,6.774134 0,3.734933 3.03867,6.773999 6.77467,6.773999 3.73466,0 6.77333,-3.039066 6.77333,-6.773999 0,-3.735468 -3.03867,-6.774135 -6.77333,-6.774134 z m 0,14.881467 c -4.47067,0 -8.108,-3.6364 -8.108,-8.107333 0,-4.470135 3.63733,-8.107468 8.108,-8.107468 4.47066,0 8.10666,3.637333 8.10666,8.107468 0,4.470933 -3.636,8.107333 -8.10666,8.107333"
         style="fill:#040606;fill-opacity:1;fill-rule:nonzero;stroke:none;stroke-width:0.133333" />
      <text
         xml:space="preserve"
         style="font-style:normal;font-variant:normal;font-weight:normal;font-stretch:normal;font-size:53.3333px;font-family:'CMU Serif';-inkscape-font-specification:'CMU Serif';fill:#000000;stroke-width:1.70079"
         x="181.27554"
         y="56.485542"
         id="text97"><tspan
           sodipodi:role="line"
           id="tspan97"
           x="181.27554"
           y="56.485542">1</tspan></text>
    </g>
    <g
       id="g4"
       transform="translate(-89.498455)">
      <path
         id="path21"
         d="m 260.0185,17.233468 c 0,4.109333 -3.33067,7.439999 -7.44134,7.439999 -4.10933,0 -7.44,-3.330666 -7.44,-7.439999 0,-4.109334 3.33067,-7.4413345 7.44,-7.4413345 4.11067,0 7.44134,3.3320005 7.44134,7.4413345"
         style="fill:#040606;fill-opacity:1;fill-rule:nonzero;stroke:none;stroke-width:0.133333" />
      <path
         id="path22"
         d="m 252.5785,10.458801 c -3.736,0 -6.77467,3.04 -6.77467,6.774667 0,3.734665 3.03867,6.773333 6.77467,6.773333 3.73466,0 6.77333,-3.038668 6.77333,-6.773333 0,-3.734667 -3.03867,-6.774667 -6.77333,-6.774667 z m 0,14.881332 c -4.472,0 -8.108,-3.635999 -8.108,-8.106665 0,-4.470667 3.636,-8.1080005 8.108,-8.1080005 4.47066,0 8.10666,3.6373335 8.10666,8.1080005 0,4.470665 -3.636,8.106665 -8.10666,8.106665"
         style="fill:#040606;fill-opacity:1;fill-rule:nonzero;stroke:none;stroke-width:0.133333" />
      <path
         id="path23"
         d="m 277.90116,10.458801 c -3.736,0 -6.77466,3.04 -6.77466,6.774667 0,3.734665 3.03866,6.773333 6.77466,6.773333 3.73467,0 6.77334,-3.038668 6.77334,-6.773333 0,-3.734667 -3.03867,-6.774667 -6.77334,-6.774667 z m 0,14.881332 c -4.47066,0 -8.108,-3.635999 -8.108,-8.106665 0,-4.470667 3.63734,-8.1080005 8.108,-8.1080005 4.47067,0 8.10667,3.6373335 8.10667,8.1080005 0,4.470665 -3.636,8.106665 -8.10667,8.106665"
         style="fill:#040606;fill-opacity:1;fill-rule:nonzero;stroke:none;stroke-width:0.133333" />
      <path
         id="path24"
         d="m 260.0185,42.402799 c 0,4.109333 -3.33067,7.441333 -7.44134,7.441333 -4.10933,0 -7.44,-3.332 -7.44,-7.441333 0,-4.109333 3.33067,-7.441333 7.44,-7.441333 4.11067,0 7.44134,3.332 7.44134,7.441333"
         style="fill:#040606;fill-opacity:1;fill-rule:nonzero;stroke:none;stroke-width:0.133333" />
      <path
         id="path25"
         d="m 252.5785,35.628133 c -3.736,0 -6.77467,3.04 -6.77467,6.774666 0,3.734667 3.03867,6.773333 6.77467,6.773333 3.73466,0 6.77333,-3.038666 6.77333,-6.773333 0,-3.734666 -3.03867,-6.774666 -6.77333,-6.774666 z m 0,14.881333 c -4.472,0 -8.108,-3.636 -8.108,-8.106667 0,-4.470666 3.636,-8.108 8.108,-8.108 4.47066,0 8.10666,3.637334 8.10666,8.108 0,4.470667 -3.636,8.106667 -8.10666,8.106667"
         style="fill:#040606;fill-opacity:1;fill-rule:nonzero;stroke:none;stroke-width:0.133333" />
      <path
         id="path26"
         d="m 277.90116,35.628133 c -3.736,0 -6.77466,3.04 -6.77466,6.774666 0,3.734667 3.03866,6.773333 6.77466,6.773333 3.73467,0 6.77334,-3.038666 6.77334,-6.773333 0,-3.734666 -3.03867,-6.774666 -6.77334,-6.774666 z m 0,14.881333 c -4.47066,0 -8.108,-3.636 -8.108,-8.106667 0,-4.470666 3.63734,-8.108 8.108,-8.108 4.47067,0 8.10667,3.637334 8.10667,8.108 0,4.470667 -3.636,8.106667 -8.10667,8.106667"
         style="fill:#040606;fill-opacity:1;fill-rule:nonzero;stroke:none;stroke-width:0.133333" />
      <path
         id="path27"
         d="m 252.5785,60.797466 c -3.736,0 -6.77467,3.038666 -6.77467,6.774134 0,3.734933 3.03867,6.773999 6.77467,6.773999 3.73466,0 6.77333,-3.039066 6.77333,-6.773999 0,-3.735468 -3.03867,-6.774135 -6.77333,-6.774134 z m 0,14.881467 c -4.472,0 -8.108,-3.6364 -8.108,-8.107333 0,-4.470135 3.636,-8.107468 8.108,-8.107468 4.47066,0 8.10666,3.637333 8.10666,8.107468 0,4.470933 -3.636,8.107333 -8.10666,8.107333"
         style="fill:#040606;fill-opacity:1;fill-rule:nonzero;stroke:none;stroke-width:0.133333" />
      <path
         id="path28"
         d="m 277.90116,60.797466 c -3.736,0 -6.77466,3.038666 -6.77466,6.774134 0,3.734933 3.03866,6.773999 6.77466,6.773999 3.73467,0 6.77334,-3.039066 6.77334,-6.773999 0,-3.735468 -3.03867,-6.774135 -6.77334,-6.774134 z m 0,14.881467 c -4.47066,0 -8.108,-3.6364 -8.108,-8.107333 0,-4.470135 3.63734,-8.107468 8.108,-8.107468 4.47067,0 8.10667,3.637333 8.10667,8.107468 0,4.470933 -3.636,8.107333 -8.10667,8.107333"
         style="fill:#040606;fill-opacity:1;fill-rule:nonzero;stroke:none;stroke-width:0.133333" />
      <text
         xml:space="preserve"
         style="font-style:normal;font-variant:normal;font-weight:normal;font-stretch:normal;font-size:53.3333px;font-family:'CMU Serif';-inkscape-font-specification:'CMU Serif';fill:#000000;stroke-width:1.70079"
         x="296.55695"
         y="56.52721"
         id="text98"><tspan
           sodipodi:role="line"
           id="tspan98"
           x="296.55695"
           y="56.52721">2</tspan></text>
    </g>
    <g
       id="g5"
       transform="translate(-76.480597)">
      <path
         id="path30"
         d="m 375.50824,17.233468 c 0,4.109333 -3.33066,7.439999 -7.44,7.439999 -4.11066,0 -7.44133,-3.330666 -7.44133,-7.439999 0,-4.109334 3.33067,-7.4413345 7.44133,-7.4413345 4.10934,0 7.44,3.3320005 7.44,7.4413345"
         style="fill:#040606;fill-opacity:1;fill-rule:nonzero;stroke:none;stroke-width:0.133333" />
      <path
         id="path31"
         d="m 368.06691,10.458801 c -3.73467,0 -6.77333,3.04 -6.77333,6.774667 0,3.734665 3.03866,6.773333 6.77333,6.773333 3.736,0 6.77467,-3.038668 6.77467,-6.773333 0,-3.734667 -3.03867,-6.774667 -6.77467,-6.774667 z m 0,14.881332 c -4.47067,0 -8.10667,-3.635999 -8.10667,-8.106665 0,-4.470667 3.636,-8.1080005 8.10667,-8.1080005 4.472,0 8.108,3.6373335 8.108,8.1080005 0,4.470665 -3.636,8.106665 -8.108,8.106665"
         style="fill:#040606;fill-opacity:1;fill-rule:nonzero;stroke:none;stroke-width:0.133333" />
      <path
         id="path32"
         d="m 400.83091,17.233468 c 0,4.109333 -3.33067,7.439999 -7.44,7.439999 -4.10933,0 -7.44133,-3.330666 -7.44133,-7.439999 0,-4.109334 3.332,-7.4413345 7.44133,-7.4413345 4.10933,0 7.44,3.3320005 7.44,7.4413345"
         style="fill:#040606;fill-opacity:1;fill-rule:nonzero;stroke:none;stroke-width:0.133333" />
      <path
         id="path33"
         d="m 393.39091,10.458801 c -3.736,0 -6.77467,3.04 -6.77467,6.774667 0,3.734665 3.03867,6.773333 6.77467,6.773333 3.73467,0 6.77467,-3.038668 6.77467,-6.773333 0,-3.734667 -3.04,-6.774667 -6.77467,-6.774667 z m 0,14.881332 c -4.47067,0 -8.108,-3.635999 -8.108,-8.106665 0,-4.470667 3.63733,-8.1080005 8.108,-8.1080005 4.47067,0 8.108,3.6373335 8.108,8.1080005 0,4.470665 -3.63733,8.106665 -8.108,8.106665"
         style="fill:#040606;fill-opacity:1;fill-rule:nonzero;stroke:none;stroke-width:0.133333" />
      <path
         id="path34"
         d="m 368.06691,35.628133 c -3.73467,0 -6.77333,3.04 -6.77333,6.774666 0,3.734667 3.03866,6.773333 6.77333,6.773333 3.736,0 6.77467,-3.038666 6.77467,-6.773333 0,-3.734666 -3.03867,-6.774666 -6.77467,-6.774666 z m 0,14.881333 c -4.47067,0 -8.10667,-3.636 -8.10667,-8.106667 0,-4.470666 3.636,-8.108 8.10667,-8.108 4.472,0 8.108,3.637334 8.108,8.108 0,4.470667 -3.636,8.106667 -8.108,8.106667"
         style="fill:#040606;fill-opacity:1;fill-rule:nonzero;stroke:none;stroke-width:0.133333" />
      <path
         id="path35"
         d="m 393.39091,35.628133 c -3.736,0 -6.77467,3.04 -6.77467,6.774666 0,3.734667 3.03867,6.773333 6.77467,6.773333 3.73467,0 6.77467,-3.038666 6.77467,-6.773333 0,-3.734666 -3.04,-6.774666 -6.77467,-6.774666 z m 0,14.881333 c -4.47067,0 -8.108,-3.636 -8.108,-8.106667 0,-4.470666 3.63733,-8.108 8.108,-8.108 4.47067,0 8.108,3.637334 8.108,8.108 0,4.470667 -3.63733,8.106667 -8.108,8.106667"
         style="fill:#040606;fill-opacity:1;fill-rule:nonzero;stroke:none;stroke-width:0.133333" />
      <path
         id="path36"
         d="m 368.06691,60.797466 c -3.73467,0 -6.77333,3.038666 -6.77333,6.774134 0,3.734933 3.03866,6.773999 6.77333,6.773999 3.736,0 6.77467,-3.039066 6.77467,-6.773999 0,-3.735468 -3.03867,-6.774135 -6.77467,-6.774134 z m 0,14.881467 c -4.47067,0 -8.10667,-3.6364 -8.10667,-8.107333 0,-4.470135 3.636,-8.107468 8.10667,-8.107468 4.472,0 8.108,3.637333 8.108,8.107468 0,4.470933 -3.636,8.107333 -8.108,8.107333"
         style="fill:#040606;fill-opacity:1;fill-rule:nonzero;stroke:none;stroke-width:0.133333" />
      <path
         id="path37"
         d="m 393.39091,60.797466 c -3.736,0 -6.77467,3.038666 -6.77467,6.774134 0,3.734933 3.03867,6.773999 6.77467,6.773999 3.73467,0 6.77467,-3.039066 6.77467,-6.773999 0,-3.735468 -3.04,-6.774135 -6.77467,-6.774134 z m 0,14.881467 c -4.47067,0 -8.108,-3.6364 -8.108,-8.107333 0,-4.470135 3.63733,-8.107468 8.108,-8.107468 4.47067,0 8.108,3.637333 8.108,8.107468 0,4.470933 -3.63733,8.107333 -8.108,8.107333"
         style="fill:#040606;fill-opacity:1;fill-rule:nonzero;stroke:none;stroke-width:0.133333" />
      <text
         xml:space="preserve"
         style="font-style:normal;font-variant:normal;font-weight:normal;font-stretch:normal;font-size:53.3333px;font-family:'CMU Serif';-inkscape-font-specification:'CMU Serif';fill:#000000;stroke-width:1.70079"
         x="411.88135"
         y="56.318878"
         id="text99"><tspan
           sodipodi:role="line"
           id="tspan99"
           x="411.88135"
           y="56.318878">3</tspan></text>
    </g>
    <g
       id="g6"
       transform="translate(-63.723579)">
      <path
         id="path39"
         d="m 491.52015,17.233468 c 0,4.109333 -3.33067,7.439999 -7.44,7.439999 -4.10933,0 -7.44133,-3.330666 -7.44133,-7.439999 0,-4.109334 3.332,-7.4413345 7.44133,-7.4413345 4.10933,0 7.44,3.3320005 7.44,7.4413345"
         style="fill:#040606;fill-opacity:1;fill-rule:nonzero;stroke:none;stroke-width:0.133333" />
      <path
         id="path40"
         d="m 484.07882,10.458801 c -3.73467,0 -6.77334,3.04 -6.77334,6.774667 0,3.734665 3.03867,6.773333 6.77334,6.773333 3.736,0 6.776,-3.038668 6.776,-6.773333 0,-3.734667 -3.04,-6.774667 -6.776,-6.774667 z m 0,14.881332 c -4.47067,0 -8.10667,-3.635999 -8.10667,-8.106665 0,-4.470667 3.636,-8.1080005 8.10667,-8.1080005 4.47066,0 8.10933,3.6373335 8.10933,8.1080005 0,4.470665 -3.63867,8.106665 -8.10933,8.106665"
         style="fill:#040606;fill-opacity:1;fill-rule:nonzero;stroke:none;stroke-width:0.133333" />
      <path
         id="path41"
         d="m 516.84415,17.233468 c 0,4.109333 -3.332,7.439999 -7.44133,7.439999 -4.10934,0 -7.44134,-3.330666 -7.44134,-7.439999 0,-4.109334 3.332,-7.4413345 7.44134,-7.4413345 4.10933,0 7.44133,3.3320005 7.44133,7.4413345"
         style="fill:#040606;fill-opacity:1;fill-rule:nonzero;stroke:none;stroke-width:0.133333" />
      <path
         id="path42"
         d="m 509.40282,10.458801 c -3.736,0 -6.77467,3.04 -6.77467,6.774667 0,3.734665 3.03867,6.773333 6.77467,6.773333 3.73466,0 6.77466,-3.038668 6.77466,-6.773333 0,-3.734667 -3.04,-6.774667 -6.77466,-6.774667 z m 0,14.881332 c -4.47067,0 -8.108,-3.635999 -8.108,-8.106665 0,-4.470667 3.63733,-8.1080005 8.108,-8.1080005 4.47066,0 8.108,3.6373335 8.108,8.1080005 0,4.470665 -3.63734,8.106665 -8.108,8.106665"
         style="fill:#040606;fill-opacity:1;fill-rule:nonzero;stroke:none;stroke-width:0.133333" />
      <path
         id="path43"
         d="m 484.07882,35.628133 c -3.73467,0 -6.77334,3.04 -6.77334,6.774666 0,3.734667 3.03867,6.773333 6.77334,6.773333 3.736,0 6.776,-3.038666 6.776,-6.773333 0,-3.734666 -3.04,-6.774666 -6.776,-6.774666 z m 0,14.881333 c -4.47067,0 -8.10667,-3.636 -8.10667,-8.106667 0,-4.470666 3.636,-8.108 8.10667,-8.108 4.47066,0 8.10933,3.637334 8.10933,8.108 0,4.470667 -3.63867,8.106667 -8.10933,8.106667"
         style="fill:#040606;fill-opacity:1;fill-rule:nonzero;stroke:none;stroke-width:0.133333" />
      <path
         id="path44"
         d="m 516.84415,42.402799 c 0,4.109333 -3.332,7.441333 -7.44133,7.441333 -4.10934,0 -7.44134,-3.332 -7.44134,-7.441333 0,-4.109333 3.332,-7.441333 7.44134,-7.441333 4.10933,0 7.44133,3.332 7.44133,7.441333"
         style="fill:#040606;fill-opacity:1;fill-rule:nonzero;stroke:none;stroke-width:0.133333" />
      <path
         id="path45"
         d="m 509.40282,35.628133 c -3.736,0 -6.77467,3.04 -6.77467,6.774666 0,3.734667 3.03867,6.773333 6.77467,6.773333 3.73466,0 6.77466,-3.038666 6.77466,-6.773333 0,-3.734666 -3.04,-6.774666 -6.77466,-6.774666 z m 0,14.881333 c -4.47067,0 -8.108,-3.636 -8.108,-8.106667 0,-4.470666 3.63733,-8.108 8.108,-8.108 4.47066,0 8.108,3.637334 8.108,8.108 0,4.470667 -3.63734,8.106667 -8.108,8.106667"
         style="fill:#040606;fill-opacity:1;fill-rule:nonzero;stroke:none;stroke-width:0.133333" />
      <path
         id="path46"
         d="m 484.07882,60.797466 c -3.73467,0 -6.77334,3.038666 -6.77334,6.774134 0,3.734933 3.03867,6.773999 6.77334,6.773999 3.736,0 6.776,-3.039066 6.776,-6.773999 0,-3.735468 -3.04,-6.774135 -6.776,-6.774134 z m 0,14.881467 c -4.47067,0 -8.10667,-3.6364 -8.10667,-8.107333 0,-4.470135 3.636,-8.107468 8.10667,-8.107468 4.47066,0 8.10933,3.637333 8.10933,8.107468 0,4.470933 -3.63867,8.107333 -8.10933,8.107333"
         style="fill:#040606;fill-opacity:1;fill-rule:nonzero;stroke:none;stroke-width:0.133333" />
      <path
         id="path47"
         d="m 509.40282,60.797466 c -3.736,0 -6.77467,3.038666 -6.77467,6.774134 0,3.734933 3.03867,6.773999 6.77467,6.773999 3.73466,0 6.77466,-3.039066 6.77466,-6.773999 0,-3.735468 -3.04,-6.774135 -6.77466,-6.774134 z m 0,14.881467 c -4.47067,0 -8.108,-3.6364 -8.108,-8.107333 0,-4.470135 3.63733,-8.107468 8.108,-8.107468 4.47066,0 8.108,3.637333 8.108,8.107468 0,4.470933 -3.63734,8.107333 -8.108,8.107333"
         style="fill:#040606;fill-opacity:1;fill-rule:nonzero;stroke:none;stroke-width:0.133333" />
      <text
         xml:space="preserve"
         style="font-style:normal;font-variant:normal;font-weight:normal;font-stretch:normal;font-size:53.3333px;font-family:'CMU Serif';-inkscape-font-specification:'CMU Serif';fill:#000000;stroke-width:1.70079"
         x="529.10162"
         y="56.443878"
         id="text100"><tspan
           sodipodi:role="line"
           id="tspan100"
           x="529.10162"
           y="56.443878">4</tspan></text>
    </g>
    <g
       id="g7"
       transform="translate(-51.21986)">
      <path
         id="path49"
         d="m 609.74092,17.2332 c 0,4.10933 -3.33133,7.44173 -7.44067,7.44173 -4.10986,0 -7.4412,-3.3324 -7.4412,-7.44173 0,-4.10933 3.33134,-7.44107 7.4412,-7.44107 4.10934,0 7.44067,3.33174 7.44067,7.44107"
         style="fill:#040606;fill-opacity:1;fill-rule:nonzero;stroke:none;stroke-width:0.133333" />
      <path
         id="path50"
         d="m 602.29972,10.4592 c -3.73493,0 -6.774,3.03907 -6.774,6.774 0,3.73493 3.03907,6.77346 6.774,6.77346 3.73547,0 6.77453,-3.03853 6.77453,-6.77346 0,-3.73493 -3.03906,-6.774 -6.77453,-6.774 z m 0,14.8808 c -4.47027,0 -8.10733,-3.636 -8.10733,-8.1068 0,-4.4708 3.63706,-8.10733 8.10733,-8.10733 4.4708,0 8.10787,3.63653 8.10787,8.10733 0,4.4708 -3.63707,8.1068 -8.10787,8.1068"
         style="fill:#040606;fill-opacity:1;fill-rule:nonzero;stroke:none;stroke-width:0.133333" />
      <path
         id="path51"
         d="m 627.62265,10.4592 c -3.73493,0 -6.774,3.03907 -6.774,6.774 0,3.73493 3.03907,6.77346 6.774,6.77346 3.73587,0 6.77493,-3.03853 6.77493,-6.77346 0,-3.73493 -3.03906,-6.774 -6.77493,-6.774 z m 0,14.8808 c -4.47026,0 -8.10733,-3.636 -8.10733,-8.1068 0,-4.4708 3.63707,-8.10733 8.10733,-8.10733 4.4708,0 8.10827,3.63653 8.10827,8.10733 0,4.4708 -3.63747,8.1068 -8.10827,8.1068"
         style="fill:#040606;fill-opacity:1;fill-rule:nonzero;stroke:none;stroke-width:0.133333" />
      <path
         id="path52"
         d="m 602.29972,35.628 c -3.73493,0 -6.774,3.03853 -6.774,6.77506 0,3.73427 3.03907,6.7728 6.774,6.7728 3.73547,0 6.77453,-3.03853 6.77453,-6.7728 0,-3.73653 -3.03906,-6.77506 -6.77453,-6.77506 z m 0,14.8812 c -4.47027,0 -8.10733,-3.63587 -8.10733,-8.10614 0,-4.47093 3.63706,-8.1084 8.10733,-8.1084 4.4708,0 8.10787,3.63747 8.10787,8.1084 0,4.47027 -3.63707,8.10614 -8.10787,8.10614"
         style="fill:#040606;fill-opacity:1;fill-rule:nonzero;stroke:none;stroke-width:0.133333" />
      <path
         id="path53"
         d="m 635.06372,42.40306 c 0,4.10934 -3.3312,7.44107 -7.44054,7.44107 -4.10986,0 -7.44119,-3.33173 -7.44119,-7.44107 0,-4.10946 3.33133,-7.44173 7.44119,-7.44173 4.10934,0 7.44054,3.33227 7.44054,7.44173"
         style="fill:#040606;fill-opacity:1;fill-rule:nonzero;stroke:none;stroke-width:0.133333" />
      <path
         id="path54"
         d="m 627.62265,35.628 c -3.73493,0 -6.774,3.03853 -6.774,6.77506 0,3.73427 3.03907,6.7728 6.774,6.7728 3.73587,0 6.77493,-3.03853 6.77493,-6.7728 0,-3.73653 -3.03906,-6.77506 -6.77493,-6.77506 z m 0,14.8812 c -4.47026,0 -8.10733,-3.63587 -8.10733,-8.10614 0,-4.47093 3.63707,-8.1084 8.10733,-8.1084 4.4708,0 8.10827,3.63747 8.10827,8.1084 0,4.47027 -3.63747,8.10614 -8.10827,8.10614"
         style="fill:#040606;fill-opacity:1;fill-rule:nonzero;stroke:none;stroke-width:0.133333" />
      <path
         id="path55"
         d="m 602.29972,60.79733 c -3.73493,0 -6.774,3.03907 -6.774,6.77493 0,3.73439 3.03907,6.77294 6.774,6.77294 3.73547,0 6.77453,-3.03855 6.77453,-6.77294 0,-3.73586 -3.03906,-6.77493 -6.77453,-6.77493 z m 0,14.8812 c -4.47027,0 -8.10733,-3.63595 -8.10733,-8.10627 0,-4.4708 3.63706,-8.10826 8.10733,-8.10826 4.4708,0 8.10787,3.63746 8.10787,8.10826 0,4.47032 -3.63707,8.10627 -8.10787,8.10627"
         style="fill:#040606;fill-opacity:1;fill-rule:nonzero;stroke:none;stroke-width:0.133333" />
      <path
         id="path56"
         d="m 627.62265,60.79733 c -3.73493,0 -6.774,3.03907 -6.774,6.77493 0,3.73439 3.03907,6.77294 6.774,6.77294 3.73587,0 6.77493,-3.03855 6.77493,-6.77294 0,-3.73586 -3.03906,-6.77493 -6.77493,-6.77493 z m 0,14.8812 c -4.47026,0 -8.10733,-3.63595 -8.10733,-8.10627 0,-4.4708 3.63707,-8.10826 8.10733,-8.10826 4.4708,0 8.10827,3.63746 8.10827,8.10826 0,4.47032 -3.63747,8.10627 -8.10827,8.10627"
         style="fill:#040606;fill-opacity:1;fill-rule:nonzero;stroke:none;stroke-width:0.133333" />
      <text
         xml:space="preserve"
         style="font-style:normal;font-variant:normal;font-weight:normal;font-stretch:normal;font-size:53.3333px;font-family:'CMU Serif';-inkscape-font-specification:'CMU Serif';fill:#000000;stroke-width:1.70079"
         x="645.67584"
         y="56.162628"
         id="text101"><tspan
           sodipodi:role="line"
           id="tspan101"
           x="645.67584"
           y="56.162628">5</tspan></text>
    </g>
    <g
       id="g8"
       transform="translate(-38.889524)">
      <path
         id="path58"
         d="m 725.31599,17.2332 c 0,4.10933 -3.332,7.44173 -7.44133,7.44173 -4.10934,0 -7.44,-3.3324 -7.44,-7.44173 0,-4.10933 3.33066,-7.44107 7.44,-7.44107 4.10933,0 7.44133,3.33174 7.44133,7.44107"
         style="fill:#040606;fill-opacity:1;fill-rule:nonzero;stroke:none;stroke-width:0.133333" />
      <path
         id="path59"
         d="m 717.87466,10.4592 c -3.73467,0 -6.77467,3.03907 -6.77467,6.774 0,3.73493 3.04,6.77346 6.77467,6.77346 3.736,0 6.77466,-3.03853 6.77466,-6.77346 0,-3.73493 -3.03866,-6.774 -6.77466,-6.774 z m 0,14.8808 c -4.47067,0 -8.108,-3.636 -8.108,-8.1068 0,-4.4708 3.63733,-8.10733 8.108,-8.10733 4.47066,0 8.108,3.63653 8.108,8.10733 0,4.4708 -3.63734,8.1068 -8.108,8.1068"
         style="fill:#040606;fill-opacity:1;fill-rule:nonzero;stroke:none;stroke-width:0.133333" />
      <path
         id="path60"
         d="m 750.63866,17.2332 c 0,4.10933 -3.33067,7.44173 -7.44,7.44173 -4.11067,0 -7.44134,-3.3324 -7.44134,-7.44173 0,-4.10933 3.33067,-7.44107 7.44134,-7.44107 4.10933,0 7.44,3.33174 7.44,7.44107"
         style="fill:#040606;fill-opacity:1;fill-rule:nonzero;stroke:none;stroke-width:0.133333" />
      <path
         id="path61"
         d="m 743.19866,10.4592 c -3.736,0 -6.77467,3.03907 -6.77467,6.774 0,3.73493 3.03867,6.77346 6.77467,6.77346 3.73466,0 6.77333,-3.03853 6.77333,-6.77346 0,-3.73493 -3.03867,-6.774 -6.77333,-6.774 z m 0,14.8808 c -4.47067,0 -8.108,-3.636 -8.108,-8.1068 0,-4.4708 3.63733,-8.10733 8.108,-8.10733 4.47066,0 8.10666,3.63653 8.10666,8.10733 0,4.4708 -3.636,8.1068 -8.10666,8.1068"
         style="fill:#040606;fill-opacity:1;fill-rule:nonzero;stroke:none;stroke-width:0.133333" />
      <path
         id="path62"
         d="m 725.31599,42.40306 c 0,4.10934 -3.332,7.44107 -7.44133,7.44107 -4.10934,0 -7.44,-3.33173 -7.44,-7.44107 0,-4.10946 3.33066,-7.44173 7.44,-7.44173 4.10933,0 7.44133,3.33227 7.44133,7.44173"
         style="fill:#040606;fill-opacity:1;fill-rule:nonzero;stroke:none;stroke-width:0.133333" />
      <path
         id="path63"
         d="m 717.87466,35.628 c -3.73467,0 -6.77467,3.03853 -6.77467,6.77506 0,3.73427 3.04,6.7728 6.77467,6.7728 3.736,0 6.77466,-3.03853 6.77466,-6.7728 0,-3.73653 -3.03866,-6.77506 -6.77466,-6.77506 z m 0,14.8812 c -4.47067,0 -8.108,-3.63587 -8.108,-8.10614 0,-4.47093 3.63733,-8.1084 8.108,-8.1084 4.47066,0 8.108,3.63747 8.108,8.1084 0,4.47027 -3.63734,8.10614 -8.108,8.10614"
         style="fill:#040606;fill-opacity:1;fill-rule:nonzero;stroke:none;stroke-width:0.133333" />
      <path
         id="path64"
         d="m 743.19866,35.628 c -3.736,0 -6.77467,3.03853 -6.77467,6.77506 0,3.73427 3.03867,6.7728 6.77467,6.7728 3.73466,0 6.77333,-3.03853 6.77333,-6.7728 0,-3.73653 -3.03867,-6.77506 -6.77333,-6.77506 z m 0,14.8812 c -4.47067,0 -8.108,-3.63587 -8.108,-8.10614 0,-4.47093 3.63733,-8.1084 8.108,-8.1084 4.47066,0 8.10666,3.63747 8.10666,8.1084 0,4.47027 -3.636,8.10614 -8.10666,8.10614"
         style="fill:#040606;fill-opacity:1;fill-rule:nonzero;stroke:none;stroke-width:0.133333" />
      <path
         id="path65"
         d="m 717.87466,60.79733 c -3.73467,0 -6.77467,3.03907 -6.77467,6.77493 0,3.73439 3.04,6.77294 6.77467,6.77294 3.736,0 6.77466,-3.03855 6.77466,-6.77294 0,-3.73586 -3.03866,-6.77493 -6.77466,-6.77493 z m 0,14.8812 c -4.47067,0 -8.108,-3.63595 -8.108,-8.10627 0,-4.4708 3.63733,-8.10826 8.108,-8.10826 4.47066,0 8.108,3.63746 8.108,8.10826 0,4.47032 -3.63734,8.10627 -8.108,8.10627"
         style="fill:#040606;fill-opacity:1;fill-rule:nonzero;stroke:none;stroke-width:0.133333" />
      <path
         id="path66"
         d="m 743.19866,60.79733 c -3.736,0 -6.77467,3.03907 -6.77467,6.77493 0,3.73439 3.03867,6.77294 6.77467,6.77294 3.73466,0 6.77333,-3.03855 6.77333,-6.77294 0,-3.73586 -3.03867,-6.77493 -6.77333,-6.77493 z m 0,14.8812 c -4.47067,0 -8.108,-3.63595 -8.108,-8.10627 0,-4.4708 3.63733,-8.10826 8.108,-8.10826 4.47066,0 8.10666,3.63746 8.10666,8.10826 0,4.47032 -3.636,8.10627 -8.10666,8.10627"
         style="fill:#040606;fill-opacity:1;fill-rule:nonzero;stroke:none;stroke-width:0.133333" />
      <text
         xml:space="preserve"
         style="font-style:normal;font-variant:normal;font-weight:normal;font-stretch:normal;font-size:53.3333px;font-family:'CMU Serif';-inkscape-font-specification:'CMU Serif';fill:#000000;stroke-width:1.70079"
         x="761.89612"
         y="56.318878"
         id="text102"><tspan
           sodipodi:role="line"
           id="tspan102"
           x="761.89612"
           y="56.318878">6</tspan></text>
    </g>
    <g
       id="g9"
       transform="translate(-26.528317)">
      <path
         id="path68"
         d="m 841.93073,17.2332 c 0,4.10933 -3.33067,7.44173 -7.44134,7.44173 -4.10933,0 -7.44,-3.3324 -7.44,-7.44173 0,-4.10933 3.33067,-7.44107 7.44,-7.44107 4.11067,0 7.44134,3.33174 7.44134,7.44107"
         style="fill:#040606;fill-opacity:1;fill-rule:nonzero;stroke:none;stroke-width:0.133333" />
      <path
         id="path69"
         d="m 834.49073,10.4592 c -3.736,0 -6.77467,3.03907 -6.77467,6.774 0,3.73493 3.03867,6.77346 6.77467,6.77346 3.73466,0 6.77333,-3.03853 6.77333,-6.77346 0,-3.73493 -3.03867,-6.774 -6.77333,-6.774 z m 0,14.8808 c -4.472,0 -8.108,-3.636 -8.108,-8.1068 0,-4.4708 3.636,-8.10733 8.108,-8.10733 4.47066,0 8.10666,3.63653 8.10666,8.10733 0,4.4708 -3.636,8.1068 -8.10666,8.1068"
         style="fill:#040606;fill-opacity:1;fill-rule:nonzero;stroke:none;stroke-width:0.133333" />
      <path
         id="path70"
         d="m 867.25339,17.2332 c 0,4.10933 -3.33066,7.44173 -7.44,7.44173 -4.10933,0 -7.44133,-3.3324 -7.44133,-7.44173 0,-4.10933 3.332,-7.44107 7.44133,-7.44107 4.10934,0 7.44,3.33174 7.44,7.44107"
         style="fill:#040606;fill-opacity:1;fill-rule:nonzero;stroke:none;stroke-width:0.133333" />
      <path
         id="path71"
         d="m 859.81339,10.4592 c -3.736,0 -6.77466,3.03907 -6.77466,6.774 0,3.73493 3.03866,6.77346 6.77466,6.77346 3.73467,0 6.77334,-3.03853 6.77334,-6.77346 0,-3.73493 -3.03867,-6.774 -6.77334,-6.774 z m 0,14.8808 c -4.47066,0 -8.108,-3.636 -8.108,-8.1068 0,-4.4708 3.63734,-8.10733 8.108,-8.10733 4.47067,0 8.10667,3.63653 8.10667,8.10733 0,4.4708 -3.636,8.1068 -8.10667,8.1068"
         style="fill:#040606;fill-opacity:1;fill-rule:nonzero;stroke:none;stroke-width:0.133333" />
      <path
         id="path72"
         d="m 841.93073,42.40306 c 0,4.10934 -3.33067,7.44107 -7.44134,7.44107 -4.10933,0 -7.44,-3.33173 -7.44,-7.44107 0,-4.10946 3.33067,-7.44173 7.44,-7.44173 4.11067,0 7.44134,3.33227 7.44134,7.44173"
         style="fill:#040606;fill-opacity:1;fill-rule:nonzero;stroke:none;stroke-width:0.133333" />
      <path
         id="path73"
         d="m 834.49073,35.628 c -3.736,0 -6.77467,3.03853 -6.77467,6.77506 0,3.73427 3.03867,6.7728 6.77467,6.7728 3.73466,0 6.77333,-3.03853 6.77333,-6.7728 0,-3.73653 -3.03867,-6.77506 -6.77333,-6.77506 z m 0,14.8812 c -4.472,0 -8.108,-3.63587 -8.108,-8.10614 0,-4.47093 3.636,-8.1084 8.108,-8.1084 4.47066,0 8.10666,3.63747 8.10666,8.1084 0,4.47027 -3.636,8.10614 -8.10666,8.10614"
         style="fill:#040606;fill-opacity:1;fill-rule:nonzero;stroke:none;stroke-width:0.133333" />
      <path
         id="path74"
         d="m 867.25339,42.40306 c 0,4.10934 -3.33066,7.44107 -7.44,7.44107 -4.10933,0 -7.44133,-3.33173 -7.44133,-7.44107 0,-4.10946 3.332,-7.44173 7.44133,-7.44173 4.10934,0 7.44,3.33227 7.44,7.44173"
         style="fill:#040606;fill-opacity:1;fill-rule:nonzero;stroke:none;stroke-width:0.133333" />
      <path
         id="path75"
         d="m 859.81339,35.628 c -3.736,0 -6.77466,3.03853 -6.77466,6.77506 0,3.73427 3.03866,6.7728 6.77466,6.7728 3.73467,0 6.77334,-3.03853 6.77334,-6.7728 0,-3.73653 -3.03867,-6.77506 -6.77334,-6.77506 z m 0,14.8812 c -4.47066,0 -8.108,-3.63587 -8.108,-8.10614 0,-4.47093 3.63734,-8.1084 8.108,-8.1084 4.47067,0 8.10667,3.63747 8.10667,8.1084 0,4.47027 -3.636,8.10614 -8.10667,8.10614"
         style="fill:#040606;fill-opacity:1;fill-rule:nonzero;stroke:none;stroke-width:0.133333" />
      <path
         id="path76"
         d="m 834.49073,60.79733 c -3.736,0 -6.77467,3.03907 -6.77467,6.77493 0,3.73439 3.03867,6.77294 6.77467,6.77294 3.73466,0 6.77333,-3.03855 6.77333,-6.77294 0,-3.73586 -3.03867,-6.77493 -6.77333,-6.77493 z m 0,14.8812 c -4.472,0 -8.108,-3.63595 -8.108,-8.10627 0,-4.4708 3.636,-8.10826 8.108,-8.10826 4.47066,0 8.10666,3.63746 8.10666,8.10826 0,4.47032 -3.636,8.10627 -8.10666,8.10627"
         style="fill:#040606;fill-opacity:1;fill-rule:nonzero;stroke:none;stroke-width:0.133333" />
      <path
         id="path77"
         d="m 859.81339,60.79733 c -3.736,0 -6.77466,3.03907 -6.77466,6.77493 0,3.73439 3.03866,6.77294 6.77466,6.77294 3.73467,0 6.77334,-3.03855 6.77334,-6.77294 0,-3.73586 -3.03867,-6.77493 -6.77334,-6.77493 z m 0,14.8812 c -4.47066,0 -8.108,-3.63595 -8.108,-8.10627 0,-4.4708 3.63734,-8.10826 8.108,-8.10826 4.47067,0 8.10667,3.63746 8.10667,8.10826 0,4.47032 -3.636,8.10627 -8.10667,8.10627"
         style="fill:#040606;fill-opacity:1;fill-rule:nonzero;stroke:none;stroke-width:0.133333" />
      <text
         xml:space="preserve"
         style="font-style:normal;font-variant:normal;font-weight:normal;font-stretch:normal;font-size:53.3333px;font-family:'CMU Serif';-inkscape-font-specification:'CMU Serif';fill:#000000;stroke-width:1.70079"
         x="877.53168"
         y="56.37096"
         id="text103"><tspan
           sodipodi:role="line"
           id="tspan103"
           x="877.53168"
           y="56.37096">7</tspan></text>
    </g>
    <g
       id="g10"
       transform="translate(-12.715447)">
      <path
         id="path79"
         d="m 957.60796,17.2332 c 0,4.10933 -3.33066,7.44173 -7.44,7.44173 -4.11066,0 -7.44133,-3.3324 -7.44133,-7.44173 0,-4.10933 3.33067,-7.44107 7.44133,-7.44107 4.10934,0 7.44,3.33174 7.44,7.44107"
         style="fill:#040606;fill-opacity:1;fill-rule:nonzero;stroke:none;stroke-width:0.133333" />
      <path
         id="path80"
         d="m 950.16663,10.4592 c -3.73467,0 -6.77333,3.03907 -6.77333,6.774 0,3.73493 3.03866,6.77346 6.77333,6.77346 3.736,0 6.77467,-3.03853 6.77467,-6.77346 0,-3.73493 -3.03867,-6.774 -6.77467,-6.774 z m 0,14.8808 c -4.47067,0 -8.10667,-3.636 -8.10667,-8.1068 0,-4.4708 3.636,-8.10733 8.10667,-8.10733 4.472,0 8.108,3.63653 8.108,8.10733 0,4.4708 -3.636,8.1068 -8.108,8.1068"
         style="fill:#040606;fill-opacity:1;fill-rule:nonzero;stroke:none;stroke-width:0.133333" />
      <path
         id="path81"
         d="m 975.49063,10.4592 c -3.736,0 -6.77467,3.03907 -6.77467,6.774 0,3.73493 3.03867,6.77346 6.77467,6.77346 3.73468,0 6.77467,-3.03853 6.77467,-6.77346 0,-3.73493 -3.03999,-6.774 -6.77467,-6.774 z m 0,14.8808 c -4.47067,0 -8.10799,-3.636 -8.10799,-8.1068 0,-4.4708 3.63733,-8.10733 8.10799,-8.10733 4.47068,0 8.108,3.63653 8.108,8.10733 0,4.4708 -3.63733,8.1068 -8.108,8.1068"
         style="fill:#040606;fill-opacity:1;fill-rule:nonzero;stroke:none;stroke-width:0.133333" />
      <path
         id="path82"
         d="m 957.60796,42.40306 c 0,4.10934 -3.33066,7.44107 -7.44,7.44107 -4.11066,0 -7.44133,-3.33173 -7.44133,-7.44107 0,-4.10946 3.33067,-7.44173 7.44133,-7.44173 4.10934,0 7.44,3.33227 7.44,7.44173"
         style="fill:#040606;fill-opacity:1;fill-rule:nonzero;stroke:none;stroke-width:0.133333" />
      <path
         id="path83"
         d="m 950.16663,35.628 c -3.73467,0 -6.77333,3.03853 -6.77333,6.77506 0,3.73427 3.03866,6.7728 6.77333,6.7728 3.736,0 6.77467,-3.03853 6.77467,-6.7728 0,-3.73653 -3.03867,-6.77506 -6.77467,-6.77506 z m 0,14.8812 c -4.47067,0 -8.10667,-3.63587 -8.10667,-8.10614 0,-4.47093 3.636,-8.1084 8.10667,-8.1084 4.472,0 8.108,3.63747 8.108,8.1084 0,4.47027 -3.636,8.10614 -8.108,8.10614"
         style="fill:#040606;fill-opacity:1;fill-rule:nonzero;stroke:none;stroke-width:0.133333" />
      <path
         id="path84"
         d="m 982.93063,42.40306 c 0,4.10934 -3.33067,7.44107 -7.44,7.44107 -4.10933,0 -7.44133,-3.33173 -7.44133,-7.44107 0,-4.10946 3.332,-7.44173 7.44133,-7.44173 4.10933,0 7.44,3.33227 7.44,7.44173"
         style="fill:#040606;fill-opacity:1;fill-rule:nonzero;stroke:none;stroke-width:0.133333" />
      <path
         id="path85"
         d="m 975.49063,35.628 c -3.736,0 -6.77467,3.03853 -6.77467,6.77506 0,3.73427 3.03867,6.7728 6.77467,6.7728 3.73468,0 6.77467,-3.03853 6.77467,-6.7728 0,-3.73653 -3.03999,-6.77506 -6.77467,-6.77506 z m 0,14.8812 c -4.47067,0 -8.10799,-3.63587 -8.10799,-8.10614 0,-4.47093 3.63733,-8.1084 8.10799,-8.1084 4.47068,0 8.108,3.63747 8.108,8.1084 0,4.47027 -3.63733,8.10614 -8.108,8.10614"
         style="fill:#040606;fill-opacity:1;fill-rule:nonzero;stroke:none;stroke-width:0.133333" />
      <path
         id="path86"
         d="m 950.16663,60.79733 c -3.73467,0 -6.77333,3.03907 -6.77333,6.77493 0,3.73439 3.03866,6.77294 6.77333,6.77294 3.736,0 6.77467,-3.03855 6.77467,-6.77294 0,-3.73586 -3.03867,-6.77493 -6.77467,-6.77493 z m 0,14.8812 c -4.47067,0 -8.10667,-3.63595 -8.10667,-8.10627 0,-4.4708 3.636,-8.10826 8.10667,-8.10826 4.472,0 8.108,3.63746 8.108,8.10826 0,4.47032 -3.636,8.10627 -8.108,8.10627"
         style="fill:#040606;fill-opacity:1;fill-rule:nonzero;stroke:none;stroke-width:0.133333" />
      <path
         id="path87"
         d="m 975.49063,60.79733 c -3.736,0 -6.77467,3.03907 -6.77467,6.77493 0,3.73439 3.03867,6.77294 6.77467,6.77294 3.73468,0 6.77467,-3.03855 6.77467,-6.77294 0,-3.73586 -3.03999,-6.77493 -6.77467,-6.77493 z m 0,14.8812 c -4.47067,0 -8.10799,-3.63595 -8.10799,-8.10627 0,-4.4708 3.63733,-8.10826 8.10799,-8.10826 4.47068,0 8.108,3.63746 8.108,8.10826 0,4.47032 -3.63733,8.10627 -8.108,8.10627"
         style="fill:#040606;fill-opacity:1;fill-rule:nonzero;stroke:none;stroke-width:0.133333" />
      <text
         xml:space="preserve"
         style="font-style:normal;font-variant:normal;font-weight:normal;font-stretch:normal;font-size:53.3333px;font-family:'CMU Serif';-inkscape-font-specification:'CMU Serif';fill:#000000;stroke-width:1.70079"
         x="994.39783"
         y="56.381378"
         id="text104"><tspan
           sodipodi:role="line"
           id="tspan104"
           x="994.39783"
           y="56.381378">8</tspan></text>
    </g>
    <g
       id="g11">
      <path
         id="path89"
         d="m 1066.6368,10.4592 c -3.7347,0 -6.7733,3.03907 -6.7733,6.774 0,3.73493 3.0386,6.77346 6.7733,6.77346 3.736,0 6.776,-3.03853 6.776,-6.77346 0,-3.73493 -3.04,-6.774 -6.776,-6.774 z m 0,14.8808 c -4.4706,0 -8.1066,-3.636 -8.1066,-8.1068 0,-4.4708 3.636,-8.10733 8.1066,-8.10733 4.4707,0 8.1093,3.63653 8.1093,8.10733 0,4.4708 -3.6386,8.1068 -8.1093,8.1068"
         style="fill:#040606;fill-opacity:1;fill-rule:nonzero;stroke:none;stroke-width:0.133333" />
      <path
         id="path90"
         d="m 1099.4021,17.2332 c 0,4.10933 -3.3319,7.44173 -7.4413,7.44173 -4.1093,0 -7.4413,-3.3324 -7.4413,-7.44173 0,-4.10933 3.332,-7.44107 7.4413,-7.44107 4.1094,0 7.4413,3.33174 7.4413,7.44107"
         style="fill:#040606;fill-opacity:1;fill-rule:nonzero;stroke:none;stroke-width:0.133333" />
      <path
         id="path91"
         d="m 1091.9608,10.4592 c -3.736,0 -6.7746,3.03907 -6.7746,6.774 0,3.73493 3.0386,6.77346 6.7746,6.77346 3.7347,0 6.7747,-3.03853 6.7747,-6.77346 0,-3.73493 -3.04,-6.774 -6.7747,-6.774 z m 0,14.8808 c -4.4706,0 -8.108,-3.636 -8.108,-8.1068 0,-4.4708 3.6374,-8.10733 8.108,-8.10733 4.4707,0 8.108,3.63653 8.108,8.10733 0,4.4708 -3.6373,8.1068 -8.108,8.1068"
         style="fill:#040606;fill-opacity:1;fill-rule:nonzero;stroke:none;stroke-width:0.133333" />
      <path
         id="path92"
         d="m 1074.0782,42.40306 c 0,4.10934 -3.3307,7.44107 -7.44,7.44107 -4.1094,0 -7.4414,-3.33173 -7.4414,-7.44107 0,-4.10946 3.332,-7.44173 7.4414,-7.44173 4.1093,0 7.44,3.33227 7.44,7.44173"
         style="fill:#040606;fill-opacity:1;fill-rule:nonzero;stroke:none;stroke-width:0.133333" />
      <path
         id="path93"
         d="m 1066.6368,35.628 c -3.7347,0 -6.7733,3.03853 -6.7733,6.77506 0,3.73427 3.0386,6.7728 6.7733,6.7728 3.736,0 6.776,-3.03853 6.776,-6.7728 0,-3.73653 -3.04,-6.77506 -6.776,-6.77506 z m 0,14.8812 c -4.4706,0 -8.1066,-3.63587 -8.1066,-8.10614 0,-4.47093 3.636,-8.1084 8.1066,-8.1084 4.4707,0 8.1093,3.63747 8.1093,8.1084 0,4.47027 -3.6386,8.10614 -8.1093,8.10614"
         style="fill:#040606;fill-opacity:1;fill-rule:nonzero;stroke:none;stroke-width:0.133333" />
      <path
         id="path94"
         d="m 1091.9608,35.628 c -3.736,0 -6.7746,3.03853 -6.7746,6.77506 0,3.73427 3.0386,6.7728 6.7746,6.7728 3.7347,0 6.7747,-3.03853 6.7747,-6.7728 0,-3.73653 -3.04,-6.77506 -6.7747,-6.77506 z m 0,14.8812 c -4.4706,0 -8.108,-3.63587 -8.108,-8.10614 0,-4.47093 3.6374,-8.1084 8.108,-8.1084 4.4707,0 8.108,3.63747 8.108,8.1084 0,4.47027 -3.6373,8.10614 -8.108,8.10614"
         style="fill:#040606;fill-opacity:1;fill-rule:nonzero;stroke:none;stroke-width:0.133333" />
      <path
         id="path95"
         d="m 1066.6368,60.79733 c -3.7347,0 -6.7733,3.03907 -6.7733,6.77493 0,3.73439 3.0386,6.77294 6.7733,6.77294 3.736,0 6.776,-3.03855 6.776,-6.77294 0,-3.73586 -3.04,-6.77493 -6.776,-6.77493 z m 0,14.8812 c -4.4706,0 -8.1066,-3.63595 -8.1066,-8.10627 0,-4.4708 3.636,-8.10826 8.1066,-8.10826 4.4707,0 8.1093,3.63746 8.1093,8.10826 0,4.47032 -3.6386,8.10627 -8.1093,8.10627"
         style="fill:#040606;fill-opacity:1;fill-rule:nonzero;stroke:none;stroke-width:0.133333" />
      <path
         id="path96"
         d="m 1091.9608,60.79733 c -3.736,0 -6.7746,3.03907 -6.7746,6.77493 0,3.73439 3.0386,6.77294 6.7746,6.77294 3.7347,0 6.7747,-3.03855 6.7747,-6.77294 0,-3.73586 -3.04,-6.77493 -6.7747,-6.77493 z m 0,14.8812 c -4.4706,0 -8.108,-3.63595 -8.108,-8.10627 0,-4.4708 3.6374,-8.10826 8.108,-8.10826 4.4707,0 8.108,3.63746 8.108,8.10826 0,4.47032 -3.6373,8.10627 -8.108,8.10627"
         style="fill:#040606;fill-opacity:1;fill-rule:nonzero;stroke:none;stroke-width:0.133333" />
      <text
         xml:space="preserve"
         style="font-style:normal;font-variant:normal;font-weight:normal;font-stretch:normal;font-size:53.3333px;font-family:'CMU Serif';-inkscape-font-specification:'CMU Serif';fill:#000000;stroke-width:1.70079"
         x="1111.1179"
         y="56.318878"
         id="text105"><tspan
           sodipodi:role="line"
           id="tspan105"
           x="1111.1179"
           y="56.318878">9</tspan></text>
    </g>
  </g>
</svg>
