<?xml version="1.0" encoding="UTF-8" standalone="no"?>
<!-- Created with Inkscape (http://www.inkscape.org/) -->

<svg
   version="1.1"
   id="svg1"
   width="114.21709"
   height="110.00031"
   viewBox="0 0 114.21709 110.00031"
   sodipodi:docname="J03-1.svg"
   inkscape:version="1.3.1 (9b9bdc1480, 2023-11-25, custom)"
   xmlns:inkscape="http://www.inkscape.org/namespaces/inkscape"
   xmlns:sodipodi="http://sodipodi.sourceforge.net/DTD/sodipodi-0.dtd"
   xmlns="http://www.w3.org/2000/svg"
   xmlns:svg="http://www.w3.org/2000/svg">
  <defs
     id="defs1" />
  <sodipodi:namedview
     id="namedview1"
     pagecolor="#ffffff"
     bordercolor="#000000"
     borderopacity="0.25"
     inkscape:showpageshadow="2"
     inkscape:pageopacity="0.0"
     inkscape:pagecheckerboard="0"
     inkscape:deskcolor="#d1d1d1"
     showgrid="false"
     inkscape:zoom="5.3112509"
     inkscape:cx="55.91903"
     inkscape:cy="56.29559"
     inkscape:window-width="1464"
     inkscape:window-height="800"
     inkscape:window-x="72"
     inkscape:window-y="27"
     inkscape:window-maximized="1"
     inkscape:current-layer="g1">
    <inkscape:page
       x="0"
       y="0"
       inkscape:label="1"
       id="page1"
       width="114.21709"
       height="110.00031"
       margin="0"
       bleed="0" />
  </sodipodi:namedview>
  <g
     id="g1"
     inkscape:groupmode="layer"
     inkscape:label="1"
     transform="translate(-2.3541026,0.00141521)">
    <g
       id="g19">
      <path
         id="path2"
         d="M 16.476533,49.476002 V 76.302134 L 64.854132,93.0412 V 39.389068 L 16.476533,22.650002 v 26.826"
         style="fill:#e9e9e9;fill-opacity:1;fill-rule:nonzero;stroke:none;stroke-width:0.133333" />
      <path
         id="path3"
         d="M 16.476533,49.476002 V 76.302134 L 64.854132,93.0412 V 39.389068 L 16.476533,22.650002 Z"
         style="fill:none;stroke:#231f20;stroke-width:0.664176;stroke-linecap:butt;stroke-linejoin:round;stroke-miterlimit:10;stroke-dasharray:none;stroke-opacity:1" />
      <path
         id="path4"
         d="M 64.854132,66.215068 V 93.0412 L 101.13746,70.721868 V 17.069736 L 64.854132,39.389068 v 26.826"
         style="fill:#e9e9e9;fill-opacity:1;fill-rule:nonzero;stroke:none;stroke-width:0.133333" />
      <path
         id="path5"
         d="M 64.854132,66.215068 V 93.0412 L 101.13746,70.721868 V 17.069736 L 64.854132,39.389068 Z"
         style="fill:none;stroke:#231f20;stroke-width:0.664176;stroke-linecap:butt;stroke-linejoin:round;stroke-miterlimit:10;stroke-dasharray:none;stroke-opacity:1" />
      <path
         id="path6"
         d="M 34.618266,11.490136 16.476533,22.650002 64.854132,39.389068 101.13746,17.069736 52.759865,0.33066947 34.618266,11.490136"
         style="fill:#e9e9e9;fill-opacity:1;fill-rule:nonzero;stroke:#231f20;stroke-width:0.664176;stroke-linecap:butt;stroke-linejoin:round;stroke-miterlimit:10;stroke-dasharray:none;stroke-opacity:1" />
      <path
         id="path7"
         d="m 33.377066,41.948935 c 0,-2.961466 -2.1672,-6.115066 -4.837467,-7.039066 -2.670266,-0.923867 -4.838,0.729733 -4.838,3.6912 0,2.961466 2.167734,6.115066 4.838,7.039066 2.670267,0.923867 4.837467,-0.729733 4.837467,-3.6912"
         style="fill:#231f20;fill-opacity:1;fill-rule:nonzero;stroke:none;stroke-width:0.133333" />
      <path
         id="path8"
         d="m 57.697332,77.148934 c 0,-2.961466 -2.1676,-6.115066 -4.838,-7.039066 -2.670267,-0.923867 -4.837467,0.729733 -4.837467,3.6912 0,2.961466 2.1672,6.115066 4.837467,7.039066 2.6704,0.923867 4.838,-0.729733 4.838,-3.6912"
         style="fill:#231f20;fill-opacity:1;fill-rule:nonzero;stroke:none;stroke-width:0.133333" />
      <path
         id="path9"
         d="m 77.607865,44.922935 c 0,-2.961467 -1.6256,-4.365067 -3.628134,-3.1328 -2.003199,1.231733 -3.628666,4.635333 -3.628666,7.5968 0,2.961467 1.625467,4.3652 3.628666,3.133333 2.002534,-1.232266 3.628134,-4.635333 3.628134,-7.597333"
         style="fill:#231f20;fill-opacity:1;fill-rule:nonzero;stroke:none;stroke-width:0.133333" />
      <path
         id="path10"
         d="m 86.567731,52.763068 c 0,-2.961466 -1.6256,-4.3652 -3.628133,-3.133333 -2.0032,1.232267 -3.628133,4.635333 -3.628133,7.597333 0,2.961467 1.624933,4.365067 3.628133,3.1328 2.002533,-1.231733 3.628133,-4.635333 3.628133,-7.5968"
         style="fill:#231f20;fill-opacity:1;fill-rule:nonzero;stroke:none;stroke-width:0.133333" />
      <path
         id="path11"
         d="m 95.687464,60.603068 c 0,-2.961467 -1.624933,-4.365067 -3.628133,-3.133333 -2.002533,1.2324 -3.628133,4.635466 -3.628133,7.596933 0,2.962 1.6256,4.3656 3.628133,3.133333 2.0032,-1.231733 3.628133,-4.635466 3.628133,-7.596933"
         style="fill:#231f20;fill-opacity:1;fill-rule:nonzero;stroke:none;stroke-width:0.133333" />
      <path
         id="path12"
         d="m 63.617198,21.468802 c 2.002534,-1.231866 1.460934,-2.981866 -1.209333,-3.905733 -2.6704,-0.924 -6.463066,-0.674 -8.466133,0.557733 -2.002667,1.232267 -1.461067,2.982267 1.209333,3.906267 2.670267,0.924 6.463467,0.674 8.466133,-0.558267"
         style="fill:#231f20;fill-opacity:1;fill-rule:nonzero;stroke:none;stroke-width:0.133333" />
      <text
         xml:space="preserve"
         style="font-weight:bold;font-size:21.3333px;font-family:'CMU Serif';-inkscape-font-specification:'CMU Serif Bold';text-align:center;text-anchor:middle;fill:#000000;stroke-width:2"
         x="6.7700782"
         y="29.657164"
         id="text16"><tspan
           sodipodi:role="line"
           id="tspan16"
           x="6.7700782"
           y="29.657164"
           style="font-style:italic;font-variant:normal;font-weight:500;font-stretch:normal;font-size:21.3333px;font-family:'CMU Serif';-inkscape-font-specification:'CMU Serif Medium Italic'">S</tspan></text>
      <text
         xml:space="preserve"
         style="font-style:italic;font-variant:normal;font-weight:500;font-stretch:normal;font-size:21.3333px;font-family:'CMU Serif';-inkscape-font-specification:'CMU Serif Medium Italic';text-align:center;text-anchor:middle;fill:#000000;stroke-width:2"
         x="54.536884"
         y="55.394699"
         id="text17"><tspan
           sodipodi:role="line"
           id="tspan17"
           x="54.536884"
           y="55.394699">P</tspan></text>
      <text
         xml:space="preserve"
         style="font-style:italic;font-variant:normal;font-weight:500;font-stretch:normal;font-size:21.3333px;font-family:'CMU Serif';-inkscape-font-specification:'CMU Serif Medium Italic';text-align:center;text-anchor:middle;fill:#000000;stroke-width:2"
         x="107.93119"
         y="19.06357"
         id="text18"><tspan
           sodipodi:role="line"
           id="tspan18"
           x="107.93119"
           y="19.06357">Q</tspan></text>
      <text
         xml:space="preserve"
         style="font-style:italic;font-variant:normal;font-weight:500;font-stretch:normal;font-size:21.3333px;font-family:'CMU Serif';-inkscape-font-specification:'CMU Serif Medium Italic';text-align:center;text-anchor:middle;fill:#000000;stroke-width:2"
         x="57.732334"
         y="109.52956"
         id="text19"><tspan
           sodipodi:role="line"
           id="tspan19"
           x="57.732334"
           y="109.52956">R</tspan></text>
    </g>
  </g>
</svg>
