<?xml version="1.0" encoding="UTF-8" standalone="no"?>
<!-- Created with Inkscape (http://www.inkscape.org/) -->

<svg
   version="1.1"
   id="svg1"
   width="152.93193"
   height="117.04491"
   viewBox="0 0 152.93193 117.04491"
   sodipodi:docname="J11-1.svg"
   inkscape:version="1.3.1 (9b9bdc1480, 2023-11-25, custom)"
   xmlns:inkscape="http://www.inkscape.org/namespaces/inkscape"
   xmlns:sodipodi="http://sodipodi.sourceforge.net/DTD/sodipodi-0.dtd"
   xmlns="http://www.w3.org/2000/svg"
   xmlns:svg="http://www.w3.org/2000/svg">
  <defs
     id="defs1" />
  <sodipodi:namedview
     id="namedview1"
     pagecolor="#ffffff"
     bordercolor="#000000"
     borderopacity="0.25"
     inkscape:showpageshadow="2"
     inkscape:pageopacity="0.0"
     inkscape:pagecheckerboard="0"
     inkscape:deskcolor="#d1d1d1"
     showgrid="false"
     inkscape:zoom="6.5478264"
     inkscape:cx="76.972108"
     inkscape:cy="56.660024"
     inkscape:window-width="1848"
     inkscape:window-height="1016"
     inkscape:window-x="72"
     inkscape:window-y="27"
     inkscape:window-maximized="1"
     inkscape:current-layer="g1">
    <inkscape:page
       x="0"
       y="0"
       inkscape:label="1"
       id="page1"
       width="152.93193"
       height="117.04491"
       margin="0"
       bleed="0" />
  </sodipodi:namedview>
  <g
     id="g1"
     inkscape:groupmode="layer"
     inkscape:label="1"
     transform="translate(0.2041876,-1.327993)">
    <g
       id="g2">
      <path
         id="path2"
         d="M 49.054132,67.207335 86.849464,105.0026 138.47866,91.168267 152.312,39.539069 114.5172,1.7437362 62.887998,15.577603 Z"
         style="fill:none;stroke:#000000;stroke-width:0.831496;stroke-linecap:round;stroke-linejoin:round;stroke-miterlimit:10;stroke-dasharray:none;stroke-opacity:1" />
      <path
         id="path3"
         d="m 56.426532,39.692135 c 3.1964,0.856267 6.608933,0.1776 9.233866,-1.8364 2.625067,-2.014533 4.164134,-5.134933 4.164134,-8.443733 H 59.181199"
         style="fill:#c0c0c0;fill-opacity:1;fill-rule:nonzero;stroke:none;stroke-width:0.133333" />
      <path
         id="path4"
         d="M 11.258853,105.0026 H 86.849464"
         style="fill:none;stroke:#000000;stroke-width:0.831496;stroke-linecap:round;stroke-linejoin:round;stroke-miterlimit:10;stroke-dasharray:none;stroke-opacity:1" />
      <path
         id="path5"
         d="M 86.849464,105.0026 V 29.412002"
         style="fill:none;stroke:#000000;stroke-width:0.831496;stroke-linecap:round;stroke-linejoin:round;stroke-miterlimit:10;stroke-dasharray:none;stroke-opacity:1" />
      <path
         id="path6"
         d="M 86.849464,29.412002 H 11.258853"
         style="fill:none;stroke:#000000;stroke-width:0.831496;stroke-linecap:round;stroke-linejoin:round;stroke-miterlimit:10;stroke-dasharray:none;stroke-opacity:1" />
      <path
         id="path7"
         d="M 11.258853,29.412002 V 105.0026"
         style="fill:none;stroke:#000000;stroke-width:0.831496;stroke-linecap:round;stroke-linejoin:round;stroke-miterlimit:10;stroke-dasharray:none;stroke-opacity:1" />
      <path
         id="path8"
         d="m 11.684373,105.0026 c 0,0.23489 -0.190627,0.42552 -0.42552,0.42552 -0.235413,0 -0.42604,-0.19063 -0.42604,-0.42552 0,-0.23541 0.190627,-0.42604 0.42604,-0.42604 0.234893,0 0.42552,0.19063 0.42552,0.42604"
         style="fill:#000000;fill-opacity:1;fill-rule:nonzero;stroke:none;stroke-width:0.133333" />
      <path
         id="path10"
         d="m 1.7585679,116.7176 2.2192512,-8.889 c 0.042758,-0.17623 0.064493,-0.28124 0.064493,-0.31574 0,-0.1305 -0.087744,-0.21376 -0.264,-0.24826 h -0.01799 -0.015744 c -0.032256,0 -0.082502,-0.005 -0.1500096,-0.015 -0.1859904,-0.0224 -0.3952512,-0.0337 -0.6284928,-0.0337 -0.2857536,0 -0.440256,-0.0607 -0.4627584,-0.1815 0,-0.19799 0.082502,-0.30824 0.248256,-0.33074 h 0.015744 0.01801 0.199488 5.5597631 c 1.2689858,0 2.1742466,0.375 2.7157446,1.12498 0.241497,0.35326 0.362246,0.73952 0.362246,1.15876 0,0.89324 -0.496493,1.67024 -1.489498,2.3325 -0.01056,0 -0.021,0.006 -0.03151,0.018 -0.5857342,0.37426 -1.2314878,0.62774 -1.9364926,0.7605 1.1257536,0.13274 1.8982466,0.5745 2.3167486,1.32451 0.165754,0.30823 0.248256,0.64573 0.248256,1.01099 0,0.8055 -0.386246,1.56076 -1.1587582,2.26576 l -0.01799,0.018 c -0.948,0.86025 -2.0790144,1.29076 -3.3930048,1.29076 H 0.25332628 c -0.27599988,0 -0.42526068,-0.0607 -0.44701428,-0.1815 0,-0.19951 0.0825024,-0.3105 0.248256,-0.33075 h 0.19875828 c 0.7169856,0 1.14748802,-0.078 1.29073922,-0.2325 0.065261,-0.078 0.132,-0.23251 0.1987584,-0.4635 0,-0.012 0.00524,-0.0397 0.015744,-0.0826 z m 2.4982464,-4.76624 h 2.4180095 c 1.092,0 1.9905024,-0.3975 2.6977536,-1.19249 0.496493,-0.564 0.7447486,-1.17676 0.7447486,-1.83901 0,-0.80476 -0.330758,-1.32899 -0.9930046,-1.572 -0.2309952,-0.0886 -0.5017536,-0.132 -0.812256,-0.132 H 6.1783118 c -0.3982464,0 -0.6412416,0.0547 -0.7289856,0.165 v 0 0.0187 H 5.433563 v 0.015 c -0.044986,0.066 -0.094483,0.20848 -0.1499904,0.42975 z m -0.7447488,5.54475 h 2.2530047 c 1.0582464,0 1.9349952,-0.3975 2.6294976,-1.1925 0.531744,-0.61875 0.7972608,-1.3035 0.7972608,-2.0535 0,-0.80477 -0.2872512,-1.37325 -0.8617536,-1.704 -0.288,-0.15524 -0.6352512,-0.23325 -1.0417536,-0.23325 H 4.1585679 l -1.1429952,4.61925 c -0.055507,0.19876 -0.082502,0.32475 -0.082502,0.38026 0,0.0877 0.049498,0.14324 0.1500096,0.16574 v 0 0 h 0.066739 c 0.06601,0.012 0.1867584,0.018 0.3622464,0.018"
         style="fill:#000000;fill-opacity:1;fill-rule:nonzero;stroke:none;stroke-width:0.192" />
      <path
         id="path11"
         d="m 87.275064,105.0026 c 0,0.23489 -0.190666,0.42552 -0.4256,0.42552 -0.235466,0 -0.425999,-0.19063 -0.425999,-0.42552 0,-0.23541 0.190533,-0.42604 0.425999,-0.42604 0.234934,0 0.4256,0.19063 0.4256,0.42604"
         style="fill:#000000;fill-opacity:1;fill-rule:nonzero;stroke:none;stroke-width:0.133333" />
      <path
         id="path13"
         d="m 96.527254,106.50411 -1.042368,4.221 c -0.05549,0.19875 -0.1104,0.30375 -0.165888,0.31575 l -0.01786,0.0157 H 95.18709 c -0.16512,0 -0.248256,-0.0554 -0.248256,-0.16574 l 0.04954,-0.81225 v -0.0307 c 0,-1.3695 -0.430656,-2.31299 -1.290816,-2.832 l -0.01805,-0.0157 c -0.386112,-0.2325 -0.838464,-0.34876 -1.35744,-0.34876 -1.16928,0 -2.277696,0.43575 -3.326208,1.308 -0.265536,0.21076 -0.502464,0.4425 -0.710976,0.696 -1.048512,1.224 -1.6944,2.78026 -1.93728,4.668 -0.04512,0.34125 -0.06758,0.639 -0.06758,0.8925 0,1.545 0.585792,2.58826 1.756608,3.129 0.451392,0.20926 0.947904,0.3135 1.489344,0.3135 1.036608,0 2.05056,-0.40274 3.044352,-1.20824 0.771648,-0.64951 1.329792,-1.521 1.67328,-2.6145 0.02246,-0.11028 0.0937,-0.16576 0.214464,-0.16576 0.132672,0 0.19872,0.0554 0.19872,0.16576 0,0.19799 -0.12672,0.552 -0.38016,1.0605 -0.342912,0.6945 -0.822912,1.31174 -1.44,1.85174 -1.093632,0.95026 -2.285376,1.425 -3.576768,1.425 -1.412352,0 -2.543232,-0.48524 -3.393792,-1.45648 -0.727488,-0.82726 -1.091328,-1.85402 -1.091328,-3.08026 0,-1.64251 0.602304,-3.1815 1.805376,-4.61626 1.1136,-1.33574 2.432256,-2.21851 3.954624,-2.64824 0.563328,-0.15524 1.115328,-0.23251 1.655232,-0.23251 1.203072,0 2.11968,0.49125 2.748864,1.47375 l 1.15872,-1.275 c 0.131328,-0.13274 0.213696,-0.19875 0.248256,-0.19875 0.120768,0 0.18144,0.0547 0.18144,0.16501"
         style="fill:#000000;fill-opacity:1;fill-rule:nonzero;stroke:none;stroke-width:0.192" />
      <path
         id="path14"
         d="m 87.275064,29.412002 c 0,0.234933 -0.190666,0.425467 -0.4256,0.425467 -0.235466,0 -0.425999,-0.190534 -0.425999,-0.425467 0,-0.235466 0.190533,-0.426 0.425999,-0.426 0.234934,0 0.4256,0.190534 0.4256,0.426"
         style="fill:#000000;fill-opacity:1;fill-rule:nonzero;stroke:none;stroke-width:0.133333" />
      <path
         id="path16"
         d="m 89.623136,27.147888 v 0 l 2.216256,-8.889024 c 0.04493,-0.176256 0.06739,-0.281088 0.06739,-0.315648 0,-0.131328 -0.08851,-0.213696 -0.266304,-0.248256 h -0.01574 v 0 c -0.02246,-0.01056 -0.05011,-0.01574 -0.08237,-0.01574 -0.265536,-0.02246 -0.502656,-0.03379 -0.710976,-0.03379 -0.288,0 -0.44256,-0.04339 -0.46368,-0.131904 -0.01188,-0.02189 -0.01786,-0.04435 -0.01786,-0.06682 0,-0.186048 0.0937,-0.291072 0.281856,-0.312768 v 0 h 0.214656 5.563392 c 1.434048,0 2.504256,0.556416 3.20928,1.670208 0.453694,0.707328 0.680254,1.545792 0.680254,2.516352 0,1.600512 -0.55795,3.095232 -1.673278,4.484928 -1.05888,1.291584 -2.305536,2.113536 -3.739392,2.467583 -0.431232,0.110208 -0.861888,0.164928 -1.290816,0.164928 h -5.480256 c -0.276096,0 -0.42528,-0.04358 -0.447744,-0.131904 -0.01056,-0.0121 -0.01574,-0.03456 -0.01574,-0.06682 0,-0.188352 0.08851,-0.292608 0.264,-0.313536 h 0.199488 c 0.716928,0 1.147584,-0.07718 1.290048,-0.232512 0.06739,-0.07718 0.134208,-0.231744 0.199488,-0.46272 0,-0.0121 0.006,-0.03974 0.01805,-0.08256 z m 3.574464,-8.873856 -2.268096,9.08832 c -0.05549,0.198144 -0.08314,0.324864 -0.08314,0.380352 0,0.08774 0.05011,0.142464 0.149952,0.164928 v 0 0 h 0.06451 c 0.06739,0.0121 0.188928,0.01805 0.365184,0.01805 h 1.869696 c 1.368768,0 2.550144,-0.513792 3.543168,-1.541184 0.09965,-0.1104 0.194112,-0.220608 0.281856,-0.330816 0.882816,-1.146816 1.439232,-2.64672 1.670976,-4.499904 0.04435,-0.34368 0.06682,-0.625536 0.06682,-0.846144 0,-1.47744 -0.579072,-2.42688 -1.737792,-2.846976 -0.375744,-0.143232 -0.795648,-0.215232 -1.259136,-0.215232 h -1.76928 c -0.398208,0 -0.64128,0.05549 -0.729792,0.165696 v 0 0.01805 h -0.01498 v 0.01574 c -0.04493,0.06528 -0.09523,0.208512 -0.149952,0.42912"
         style="fill:#000000;fill-opacity:1;fill-rule:nonzero;stroke:none;stroke-width:0.192" />
      <path
         id="path17"
         d="m 11.684373,29.412002 c 0,0.234933 -0.190627,0.425467 -0.42552,0.425467 -0.235413,0 -0.42604,-0.190534 -0.42604,-0.425467 0,-0.235466 0.190627,-0.426 0.42604,-0.426 0.234893,0 0.42552,0.190534 0.42552,0.426"
         style="fill:#000000;fill-opacity:1;fill-rule:nonzero;stroke:none;stroke-width:0.133333" />
      <path
         id="path19"
         d="M 2.1807979,26.192405 7.940049,16.524821 c 0.1102656,-0.176256 0.2535168,-0.269184 0.4297536,-0.278976 0.1650048,0 0.2595072,0.05472 0.2812608,0.164928 0.0105,0.03302 0.021734,0.109632 0.033734,0.230208 l 1.008768,10.345536 c 0.032986,0.275328 0.098995,0.441024 0.1994882,0.496512 h 0.015 v 0 0 0 0.01805 c 0.1327494,0.05472 0.4200004,0.08256 0.8617544,0.08256 0.242995,0 0.369753,0.06067 0.380256,0.180672 0,0.221184 -0.09974,0.331584 -0.297754,0.331584 L 8.998319,28.046355 H 8.982556 l -2.0534976,0.04954 h -0.015744 c -0.1552512,0 -0.232512,-0.06086 -0.232512,-0.181632 0.089261,-0.209856 0.2220096,-0.320256 0.3982656,-0.330624 0.7949952,0 1.1924928,-0.182976 1.1924928,-0.548352 0,0.0121 -0.089242,-0.90816 -0.2669952,-2.762304 H 3.8510635 l -1.2570048,2.118144 c -0.1545024,0.275904 -0.2324928,0.480768 -0.2324928,0.61344 0,0.341184 0.259488,0.533952 0.7784832,0.579072 0.176256,0 0.264,0.06509 0.264,0.196416 0,0.210816 -0.1042368,0.31584 -0.3127488,0.31584 l -1.5907392,-0.04954 h -0.064512 l -1.3919999,0.04954 H 0.0110636 c -0.1432512,0 -0.2152512,-0.06086 -0.2152512,-0.181632 0,-0.199488 0.0832512,-0.304512 0.2482368,-0.31488 v -0.01574 H 0.1423148 C 0.8390636,27.538517 1.4083052,27.240725 1.84931,26.688725 1.9595564,26.545493 2.0705516,26.379797 2.1807979,26.192405 Z M 4.1668075,23.758613 H 7.9558122 L 7.4255658,18.296405 Z"
         style="fill:#000000;fill-opacity:1;fill-rule:nonzero;stroke:none;stroke-width:0.192" />
      <path
         id="path20"
         d="m 49.479732,67.207335 c 0,0.2348 -0.190667,0.425466 -0.4256,0.425466 -0.235333,0 -0.426,-0.190666 -0.426,-0.425466 0,-0.235467 0.190667,-0.426134 0.426,-0.426134 0.234933,0 0.4256,0.190667 0.4256,0.426134"
         style="fill:#000000;fill-opacity:1;fill-rule:nonzero;stroke:none;stroke-width:0.133333" />
      <path
         id="path22"
         d="m 46.99358,68.775004 v 0 c 0,1.709952 -0.60672,3.292416 -1.820352,4.74816 -1.09344,1.32384 -2.373696,2.196672 -3.840768,2.616768 -0.518976,0.143232 -1.032,0.215232 -1.53888,0.215232 -1.379328,0 -2.466048,-0.485184 -3.26112,-1.456512 -0.650112,-0.795072 -0.974976,-1.78272 -0.974976,-2.963904 0,-1.654656 0.58944,-3.222144 1.768512,-4.701888 1.09344,-1.334208 2.373696,-2.222208 3.840768,-2.663232 0.54144,-0.165696 1.076928,-0.248256 1.606464,-0.248256 1.401792,0 2.49984,0.50784 3.29472,1.523328 0.61728,0.794304 0.925632,1.771392 0.925632,2.930304 z m -7.101888,7.14816 v 0 c 1.038144,0 2.03712,-0.46272 2.997888,-1.388928 0.197952,-0.188352 0.38016,-0.387072 0.54528,-0.597888 1.081344,-1.344768 1.748928,-2.949696 2.002368,-4.814976 0.05472,-0.363648 0.08256,-0.695232 0.08256,-0.993024 0,-1.512768 -0.507072,-2.537856 -1.521024,-3.077952 -0.01188,0 -0.02323,-0.006 -0.03379,-0.01805 -0.398208,-0.19872 -0.827904,-0.2976 -1.290048,-0.2976 -1.037952,0 -2.042112,0.446976 -3.01344,1.34016 -0.398208,0.35328 -0.751488,0.767232 -1.059648,1.24128 -0.838656,1.268928 -1.329024,2.786304 -1.472256,4.551744 -0.02189,0.199488 -0.03302,0.376512 -0.03302,0.530304 0,1.41216 0.424512,2.427648 1.27488,3.046464 0.441024,0.31872 0.948096,0.478464 1.520256,0.478464"
         style="fill:#000000;fill-opacity:1;fill-rule:nonzero;stroke:none;stroke-width:0.192" />
      <path
         id="path23"
         d="m 56.426532,39.692135 c 3.1964,0.856267 6.608933,0.1776 9.233866,-1.8364 2.625067,-2.014533 4.164134,-5.134933 4.164134,-8.443733 H 59.181199 Z"
         style="fill:none;stroke:#000000;stroke-width:0.831496;stroke-linecap:round;stroke-linejoin:round;stroke-miterlimit:10;stroke-dasharray:none;stroke-opacity:1" />
      <path
         id="path24"
         d="m 71.405665,41.731413 v 0 1.023744 c 0.716928,-0.893376 1.2576,-1.98528 1.62144,-3.276864 0.110208,-0.220416 0.192768,-0.336 0.248256,-0.346368 0.132672,0 0.19872,0.05549 0.19872,0.165696 0,0.187584 -0.12672,0.60672 -0.38016,1.257024 -0.375744,0.94944 -0.883584,1.827648 -1.523328,2.632511 -0.110208,0.220416 -0.164928,0.413952 -0.164928,0.579648 0,1.125888 0.17088,1.688256 0.513024,1.688256 0.34272,0 0.617856,-0.192768 0.826368,-0.57888 0.03302,-0.06758 0.06605,-0.144768 0.100608,-0.232512 0.04339,-0.110976 0.114624,-0.165888 0.215232,-0.165888 0.132672,0 0.19872,0.05491 0.19872,0.165888 0,0.210048 -0.138048,0.458112 -0.413952,0.744768 -0.287232,0.285696 -0.613632,0.428928 -0.97728,0.428928 -0.694464,0 -1.175232,-0.38016 -1.440768,-1.140672 -0.02246,-0.07738 -0.04358,-0.159744 -0.06451,-0.248256 -1.15872,0.926208 -2.323584,1.388928 -3.494208,1.388928 -1.03584,0 -1.79712,-0.413952 -2.28384,-1.24128 -0.265536,-0.451392 -0.398208,-0.969792 -0.398208,-1.554624 0,-1.125887 0.431232,-2.169023 1.293696,-3.129023 0.848256,-0.948096 1.807488,-1.466304 2.878464,-1.554816 0.09984,-0.01188 0.193536,-0.01805 0.28128,-0.01805 0.927744,0 1.645632,0.365376 2.151744,1.094208 0,0.01056 0.0054,0.01594 0.01574,0.01594 0.3984,0.584064 0.597888,1.351488 0.597888,2.301696 z m -1.110144,2.265023 v 0 c -0.02246,-0.186048 -0.03283,-0.803328 -0.03283,-1.851839 0,-1.358208 -0.149376,-2.285952 -0.447936,-2.782464 -0.131136,-0.220416 -0.290112,-0.386304 -0.478464,-0.496512 l -0.01786,-0.01574 v 0 h -0.01574 c -0.198144,-0.110208 -0.423936,-0.164928 -0.677376,-0.164928 -0.784512,0 -1.491648,0.440832 -2.121024,1.323648 l -0.131904,0.199488 c -0.396864,0.639744 -0.688512,1.533696 -0.876864,2.682047 -0.05472,0.30816 -0.08237,0.561792 -0.08237,0.759744 0,0.927744 0.32544,1.502208 0.97728,1.722816 0.1536,0.05549 0.324672,0.08237 0.512256,0.08237 1.14816,0 2.279232,-0.485952 3.392832,-1.458624"
         style="fill:#000000;fill-opacity:1;fill-rule:nonzero;stroke:none;stroke-width:0.192" />
    </g>
  </g>
</svg>
