<?xml version="1.0" encoding="UTF-8" standalone="no"?>
<!-- Created with Inkscape (http://www.inkscape.org/) -->

<svg
   version="1.1"
   id="svg1"
   width="224.89783"
   height="143.2941"
   viewBox="0 0 224.89783 143.29409"
   sodipodi:docname="P08-1.svg"
   inkscape:version="1.3.1 (9b9bdc1480, 2023-11-25, custom)"
   xmlns:inkscape="http://www.inkscape.org/namespaces/inkscape"
   xmlns:sodipodi="http://sodipodi.sourceforge.net/DTD/sodipodi-0.dtd"
   xmlns="http://www.w3.org/2000/svg"
   xmlns:svg="http://www.w3.org/2000/svg">
  <defs
     id="defs1" />
  <sodipodi:namedview
     id="namedview1"
     pagecolor="#ffffff"
     bordercolor="#000000"
     borderopacity="0.25"
     inkscape:showpageshadow="2"
     inkscape:pageopacity="0.0"
     inkscape:pagecheckerboard="0"
     inkscape:deskcolor="#d1d1d1"
     showgrid="false"
     inkscape:zoom="2.6778047"
     inkscape:cx="112.77895"
     inkscape:cy="71.700524"
     inkscape:window-width="1464"
     inkscape:window-height="800"
     inkscape:window-x="72"
     inkscape:window-y="27"
     inkscape:window-maximized="1"
     inkscape:current-layer="g1" />
  <g
     inkscape:groupmode="layer"
     inkscape:label="Image"
     id="g1"
     transform="translate(-4.9766096,-3.7154496)">
    <path
       id="path350"
       style="fill:#b68e67"
       d="m 139.49805,3.7246094 c -5.4978,0.1608651 -11.06651,2.3737163 -16.64844,2.1152344 -6.68272,1.2360637 -14.01301,0.254782 -20.15625,2.2050781 C 96.222887,8.1659698 90.071279,9.7713339 83.492188,10.041016 75.714069,10.50995 67.994681,11.52105 60.275391,12.4375 55.176892,13.666527 49.729669,12.980154 45.224609,14.767578 39.058546,15.296185 32.627593,15.589356 26.660156,16.382812 20.903511,18.571101 10.821066,15.134996 6.6738281,19.910156 5.5541603,31.107377 6.4990755,42.511301 6.2558594,53.789062 5.7815145,61.137553 7.3314566,68.997396 5.2109375,75.986328 4.8030306,93.952618 5.0678528,111.92928 4.9941406,129.90039 c -0.3002746,5.32195 8.2067454,2.71181 12.0156254,3.33789 5.967955,1.15154 11.723168,1.57666 17.40625,2.50195 6.881572,-0.0985 13.400933,0.85737 20.089843,2.21875 6.292451,0.0897 12.307011,1.71394 18.708985,2.1875 7.358843,-0.49677 14.034835,1.0748 21.248047,1.1543 6.513399,1.94831 13.610469,1.55869 20.347659,3.16992 8.09019,-0.21764 14.57127,1.21414 22.34375,2.07813 6.99055,0.71075 13.77609,0.95392 19.75195,-1.95899 2.57087,-3.55365 8.53132,-2.86226 8.57422,-6.66601 0.25274,-14.72169 -0.3961,-29.53051 0.63476,-44.185549 -2.92389,-4.955971 4.72992,-1.99231 7.03125,-2.75 1.59808,4.135159 6.83052,4.362677 9.76368,7.16211 1.43381,2.092319 3.44039,3.756829 5.88476,4.552729 2.4688,0.80361 4.75787,2.01203 7.07031,3.1504 3.88972,1.29936 8.002,-0.38716 11.94336,0.50781 4.54021,-1.45712 8.62588,-4.30594 13.44141,-4.875 5.9556,-3.16115 7.92769,-10.324014 8.57422,-16.560549 0.48546,-8.275304 -2.5733,-16.646783 -8.11524,-22.787109 -5.22178,-2.172549 -9.88506,-5.77223 -15.45898,-7.021484 -2.29936,-0.167666 -4.58983,0.194255 -6.88281,0.296874 -6.11207,1.28244 -11.4551,5.822541 -17.94336,5.15625 -2.33069,-1.271685 -3.99248,1.349409 -3.49414,2.896485 -2.83095,-0.305779 -5.72141,-0.619417 -8.98438,-0.01367 -4.20126,1.206823 -3.28437,-2.650531 -3.35937,-5.527344 -1.04108,-7.686924 -1.5142,-15.471783 -1.23242,-23.398437 -0.53427,-7.979749 1.01861,-16.935812 -0.89063,-24.365235 C 157.55463,7.4174471 151.5881,5.6674494 144.9707,4.4160156 143.15574,3.8465847 141.33065,3.6709877 139.49805,3.7246094 Z m -2.45899,2.8046875 c 4.56382,-0.1807102 9.20792,1.0084408 13.49805,2.5976562 0.79371,26.1321429 0.3407,52.2893159 0.81641,78.4296879 1.04303,10.266058 0.84198,20.616939 0.86718,30.953129 0.16179,5.69496 1.38387,11.19409 0.9336,16.97656 -0.42903,3.22442 1.66095,7.99584 -3.20118,8.10351 l -1.33007,0.34375 c -7.4884,0.12228 -14.93054,-1.24592 -22.39844,-1.75781 -18.10221,-1.83965 -36.229211,-3.70908 -54.273438,-5.8789 -14.753248,-0.9184 -29.318663,-3.06736 -43.986328,-4.64649 -6.768408,-1.45296 -15.228396,0.13866 -21.0703128,-2.82227 C 6.980665,120.19697 7.069523,111.47345 7.109375,102.80469 8.6080045,90.179705 7.986147,77.316721 8.2578125,64.566406 7.9537089,51.769399 9.3473905,39.070415 9.1542969,26.289062 c -0.5984696,-3.789469 0.032684,-6.29787 4.4316411,-5.144531 16.600877,-1.830614 33.107618,-4.436512 49.808593,-5.492187 8.172909,-1.465976 16.628965,-1.631413 24.742188,-3.289063 6.747691,-2.045559 14.129241,-0.825263 21.130861,-2.074219 7.71737,-1.1438334 15.71642,-1.4333917 23.25,-3.085937 1.48717,-0.4001341 3.00021,-0.6135914 4.52148,-0.6738281 z" />
    <path
       style="fill:#c9b29b"
       d="m 71.53773,32.496436 c -1.95444,-3.081838 -4.07698,-9.530203 -3.72404,-11.313827 0.41605,-2.102609 0.54164,-2.34154 1.48805,-2.830946 1.47106,-0.760714 3.22117,-0.408781 7.90964,1.59057 2.21749,0.945623 4.24779,1.786673 4.51179,1.869 0.31135,0.09709 0.002,0.394944 -0.88195,0.847699 -1.9208,0.984431 -5.55674,4.513039 -6.57153,6.377557 -0.4707,0.864832 -1.05463,2.34926 -1.29762,3.298728 l -0.44179,1.726306 z"
       id="path91" />
    <path
       style="fill:#c9b29b"
       d="m 72.02638,90.173162 -2.04055,0.84411 2.0033,-7.077832 c 1.45356,-5.135575 2.89306,-8.502005 6.33044,-15.228789 0.34148,-0.668263 0.34736,-0.668499 1.38604,-0.05566 1.12533,0.66396 2.28277,2.823983 3.19539,5.963288 1.11774,3.844898 1.64811,10.968698 -0.92054,13.46334 -2.04965,1.990597 -8.48402,5.735071 -9.16617,3.438353 z"
       id="path70"
       sodipodi:nodetypes="ccssssssc" />
    <path
       style="fill:#c9b29b"
       d="m 102.56222,116.19692 c -1.24563,-0.36123 -3.81004,-2.96845 -4.88415,-5.08811 -1.61868,-3.19431 -3.0144,-6.70668 -3.02679,-11.424012 -0.01,-3.653821 0.68652,-5.977813 1.32008,-8.007709 1.59492,-5.110003 7.07035,-7.643636 10.98277,-9.688945 3.34201,-1.747112 3.09752,-1.838937 4.56839,1.715758 1.68088,4.062235 2.26158,6.123956 2.6268,9.326148 1.00098,8.77656 -2.83616,21.39142 -7.26852,23.24338 -1.22372,0.51131 -2.93663,0.32426 -4.31858,-0.0765 z"
       id="path53"
       sodipodi:nodetypes="sscssssss" />
    <path
       style="fill:#a4693a"
       d="m 69.50961,133.6792 c -8.73722,-1.78504 -15.35046,-9.4577 -16.55623,-18.16657 -0.72472,-6.37968 2.56891,-12.33734 4.61704,-18.205515 3.75891,-7.708844 7.60527,-16.468743 4.65074,-25.131377 C 59.59311,61.931248 47.11029,58.482406 37.89387,61.044467 29.7268,62.896181 22.29805,71.343943 25.30818,80.002047 c 1.25126,5.887834 7.35091,10.144653 13.30371,8.449434 5.80705,0.216516 12.02376,-5.189605 7.79963,-10.973387 -3.11507,-5.834551 -9.61537,-0.739853 -13.64363,-2.341471 -3.77848,-7.814632 8.45792,-9.225456 13.20212,-6.219457 6.32225,1.923357 9.02643,8.903334 8.09085,14.994129 -0.97998,5.891273 -7.42579,8.29774 -12.35672,10.107658 -7.57301,1.649025 -17.04365,-0.123456 -20.95672,-7.548025 -4.18271,-6.883609 -2.43647,-15.874631 1.44363,-22.488906 6.11483,-7.924615 16.83616,-11.707058 26.64302,-10.08809 8.52157,0.896578 16.70635,6.344104 19.37025,14.734503 3.29142,9.827648 0.53961,20.488798 -3.87142,29.512474 -2.25466,6.530381 -6.80066,13.559201 -3.75382,20.559111 3.97597,8.58095 15.8295,11.47894 23.81054,7.01444 3.8213,-2.65676 4.06791,-6.92905 -1.48622,-6.51968 -7.74736,-1.95396 -14.19784,-9.14208 -13.72099,-17.37985 0.6759,-4.958022 -1.48444,-15.420673 6.28865,-13.196674 6.94023,-0.848891 8.49326,-8.59518 7.1712,-14.285971 -0.41225,-2.249057 -2.22501,-4.161692 -3.90148,-6.323858 0.73405,-2.269918 0.51255,-1.682448 1.97978,-4.720918 1.61603,-3.346621 7.94282,-10.553011 2.71684,-12.211151 -5.52276,-0.619142 -9.15347,-6.986189 -15.1201,-3.597724 -4.12878,0.199908 -8.30419,4.939741 -11.12769,4.997366 2.21121,-6.507493 10.09699,-6.805362 15.64084,-8.728081 -6.60538,-0.363131 -13.48581,0.255863 -19.53323,3.194337 -2.967,-0.558836 4.62703,-5.03997 6.70794,-5.141872 3.1385,-2.030561 10.12475,1.057295 11.26148,-0.752091 -4.82449,-2.946176 -12.93182,0.42973 -16.29646,-1.174197 4.44783,-3.579617 11.62252,-1.097933 16.04594,-1.539038 -0.81816,-6.29966 2.8449,-12.171683 8.18561,-15.280839 7.06277,-5.090766 16.43689,-3.071545 24.02274,-0.329286 4.06782,-1.734453 8.60573,-4.083538 13.05163,-2.639683 2.82564,4.932711 -3.13983,9.668445 -3.46305,14.672185 -1.68703,4.534484 1.92978,3.400308 5.32937,2.948627 2.47022,-1.219636 11.55291,1.263968 9.90246,2.632281 -5.63216,0.08797 -11.35809,-0.47169 -16.90701,0.637423 3.0276,1.351842 10.68941,-0.696334 15.01487,2.024103 2.45411,0.170583 8.15998,5.931925 2.62517,3.159433 -5.57045,-2.273909 -11.94743,-3.13149 -17.88666,-2.297072 0.87125,2.455301 8.7381,0.401215 11.44804,3.778308 3.31398,0.928816 5.15597,9.128311 0.71649,3.846404 -4.27672,-3.265405 -10.28246,-5.4934 -15.52191,-4.474393 -2.9095,3.459719 -12.94441,2.921588 -8.04081,9.047101 3.53151,8.191195 7.08692,16.373775 10.47716,24.624523 -5.69563,2.45394 -10.53689,7.151374 -11.8535,13.3964 -1.53608,7.164107 -0.66335,15.759697 4.70537,21.154607 1.74357,1.56037 6.23952,0.35238 1.88132,2.37246 -3.58694,2.76548 -10.73791,0.35781 -10.90287,6.3721 -2.58935,6.05971 -8.79141,10.51048 -15.50592,10.07548 -2.92538,0.0935 -5.89378,0.1476 -8.78501,-0.37602 z"
       id="path3"
       sodipodi:nodetypes="ccccccccccccccccccccccccscccccccccccccccccccccccccccccc" />
    <path
       style="fill:#946b49;fill-opacity:1"
       d="m 157.77788,142.16792 c 8.74382,-1.86972 4.21806,-12.56505 5.40209,-19.25051 0.0242,-36.914517 -0.0921,-73.829017 -0.11201,-110.74354 -2.38496,-2.098253 -10.59936,-5.891317 -8.64119,0.562022 -0.0548,18.54819 -0.29116,37.108016 0.27559,55.646362 1.0719,6.718403 0.40788,15.516697 0.6552,23.027403 0.21329,14.754963 -0.56374,29.590053 0.99013,44.256263 0.64547,1.09967 -1.35551,8.00398 1.43019,6.502 z"
       id="path434" />
  </g>
</svg>
