<?xml version="1.0" encoding="UTF-8" standalone="no"?>
<!-- Created with Inkscape (http://www.inkscape.org/) -->

<svg
   version="1.1"
   id="svg1"
   width="206.76059"
   height="155.86272"
   viewBox="0 0 206.76059 155.86272"
   sodipodi:docname="P10-1.svg"
   inkscape:version="1.3.1 (9b9bdc1480, 2023-11-25, custom)"
   xmlns:inkscape="http://www.inkscape.org/namespaces/inkscape"
   xmlns:sodipodi="http://sodipodi.sourceforge.net/DTD/sodipodi-0.dtd"
   xmlns="http://www.w3.org/2000/svg"
   xmlns:svg="http://www.w3.org/2000/svg">
  <defs
     id="defs1" />
  <sodipodi:namedview
     id="namedview1"
     pagecolor="#ffffff"
     bordercolor="#000000"
     borderopacity="0.25"
     inkscape:showpageshadow="2"
     inkscape:pageopacity="0.0"
     inkscape:pagecheckerboard="0"
     inkscape:deskcolor="#d1d1d1"
     showgrid="false"
     inkscape:zoom="2.9424436"
     inkscape:cx="104.6749"
     inkscape:cy="78.506178"
     inkscape:window-width="1464"
     inkscape:window-height="800"
     inkscape:window-x="72"
     inkscape:window-y="27"
     inkscape:window-maximized="1"
     inkscape:current-layer="g1">
    <inkscape:page
       x="0"
       y="0"
       inkscape:label="1"
       id="page1"
       width="206.76059"
       height="155.86272"
       margin="0"
       bleed="0" />
  </sodipodi:namedview>
  <g
     id="g1"
     inkscape:groupmode="layer"
     inkscape:label="1"
     transform="translate(2.8485834,1.0547205)">
    <g
       id="g37">
      <path
         id="path1"
         d="m 123.676,19.004 h 28.758 v 28.762 h -28.758 z"
         style="fill:#c4c4c4;fill-opacity:1;fill-rule:nonzero;stroke:#000000;stroke-width:1;stroke-linecap:butt;stroke-linejoin:round;stroke-miterlimit:4;stroke-dasharray:none;stroke-opacity:1"
         transform="scale(1.3333333)" />
      <path
         id="path2"
         d="m 164.90133,70.495827 h 38.344 v 38.344003 h -38.344 z"
         style="fill:#c4c4c4;fill-opacity:1;fill-rule:nonzero;stroke:#000000;stroke-width:1.33333;stroke-linecap:butt;stroke-linejoin:round;stroke-miterlimit:4;stroke-dasharray:none;stroke-opacity:1" />
      <path
         id="path3"
         d="m 21.27,86.844 h 28.758 v 28.762 H 21.27 Z"
         style="fill:#c4c4c4;fill-opacity:1;fill-rule:nonzero;stroke:#000000;stroke-width:1;stroke-linecap:butt;stroke-linejoin:round;stroke-miterlimit:4;stroke-dasharray:none;stroke-opacity:1"
         transform="scale(1.3333333)" />
      <path
         id="path4"
         d="m 55.406,86.844 h 28.758 v 28.762 H 55.406 Z"
         style="fill:#c4c4c4;fill-opacity:1;fill-rule:nonzero;stroke:#000000;stroke-width:1;stroke-linecap:butt;stroke-linejoin:round;stroke-miterlimit:4;stroke-dasharray:none;stroke-opacity:1"
         transform="scale(1.3333333)" />
      <path
         id="path5"
         d="m 89.539,86.844 h 28.762 v 28.762 H 89.539 Z"
         style="fill:#c4c4c4;fill-opacity:1;fill-rule:nonzero;stroke:#000000;stroke-width:1;stroke-linecap:butt;stroke-linejoin:round;stroke-miterlimit:4;stroke-dasharray:none;stroke-opacity:1"
         transform="scale(1.3333333)" />
      <path
         id="path6"
         d="m 64.805,69.922 -1.172,6.855 6.156,-3.238 6.156,3.234 -1.179,-6.851 4.98,-4.859 -6.883,-0.997 -3.082,-6.234 -3.074,6.238 -6.883,1 z"
         style="fill:#ababab;fill-opacity:1;fill-rule:nonzero;stroke:none"
         transform="scale(1.3333333)" />
      <path
         id="path7"
         d="m 59.824,65.07 4.981,4.852 -1.172,6.855 6.156,-3.238 6.156,3.234 -1.179,-6.851 4.98,-4.859 -6.883,-0.997 -3.082,-6.234 -3.074,6.238 z"
         style="fill:none;stroke:#000000;stroke-width:1.5;stroke-linecap:round;stroke-linejoin:round;stroke-miterlimit:10;stroke-dasharray:none;stroke-opacity:1"
         transform="scale(1.3333333)" />
      <path
         id="path8"
         d="m 78.598,29.441 c 0,-2.589 -2.102,-4.687 -4.688,-4.687 -1.785,0 -3.332,0.992 -4.125,2.457 -0.793,-1.465 -2.344,-2.457 -4.125,-2.457 -2.59,0 -4.687,2.098 -4.687,4.687 0,1.114 0.39,2.133 1.039,2.938 h -0.004 l 7.777,9.637 7.774,-9.637 c 0.648,-0.805 1.039,-1.824 1.039,-2.938 z"
         style="fill:#717171;fill-opacity:1;fill-rule:nonzero;stroke:#000000;stroke-width:1.5;stroke-linecap:butt;stroke-linejoin:round;stroke-miterlimit:10;stroke-dasharray:none;stroke-opacity:1"
         transform="scale(1.3333333)" />
      <path
         id="path9"
         d="m 44.273,33.387 c 0,4.761 -3.859,8.625 -8.625,8.625 -4.761,0 -8.625,-3.864 -8.625,-8.625 0,-4.766 3.864,-8.625 8.625,-8.625 4.766,0 8.625,3.859 8.625,8.625 z"
         style="fill:#e5e5e5;fill-opacity:1;fill-rule:nonzero;stroke:#000000;stroke-width:1.5;stroke-linecap:round;stroke-linejoin:round;stroke-miterlimit:4;stroke-dasharray:none;stroke-opacity:1"
         transform="scale(1.3333333)" />
      <path
         id="path10"
         d="m 39.328,36.734 c -1.086,0.614 -2.34,0.961 -3.68,0.961 -1.335,0 -2.593,-0.347 -3.679,-0.961"
         style="fill:none;stroke:#000000;stroke-width:1.5;stroke-linecap:round;stroke-linejoin:round;stroke-miterlimit:4;stroke-dasharray:none;stroke-opacity:1"
         transform="scale(1.3333333)" />
      <path
         id="path11"
         d="m 33.398,31.512 c 0,0.621 -0.503,1.125 -1.125,1.125 -0.621,0 -1.125,-0.504 -1.125,-1.125 0,-0.621 0.504,-1.125 1.125,-1.125 0.622,0 1.125,0.504 1.125,1.125"
         style="fill:#000000;fill-opacity:1;fill-rule:nonzero;stroke:none"
         transform="scale(1.3333333)" />
      <path
         id="path12"
         d="m 40.148,31.512 c 0,0.621 -0.503,1.125 -1.125,1.125 -0.621,0 -1.125,-0.504 -1.125,-1.125 0,-0.621 0.504,-1.125 1.125,-1.125 0.622,0 1.125,0.504 1.125,1.125"
         style="fill:#000000;fill-opacity:1;fill-rule:nonzero;stroke:none"
         transform="scale(1.3333333)" />
      <path
         id="path13"
         d="m 44.273,67.305 c 0,4.761 -3.859,8.625 -8.625,8.625 -4.761,0 -8.625,-3.864 -8.625,-8.625 0,-4.762 3.864,-8.625 8.625,-8.625 4.766,0 8.625,3.863 8.625,8.625 z"
         style="fill:#e5e5e5;fill-opacity:1;fill-rule:nonzero;stroke:#000000;stroke-width:1.5;stroke-linecap:round;stroke-linejoin:round;stroke-miterlimit:4;stroke-dasharray:none;stroke-opacity:1"
         transform="scale(1.3333333)" />
      <path
         id="path14"
         d="m 39.328,70.652 c -1.086,0.614 -2.34,0.965 -3.68,0.965 -1.335,0 -2.593,-0.351 -3.679,-0.965"
         style="fill:none;stroke:#000000;stroke-width:1.5;stroke-linecap:round;stroke-linejoin:round;stroke-miterlimit:4;stroke-dasharray:none;stroke-opacity:1"
         transform="scale(1.3333333)" />
      <path
         id="path15"
         d="m 33.398,65.43 c 0,0.621 -0.503,1.125 -1.125,1.125 -0.621,0 -1.125,-0.504 -1.125,-1.125 0,-0.621 0.504,-1.125 1.125,-1.125 0.622,0 1.125,0.504 1.125,1.125"
         style="fill:#000000;fill-opacity:1;fill-rule:nonzero;stroke:none"
         transform="scale(1.3333333)" />
      <path
         id="path16"
         d="m 40.148,65.43 c 0,0.621 -0.503,1.125 -1.125,1.125 -0.621,0 -1.125,-0.504 -1.125,-1.125 0,-0.621 0.504,-1.125 1.125,-1.125 0.622,0 1.125,0.504 1.125,1.125"
         style="fill:#000000;fill-opacity:1;fill-rule:nonzero;stroke:none"
         transform="scale(1.3333333)" />
      <path
         id="path17"
         d="m 112.73,29.441 c 0,-2.589 -2.097,-4.687 -4.687,-4.687 -1.781,0 -3.332,0.992 -4.125,2.457 -0.793,-1.465 -2.34,-2.457 -4.125,-2.457 -2.586,0 -4.688,2.098 -4.688,4.687 0,1.114 0.391,2.133 1.04,2.938 l 7.773,9.637 7.777,-9.637 h -0.004 c 0.649,-0.805 1.039,-1.824 1.039,-2.938 z"
         style="fill:#717171;fill-opacity:1;fill-rule:nonzero;stroke:#000000;stroke-width:1.5;stroke-linecap:butt;stroke-linejoin:round;stroke-miterlimit:10;stroke-dasharray:none;stroke-opacity:1"
         transform="scale(1.3333333)" />
      <path
         id="path18"
         d="m 112.73,63.359 c 0,-2.589 -2.097,-4.687 -4.687,-4.687 -1.781,0 -3.332,0.996 -4.125,2.461 -0.793,-1.465 -2.34,-2.461 -4.125,-2.461 -2.586,0 -4.688,2.098 -4.688,4.687 0,1.114 0.391,2.137 1.04,2.942 l 7.773,9.637 7.777,-9.637 h -0.004 c 0.649,-0.805 1.039,-1.828 1.039,-2.942 z"
         style="fill:#717171;fill-opacity:1;fill-rule:nonzero;stroke:#000000;stroke-width:1.5;stroke-linecap:butt;stroke-linejoin:round;stroke-miterlimit:10;stroke-dasharray:none;stroke-opacity:1"
         transform="scale(1.3333333)" />
      <path
         id="path20"
         d="m 20.953,11.113 h 89.844"
         style="fill:none;stroke:#000000;stroke-width:2;stroke-linecap:butt;stroke-linejoin:miter;stroke-miterlimit:4;stroke-dasharray:none;stroke-opacity:1"
         transform="scale(1.3333333)" />
      <path
         id="path21"
         d="m 116.566,11.113 -8.648,5 v -10 z"
         style="fill:#000000;fill-opacity:1;fill-rule:evenodd;stroke:#000000;stroke-width:1.33333;stroke-linecap:butt;stroke-linejoin:miter;stroke-miterlimit:4;stroke-dasharray:none;stroke-opacity:1"
         transform="scale(1.3333333)" />
      <path
         id="path23"
         d="M 11.172,18.555 V 74.406"
         style="fill:none;stroke:#000000;stroke-width:2;stroke-linecap:butt;stroke-linejoin:miter;stroke-miterlimit:4;stroke-dasharray:none;stroke-opacity:1"
         transform="scale(1.3333333)" />
      <path
         id="path24"
         d="m 80.176,-11.172 -8.649,5 v -10 z"
         style="fill:#000000;fill-opacity:1;fill-rule:evenodd;stroke:#000000;stroke-width:1.33333;stroke-linecap:butt;stroke-linejoin:miter;stroke-miterlimit:4;stroke-dasharray:none;stroke-opacity:1"
         transform="matrix(0,1.3333333,-1.3333333,0,0,0)" />
      <path
         id="path26"
         d="M 55.406,19.004 H 84.164 V 47.766 H 55.406 Z"
         style="fill:none;stroke:#000000;stroke-width:1;stroke-linecap:butt;stroke-linejoin:round;stroke-miterlimit:4;stroke-dasharray:none;stroke-opacity:1"
         transform="scale(1.3333333)" />
      <path
         id="path27"
         d="m 89.539,19.004 h 28.762 V 47.766 H 89.539 Z"
         style="fill:none;stroke:#000000;stroke-width:1;stroke-linecap:butt;stroke-linejoin:round;stroke-miterlimit:4;stroke-dasharray:none;stroke-opacity:1"
         transform="scale(1.3333333)" />
      <path
         id="path28"
         d="M 21.27,19.004 H 50.028 V 47.766 H 21.27 Z"
         style="fill:none;stroke:#000000;stroke-width:1;stroke-linecap:butt;stroke-linejoin:round;stroke-miterlimit:4;stroke-dasharray:none;stroke-opacity:1"
         transform="scale(1.3333333)" />
      <path
         id="path29"
         d="M 21.27,52.926 H 50.028 V 81.684 H 21.27 Z"
         style="fill:none;stroke:#000000;stroke-width:1;stroke-linecap:butt;stroke-linejoin:round;stroke-miterlimit:4;stroke-dasharray:none;stroke-opacity:1"
         transform="scale(1.3333333)" />
      <path
         id="path30"
         d="M 55.406,52.926 H 84.164 V 81.684 H 55.406 Z"
         style="fill:none;stroke:#000000;stroke-width:1;stroke-linecap:butt;stroke-linejoin:round;stroke-miterlimit:4;stroke-dasharray:none;stroke-opacity:1"
         transform="scale(1.3333333)" />
      <path
         id="path31"
         d="m 89.539,52.926 h 28.762 V 81.684 H 89.539 Z"
         style="fill:none;stroke:#000000;stroke-width:1;stroke-linecap:butt;stroke-linejoin:round;stroke-miterlimit:4;stroke-dasharray:none;stroke-opacity:1"
         transform="scale(1.3333333)" />
      <text
         xml:space="preserve"
         style="font-size:26.6667px;font-family:'Liberation Serif';-inkscape-font-specification:'Liberation Serif';fill:#000000;stroke-width:0.8"
         x="33.534603"
         y="143.70366"
         id="text31"><tspan
           sodipodi:role="line"
           id="tspan31"
           x="33.534603"
           y="143.70366">10</tspan></text>
      <text
         xml:space="preserve"
         style="font-size:26.6667px;font-family:'Liberation Serif';-inkscape-font-specification:'Liberation Serif';fill:#000000;stroke-width:0.8"
         x="86.126091"
         y="143.56694"
         id="text32"><tspan
           sodipodi:role="line"
           id="tspan32"
           x="86.126091"
           y="143.56694">5</tspan></text>
      <text
         xml:space="preserve"
         style="font-size:26.6667px;font-family:'Liberation Serif';-inkscape-font-specification:'Liberation Serif';fill:#000000;stroke-width:0.8"
         x="131.84125"
         y="143.74272"
         id="text33"><tspan
           sodipodi:role="line"
           id="tspan33"
           x="131.84125"
           y="143.74272">4</tspan></text>
      <text
         xml:space="preserve"
         style="font-size:26.6667px;font-family:'Liberation Serif';-inkscape-font-specification:'Liberation Serif';fill:#000000;stroke-width:0.8"
         x="177.52385"
         y="53.211262"
         id="text34"><tspan
           sodipodi:role="line"
           id="tspan34"
           x="177.52385"
           y="53.211262">9</tspan></text>
      <text
         xml:space="preserve"
         style="font-size:26.6667px;font-family:'Liberation Serif';-inkscape-font-specification:'Liberation Serif';fill:#000000;stroke-width:0.8"
         x="170.07593"
         y="98.404816"
         id="text35"><tspan
           sodipodi:role="line"
           id="tspan35"
           x="170.07593"
           y="98.404816">10</tspan></text>
      <text
         xml:space="preserve"
         style="font-size:26.6667px;font-family:'Liberation Serif';-inkscape-font-specification:'Liberation Serif';fill:#000000;stroke-width:0.8"
         x="80.300766"
         y="14.010403"
         id="text36"><tspan
           sodipodi:role="line"
           id="tspan36"
           x="80.300766"
           y="14.010403">+</tspan></text>
      <text
         xml:space="preserve"
         style="font-size:26.6667px;font-family:'Liberation Serif';-inkscape-font-specification:'Liberation Serif';fill:#000000;stroke-width:0.8"
         x="-4.1767101"
         y="70.828178"
         id="text37"><tspan
           sodipodi:role="line"
           id="tspan37"
           x="-4.1767101"
           y="70.828178">+</tspan></text>
    </g>
  </g>
</svg>
