<?xml version="1.0" encoding="UTF-8" standalone="no"?>
<!-- Created with Inkscape (http://www.inkscape.org/) -->

<svg
   version="1.1"
   id="svg1"
   width="212.77298"
   height="118.66666"
   viewBox="0 0 212.77298 118.66665"
   sodipodi:docname="P17-1.svg"
   inkscape:version="1.3.1 (9b9bdc1480, 2023-11-25, custom)"
   xmlns:inkscape="http://www.inkscape.org/namespaces/inkscape"
   xmlns:sodipodi="http://sodipodi.sourceforge.net/DTD/sodipodi-0.dtd"
   xmlns="http://www.w3.org/2000/svg"
   xmlns:svg="http://www.w3.org/2000/svg">
  <defs
     id="defs1" />
  <sodipodi:namedview
     id="namedview1"
     pagecolor="#ffffff"
     bordercolor="#000000"
     borderopacity="0.25"
     inkscape:showpageshadow="2"
     inkscape:pageopacity="0.0"
     inkscape:pagecheckerboard="0"
     inkscape:deskcolor="#d1d1d1"
     showgrid="false"
     inkscape:zoom="3.7880748"
     inkscape:cx="106.38649"
     inkscape:cy="59.396926"
     inkscape:window-width="1464"
     inkscape:window-height="800"
     inkscape:window-x="72"
     inkscape:window-y="27"
     inkscape:window-maximized="1"
     inkscape:current-layer="g1">
    <inkscape:page
       x="0"
       y="0"
       id="page1"
       width="212.77298"
       height="118.66665"
       margin="0"
       bleed="0" />
  </sodipodi:namedview>
  <g
     id="g1"
     inkscape:groupmode="layer"
     inkscape:label=""
     transform="translate(10.105949)">
    <path
       id="path1"
       d="m 130.039,21.613 h 19.41 V 2.02 h -19.41 z m 20.41,2.024 h -21.41 c -0.555,0 -1.004,-0.453 -1.004,-1.012 V 1.012 C 128.035,0.453 128.484,0 129.039,0 h 21.41 c 0.551,0 1,0.453 1,1.012 v 21.613 c 0,0.559 -0.449,1.012 -1,1.012"
       style="fill:#040606;fill-opacity:1;fill-rule:nonzero;stroke:none"
       transform="scale(1.3333333)" />
    <path
       id="path2"
       d="m 101.496,2.035 c -5.34,0 -9.687,4.391 -9.687,9.781 0,5.395 4.347,9.786 9.687,9.786 5.344,0 9.692,-4.391 9.692,-9.786 0,-5.39 -4.348,-9.781 -9.692,-9.781 z m 0,21.586 c -6.445,0 -11.687,-5.297 -11.687,-11.805 0,-6.507 5.242,-11.8 11.687,-11.8 6.449,0 11.692,5.293 11.692,11.8 0,6.508 -5.243,11.805 -11.692,11.805"
       style="fill:#040606;fill-opacity:1;fill-rule:nonzero;stroke:none"
       transform="scale(1.3333333)" />
    <path
       id="path3"
       d="M 52.535,21.613 H 73.789 L 63.16,3.031 Z m 22.988,2.024 H 50.801 c -0.36,0 -0.688,-0.192 -0.867,-0.508 -0.18,-0.313 -0.18,-0.695 0,-1.008 L 62.293,0.504 c 0.359,-0.625 1.379,-0.625 1.734,0 l 12.364,21.617 c 0.179,0.313 0.179,0.695 0,1.008 -0.18,0.316 -0.508,0.508 -0.868,0.508"
       style="fill:#040606;fill-opacity:1;fill-rule:nonzero;stroke:none"
       transform="scale(1.3333333)" />
    <path
       id="path4"
       d="m 132.254,76.945 7.488,9.43 7.485,-9.43 -7.485,-9.429 z M 139.742,89 c -0.304,0 -0.59,-0.141 -0.781,-0.379 l -8.77,-11.043 c -0.293,-0.371 -0.293,-0.894 0,-1.265 l 8.77,-11.043 c 0.379,-0.481 1.184,-0.481 1.562,0 l 8.77,11.043 c 0.293,0.371 0.293,0.894 0,1.265 l -8.77,11.043 C 140.332,88.859 140.047,89 139.742,89"
       style="fill:#040606;fill-opacity:1;fill-rule:nonzero;stroke:none"
       transform="scale(1.3333333)" />
    <path
       id="path5"
       d="m 90.871,86.742 h 21.254 L 101.496,68.156 Z m 22.988,2.02 H 89.137 c -0.36,0 -0.688,-0.192 -0.867,-0.504 -0.18,-0.313 -0.18,-0.699 0,-1.012 l 12.363,-21.613 c 0.355,-0.625 1.375,-0.625 1.73,0 l 12.364,21.613 c 0.179,0.313 0.179,0.699 0,1.012 -0.18,0.312 -0.508,0.504 -0.868,0.504"
       style="fill:#040606;fill-opacity:1;fill-rule:nonzero;stroke:none"
       transform="scale(1.3333333)" />
    <path
       id="path6"
       d="m 63.16,83.051 c 0.16,0 0.32,0.035 0.469,0.113 l 5.16,2.742 -0.984,-5.804 c -0.059,-0.329 0.05,-0.661 0.285,-0.895 l 4.176,-4.109 -5.77,-0.844 c -0.324,-0.051 -0.609,-0.258 -0.754,-0.555 l -2.582,-5.277 -2.578,5.277 c -0.148,0.297 -0.43,0.504 -0.754,0.555 l -5.773,0.844 4.179,4.109 c 0.235,0.234 0.34,0.566 0.286,0.895 l -0.985,5.804 5.16,-2.742 C 62.84,83.086 63,83.051 63.16,83.051 Z m 6.957,5.711 c -0.156,0 -0.316,-0.039 -0.465,-0.114 l -6.492,-3.449 -6.488,3.449 c -0.34,0.176 -0.746,0.149 -1.055,-0.078 -0.308,-0.226 -0.465,-0.609 -0.398,-0.988 l 1.238,-7.297 -5.25,-5.168 c -0.273,-0.269 -0.371,-0.672 -0.254,-1.035 0.117,-0.367 0.43,-0.633 0.809,-0.687 l 7.258,-1.067 3.246,-6.637 c 0.336,-0.691 1.457,-0.691 1.793,0 l 3.246,6.637 7.258,1.067 c 0.375,0.054 0.691,0.32 0.808,0.687 0.117,0.363 0.02,0.766 -0.254,1.035 l -5.25,5.168 1.238,7.297 c 0.063,0.379 -0.089,0.762 -0.398,0.988 -0.176,0.129 -0.383,0.192 -0.59,0.192"
       style="fill:#040606;fill-opacity:1;fill-rule:nonzero;stroke:none"
       transform="scale(1.3333333)" />
    <path
       id="path7"
       d="m 91.793,54.18 h 19.41 V 34.586 h -19.41 z m 20.41,2.019 h -21.41 c -0.555,0 -1,-0.453 -1,-1.011 V 33.574 c 0,-0.558 0.445,-1.011 1,-1.011 h 21.41 c 0.555,0 1,0.453 1,1.011 v 21.614 c 0,0.558 -0.445,1.011 -1,1.011"
       style="fill:#040606;fill-opacity:1;fill-rule:nonzero;stroke:none"
       transform="scale(1.3333333)" />
    <path
       id="path8"
       d="m 139.742,50.484 c 0.16,0 0.321,0.039 0.465,0.118 l 5.164,2.738 -0.988,-5.801 c -0.055,-0.328 0.055,-0.664 0.289,-0.894 l 4.176,-4.11 -5.77,-0.847 c -0.328,-0.047 -0.609,-0.254 -0.754,-0.551 l -2.582,-5.282 -2.582,5.282 c -0.144,0.297 -0.426,0.504 -0.754,0.551 l -5.769,0.847 4.176,4.11 c 0.234,0.23 0.343,0.566 0.289,0.894 l -0.985,5.801 5.16,-2.738 c 0.145,-0.079 0.305,-0.118 0.465,-0.118 z m -6.957,5.715 c -0.207,0 -0.414,-0.066 -0.586,-0.191 -0.308,-0.227 -0.465,-0.61 -0.398,-0.988 l 1.238,-7.297 -5.25,-5.168 c -0.273,-0.27 -0.371,-0.672 -0.254,-1.035 0.117,-0.368 0.43,-0.633 0.809,-0.688 l 7.254,-1.066 3.246,-6.641 c 0.34,-0.687 1.457,-0.687 1.797,0 l 3.246,6.641 7.258,1.066 c 0.375,0.055 0.687,0.32 0.804,0.688 0.121,0.363 0.024,0.765 -0.25,1.035 l -5.254,5.168 1.243,7.297 c 0.062,0.378 -0.094,0.761 -0.399,0.988 -0.309,0.226 -0.719,0.254 -1.055,0.074 l -6.492,-3.445 -6.492,3.445 c -0.145,0.078 -0.305,0.117 -0.465,0.117"
       style="fill:#040606;fill-opacity:1;fill-rule:nonzero;stroke:none"
       transform="scale(1.3333333)" />
    <path
       id="path9"
       d="m 57.566,34.59 c -0.453,0 -0.949,0.051 -1.48,0.168 -1.898,0.422 -3.094,1.84 -3.367,4 -0.559,4.433 2.914,11.23 10.441,15.293 7.531,-4.063 11.004,-10.86 10.442,-15.293 -0.274,-2.16 -1.465,-3.578 -3.364,-4 -4.523,-1 -6.082,2.726 -6.148,2.887 -0.152,0.378 -0.52,0.632 -0.926,0.632 -0.004,0 -0.004,0 -0.008,0 C 62.75,38.273 62.383,38.023 62.23,37.641 62.176,37.504 60.953,34.59 57.566,34.59 Z m 5.594,21.609 c -0.152,0 -0.308,-0.035 -0.453,-0.109 C 53.953,51.594 50.059,43.836 50.734,38.5 c 0.383,-3.023 2.176,-5.105 4.922,-5.715 3.731,-0.828 6.192,0.832 7.504,2.516 1.313,-1.684 3.778,-3.344 7.508,-2.516 2.746,0.61 4.539,2.692 4.922,5.715 0.676,5.336 -3.219,13.094 -11.973,17.59 -0.144,0.074 -0.301,0.109 -0.457,0.109"
       style="fill:#040606;fill-opacity:1;fill-rule:nonzero;stroke:none"
       transform="scale(1.3333333)" />
    <text
       xml:space="preserve"
       style="font-size:26.6667px;font-family:'Liberation Serif';-inkscape-font-specification:'Liberation Serif';fill:#636363;stroke-width:1.70079;stroke-dasharray:none"
       x="-10.366365"
       y="24.479427"
       id="text10"><tspan
         sodipodi:role="line"
         id="tspan10"
         x="-10.366365"
         y="24.479427"
         style="font-size:26.6667px;fill:#000000;stroke-width:1.70079;stroke-dasharray:none">Арина</tspan></text>
    <text
       xml:space="preserve"
       style="font-size:26.6667px;font-family:'Liberation Serif';-inkscape-font-specification:'Liberation Serif';fill:#000000;stroke-width:1.70079;stroke-dasharray:none"
       x="-10.574698"
       y="67.776466"
       id="text11"><tspan
         sodipodi:role="line"
         id="tspan11"
         x="-10.574698"
         y="67.776466">Бетти</tspan></text>
    <text
       xml:space="preserve"
       style="font-size:26.6667px;font-family:'Liberation Serif';-inkscape-font-specification:'Liberation Serif';fill:#000000;stroke-width:1.70079;stroke-dasharray:none"
       x="-10.770012"
       y="108.47649"
       id="text12"><tspan
         sodipodi:role="line"
         id="tspan12"
         x="-10.770012"
         y="108.47649">София</tspan></text>
  </g>
</svg>
