<?xml version="1.0" encoding="UTF-8" standalone="no"?>
<!-- Created with Inkscape (http://www.inkscape.org/) -->

<svg
   version="1.1"
   id="svg1"
   width="139.71944"
   height="145.87329"
   viewBox="0 0 139.71943 145.87329"
   sodipodi:docname="B26-1.svg"
   inkscape:version="1.3.1 (9b9bdc1480, 2023-11-25, custom)"
   xmlns:inkscape="http://www.inkscape.org/namespaces/inkscape"
   xmlns:sodipodi="http://sodipodi.sourceforge.net/DTD/sodipodi-0.dtd"
   xmlns="http://www.w3.org/2000/svg"
   xmlns:svg="http://www.w3.org/2000/svg">
  <defs
     id="defs1">
    <clipPath
       clipPathUnits="userSpaceOnUse"
       id="clipPath2">
      <path
         d="m 92.3945,854.68 v 0 L 436.996,1069.13 1025.23,946.156 686.984,727.68 Z"
         transform="translate(0,2.5000001e-5)"
         id="path2" />
    </clipPath>
    <clipPath
       clipPathUnits="userSpaceOnUse"
       id="clipPath5">
      <path
         d="m 1025.23,946.156 v 0 l -3.46,-629 L 686.027,90.1406 686.984,727.68 Z"
         transform="translate(0,2.5000001e-5)"
         id="path5" />
    </clipPath>
    <clipPath
       clipPathUnits="userSpaceOnUse"
       id="clipPath8">
      <path
         d="m 686.027,90.1406 v 0 L 95.8984,222.098 92.3945,854.68 686.984,727.68 Z"
         transform="translate(0,2.5000001e-5)"
         id="path8" />
    </clipPath>
  </defs>
  <sodipodi:namedview
     id="namedview1"
     pagecolor="#ffffff"
     bordercolor="#000000"
     borderopacity="0.25"
     inkscape:showpageshadow="2"
     inkscape:pageopacity="0.0"
     inkscape:pagecheckerboard="0"
     inkscape:deskcolor="#d1d1d1"
     showgrid="false"
     inkscape:zoom="5.4310342"
     inkscape:cx="48.333336"
     inkscape:cy="65.365083"
     inkscape:window-width="1848"
     inkscape:window-height="1016"
     inkscape:window-x="72"
     inkscape:window-y="27"
     inkscape:window-maximized="1"
     inkscape:current-layer="g1">
    <inkscape:page
       x="0"
       y="0"
       inkscape:label="1"
       id="page1"
       width="139.71944"
       height="145.87329"
       margin="0"
       bleed="0" />
  </sodipodi:namedview>
  <g
     id="g1"
     inkscape:groupmode="layer"
     inkscape:label="1"
     transform="translate(-162.19576,-1.5893225)">
    <g
       id="g61">
      <path
         id="path3"
         d="m 177.35062,34.593144 34.46263,-21.333067 78.4312,16.396533"
         style="fill:none;stroke:#000000;stroke-width:0.664176;stroke-linecap:butt;stroke-linejoin:round;stroke-miterlimit:10;stroke-dasharray:none;stroke-opacity:1"
         sodipodi:nodetypes="ccc" />
      <path
         id="path6"
         d="m 290.24445,29.656613 v 0 l -0.46133,83.866657 -36.76574,24.26872 0.1276,-85.005245 z"
         style="fill:none;stroke:#000000;stroke-width:0.664176;stroke-linecap:butt;stroke-linejoin:round;stroke-miterlimit:10;stroke-dasharray:none;stroke-opacity:1"
         sodipodi:nodetypes="cccccc" />
      <path
         id="path9"
         d="m 253.01738,135.79199 v 0 l -78.68381,-17.59432 -0.46718,-84.344257 79.27859,16.933332 z"
         style="fill:none;stroke:#000000;stroke-width:0.664176;stroke-linecap:butt;stroke-linejoin:round;stroke-miterlimit:10;stroke-dasharray:none;stroke-opacity:1" />
      <path
         id="path11"
         d="m 211.93405,96.482608 v 0 l 77.84907,17.040662"
         style="fill:none;stroke:#000000;stroke-width:0.332088;stroke-linecap:butt;stroke-linejoin:round;stroke-miterlimit:10;stroke-dasharray:8.3022, 4.98132;stroke-dashoffset:1.66044;stroke-opacity:1" />
      <path
         id="path12"
         d="m 211.93405,96.482608 v 0 l -0.1208,-83.222531"
         style="fill:none;stroke:#000000;stroke-width:0.332088;stroke-linecap:butt;stroke-linejoin:round;stroke-miterlimit:10;stroke-dasharray:8.3022, 4.98132;stroke-dashoffset:1.66044;stroke-opacity:1" />
      <path
         id="path14"
         d="m 211.93405,96.482608 v 0 l -0.1208,-83.222531"
         style="fill:none;stroke:#000000;stroke-width:0.332088;stroke-linecap:butt;stroke-linejoin:round;stroke-miterlimit:10;stroke-dasharray:8.3022, 4.98132;stroke-dashoffset:1.66044;stroke-opacity:1" />
      <path
         id="path15"
         d="m 211.93405,96.482608 v 0 l -45.60048,29.715062"
         style="fill:none;stroke:#000000;stroke-width:0.332088;stroke-linecap:butt;stroke-linejoin:round;stroke-miterlimit:10;stroke-dasharray:8.3022, 4.98132;stroke-dashoffset:1.66044;stroke-opacity:1" />
      <path
         id="path19"
         d="m 211.93405,96.482608 v 0 l -45.60048,29.715062"
         style="fill:none;stroke:#000000;stroke-width:0.332088;stroke-linecap:butt;stroke-linejoin:round;stroke-miterlimit:10;stroke-dasharray:8.3022, 4.98132;stroke-dashoffset:1.66044;stroke-opacity:1" />
      <path
         id="path20"
         d="m 211.93405,96.482608 v 0 l 77.84907,17.040662"
         style="fill:none;stroke:#000000;stroke-width:0.332088;stroke-linecap:butt;stroke-linejoin:round;stroke-miterlimit:10;stroke-dasharray:8.3022, 4.98132;stroke-dashoffset:1.66044;stroke-opacity:1" />
      <path
         id="path22"
         d="m 264.48352,50.786745 v 0 c 0,-6.261999 -5.07654,-11.338533 -11.33854,-11.338533 -6.26186,0 -11.33853,5.076534 -11.33853,11.338533 0,6.262 5.07667,11.338533 11.33853,11.338533 6.262,0 11.33854,-5.076533 11.33854,-11.338533"
         style="fill:#e6e6e6;fill-opacity:1;fill-rule:nonzero;stroke:none;stroke-width:0.133333" />
      <path
         id="path23"
         d="m 264.48352,50.786745 v 0 c 0,-6.261999 -5.07654,-11.338533 -11.33854,-11.338533 -6.26186,0 -11.33853,5.076534 -11.33853,11.338533 0,6.262 5.07667,11.338533 11.33853,11.338533 6.262,0 11.33854,-5.076533 11.33854,-11.338533 z"
         style="fill:none;stroke:#000000;stroke-width:0.664176;stroke-linecap:round;stroke-linejoin:round;stroke-miterlimit:10;stroke-dasharray:none;stroke-opacity:1" />
      <path
         id="path24"
         d="m 185.20499,33.853413 v 0 c 0,-6.262 -5.07667,-11.338534 -11.3386,-11.338534 -6.26198,0 -11.33854,5.076534 -11.33854,11.338534 0,6.261999 5.07656,11.338533 11.33854,11.338533 6.26193,0 11.3386,-5.076534 11.3386,-11.338533"
         style="fill:#e6e6e6;fill-opacity:1;fill-rule:nonzero;stroke:none;stroke-width:0.133333" />
      <path
         id="path25"
         d="m 185.20499,33.853413 v 0 c 0,-6.262 -5.07667,-11.338534 -11.3386,-11.338534 -6.26198,0 -11.33854,5.076534 -11.33854,11.338534 0,6.261999 5.07656,11.338533 11.33854,11.338533 6.26193,0 11.3386,-5.076534 11.3386,-11.338533 z"
         style="fill:none;stroke:#000000;stroke-width:0.664176;stroke-linecap:round;stroke-linejoin:round;stroke-miterlimit:10;stroke-dasharray:none;stroke-opacity:1" />
      <path
         id="path26"
         d="m 223.15178,13.260077 v 0 c 0,-6.2613333 -5.07653,-11.3386665 -11.33853,-11.3386665 -6.262,0 -11.33853,5.0773332 -11.33853,11.3386665 0,6.262666 5.07653,11.338666 11.33853,11.338666 6.262,0 11.33853,-5.076 11.33853,-11.338666"
         style="fill:#e6e6e6;fill-opacity:1;fill-rule:nonzero;stroke:none;stroke-width:0.133333" />
      <path
         id="path27"
         d="m 223.15178,13.260077 v 0 c 0,-6.2613333 -5.07653,-11.3386665 -11.33853,-11.3386665 -6.262,0 -11.33853,5.0773332 -11.33853,11.3386665 0,6.262666 5.07653,11.338666 11.33853,11.338666 6.262,0 11.33853,-5.076 11.33853,-11.338666 z"
         style="fill:none;stroke:#000000;stroke-width:0.664176;stroke-linecap:round;stroke-linejoin:round;stroke-miterlimit:10;stroke-dasharray:none;stroke-opacity:1" />
      <path
         id="path28"
         d="m 301.58312,29.65661 v 0 c 0,-6.262 -5.07734,-11.3392 -11.33867,-11.3392 -6.2624,0 -11.33893,5.0772 -11.33893,11.3392 0,6.262 5.07653,11.338533 11.33893,11.338533 6.26133,0 11.33867,-5.076533 11.33867,-11.338533"
         style="fill:#e6e6e6;fill-opacity:1;fill-rule:nonzero;stroke:none;stroke-width:0.133333" />
      <path
         id="path29"
         d="m 301.58312,29.65661 v 0 c 0,-6.262 -5.07734,-11.3392 -11.33867,-11.3392 -6.2624,0 -11.33893,5.0772 -11.33893,11.3392 0,6.262 5.07653,11.338533 11.33893,11.338533 6.26133,0 11.33867,-5.076533 11.33867,-11.338533 z"
         style="fill:none;stroke:#000000;stroke-width:0.664176;stroke-linecap:round;stroke-linejoin:round;stroke-miterlimit:10;stroke-dasharray:none;stroke-opacity:1" />
      <path
         id="path30"
         d="m 293.98071,24.886261 v -0.375 h -3.84375 c -1.9375,0 -1.96875,-0.203125 -2.03125,-0.515625 h -0.34375 l -0.5,3.1875 h 0.35938 c 0.0469,-0.28125 0.1875,-1.265625 0.39062,-1.4375 0.125,-0.09375 1.32813,-0.09375 1.54688,-0.09375 h 3.375 l -1.6875,2.421875 c -0.42188,0.609375 -2.03125,3.234375 -2.03125,6.21875 0,0.1875 0,0.812499 0.64062,0.812499 0.67188,0 0.67188,-0.609374 0.67188,-0.828124 v -0.796875 c 0,-2.375 0.39062,-4.21875 1.14062,-5.28125 z m 0,0"
         style="fill:#000000;fill-opacity:1;fill-rule:nonzero;stroke:none;stroke-width:1.33333"
         aria-label="7" />
      <path
         id="path31"
         d="m 264.35592,135.79199 v 0 c 0,-6.26192 -5.07654,-11.33858 -11.33854,-11.33858 -6.26186,0 -11.33853,5.07666 -11.33853,11.33858 0,6.26198 5.07667,11.33854 11.33853,11.33854 6.262,0 11.33854,-5.07656 11.33854,-11.33854"
         style="fill:#e6e6e6;fill-opacity:1;fill-rule:nonzero;stroke:none;stroke-width:0.133333" />
      <path
         id="path32"
         d="m 264.35592,135.79199 v 0 c 0,-6.26192 -5.07654,-11.33858 -11.33854,-11.33858 -6.26186,0 -11.33853,5.07666 -11.33853,11.33858 0,6.26198 5.07667,11.33854 11.33853,11.33854 6.262,0 11.33854,-5.07656 11.33854,-11.33854 z"
         style="fill:none;stroke:#000000;stroke-width:0.664176;stroke-linecap:round;stroke-linejoin:round;stroke-miterlimit:10;stroke-dasharray:none;stroke-opacity:1" />
      <path
         id="path33"
         d="m 253.92603,135.1636 c 0.79687,-0.4375 1.95312,-1.17187 1.95312,-2.5 0,-1.39062 -1.32812,-2.34375 -2.79687,-2.34375 -1.57813,0 -2.82813,1.15625 -2.82813,2.60938 0,0.54687 0.17188,1.07812 0.60938,1.625 0.17187,0.20312 0.1875,0.21875 1.3125,1 -1.54688,0.71875 -2.34375,1.79687 -2.34375,2.95312 0,1.6875 1.60937,2.73438 3.23437,2.73438 1.76563,0 3.25,-1.29688 3.25,-2.96875 0,-1.625 -1.14062,-2.34375 -2.39062,-3.10938 z m -2.17188,-1.4375 c -0.20312,-0.14062 -0.84375,-0.5625 -0.84375,-1.34375 0,-1.03125 1.09375,-1.6875 2.15625,-1.6875 1.14063,0 2.17188,0.82813 2.17188,1.98438 0,0.96875 -0.70313,1.75 -1.625,2.25 z m 0.75,2.0625 1.9375,1.25 c 0.40625,0.26563 1.14063,0.76563 1.14063,1.73438 0,1.21875 -1.21875,2.04687 -2.5,2.04687 -1.35938,0 -2.51563,-0.98437 -2.51563,-2.3125 0,-1.25 0.90625,-2.25 1.9375,-2.71875 z m 0,0"
         style="fill:#000000;fill-opacity:1;fill-rule:nonzero;stroke:none;stroke-width:1.33333"
         aria-label="8" />
      <path
         id="path34"
         d="m 185.67259,118.19767 v 0 c 0,-6.262 -5.07654,-11.33853 -11.3385,-11.33853 -6.26197,0 -11.33905,5.07653 -11.33905,11.33853 0,6.262 5.07708,11.33854 11.33905,11.33854 6.26196,0 11.3385,-5.07654 11.3385,-11.33854"
         style="fill:#e6e6e6;fill-opacity:1;fill-rule:nonzero;stroke:none;stroke-width:0.133333" />
      <path
         id="path35"
         d="m 185.67259,118.19767 v 0 c 0,-6.262 -5.07654,-11.33853 -11.3385,-11.33853 -6.26197,0 -11.33905,5.07653 -11.33905,11.33853 0,6.262 5.07708,11.33854 11.33905,11.33854 6.26196,0 11.3385,-5.07654 11.3385,-11.33854 z"
         style="fill:none;stroke:#000000;stroke-width:0.664176;stroke-linecap:round;stroke-linejoin:round;stroke-miterlimit:10;stroke-dasharray:none;stroke-opacity:1" />
      <path
         id="path36"
         d="m 174.46899,119.51516 c 0,-1.40625 0.92188,-2.42187 2.10938,-3.14062 0.32812,-0.21875 1.04687,-0.64063 1.04687,-1.65625 0,-2.07813 -2.79687,-2.07813 -3.375,-2.07813 -2.0625,0 -3.09375,0.98438 -3.09375,2.0625 0,0.64063 0.48438,0.95313 0.9375,0.95313 0.51563,0 0.95313,-0.35938 0.95313,-0.9375 0,-0.28125 -0.125,-0.79688 -0.78125,-0.9375 0.64062,-0.57813 1.5625,-0.60938 1.90625,-0.60938 1.5,0 1.54687,0.625 1.54687,1.42188 0,0.89062 -0.1875,1.09375 -0.48437,1.35937 -1.42188,1.48438 -1.42188,3.10938 -1.42188,3.71875 v 0.5 c 0.0312,0.17188 0.20313,0.17188 0.32813,0.17188 0.32812,0 0.32812,-0.0781 0.32812,-0.42188 z m 0.8125,3.14063 c 0,-0.64063 -0.5,-1.15625 -1.14062,-1.15625 -0.64063,0 -1.14063,0.51562 -1.14063,1.15625 0,0.625 0.5,1.14062 1.14063,1.14062 0.64062,0 1.14062,-0.51562 1.14062,-1.14062 z m 0,0"
         style="fill:#000000;fill-opacity:1;fill-rule:nonzero;stroke:none;stroke-width:1.33333"
         aria-label="?" />
      <path
         id="path37"
         d="m 223.27312,96.482608 v 0 c 0,-6.262 -5.07707,-11.338533 -11.33907,-11.338533 -6.26186,0 -11.33853,5.076533 -11.33853,11.338533 0,6.262002 5.07667,11.338532 11.33853,11.338532 6.262,0 11.33907,-5.07653 11.33907,-11.338532"
         style="fill:#e6e6e6;fill-opacity:1;fill-rule:nonzero;stroke:none;stroke-width:0.133333" />
      <path
         id="path38"
         d="m 223.27312,96.482608 v 0 c 0,-6.262 -5.07707,-11.338533 -11.33907,-11.338533 -6.26186,0 -11.33853,5.076533 -11.33853,11.338533 0,6.262002 5.07667,11.338532 11.33853,11.338532 6.262,0 11.33907,-5.07653 11.33907,-11.338532 z"
         style="fill:none;stroke:#000000;stroke-width:0.664176;stroke-linecap:round;stroke-linejoin:round;stroke-miterlimit:10;stroke-dasharray:none;stroke-opacity:1" />
      <path
         id="path39"
         d="m 210.04712,96.054226 c 0,-4.031249 1.96875,-4.671875 2.82812,-4.671875 0.57813,0 1.14063,0.171876 1.45313,0.65625 -0.1875,0 -0.79688,0 -0.79688,0.65625 0,0.34375 0.23438,0.65625 0.65625,0.65625 0.39063,0 0.65625,-0.25 0.65625,-0.703125 0,-0.828125 -0.59375,-1.640625 -1.98437,-1.640625 -2.01563,0 -4.10938,2.046875 -4.10938,5.5625 0,4.374999 1.90625,5.359379 3.26563,5.359379 1.73437,0 3.21875,-1.5 3.21875,-3.578129 0,-2.125 -1.48438,-3.546875 -3.07813,-3.546875 -1.42187,0 -1.9375,1.234375 -2.10937,1.6875 z m 1.96875,5.453124 c -1,0 -1.48438,-0.89062 -1.625,-1.23437 -0.14063,-0.406254 -0.29688,-1.187504 -0.29688,-2.312504 0,-1.25 0.5625,-2.828125 2,-2.828125 0.875,0 1.34375,0.59375 1.57813,1.125 0.25,0.59375 0.25,1.390625 0.25,2.078125 0,0.8125 0,1.53125 -0.29688,2.140624 -0.40625,0.76563 -0.96875,1.03125 -1.60937,1.03125 z m 0,0"
         style="fill:#000000;fill-opacity:1;fill-rule:nonzero;stroke:none;stroke-width:1.33333"
         aria-label="6" />
      <path
         id="path40"
         d="m 301.12178,113.52327 v 0 c 0,-6.262 -5.07733,-11.33853 -11.33866,-11.33853 -6.262,0 -11.33867,5.07653 -11.33867,11.33853 0,6.262 5.07667,11.33854 11.33867,11.33854 6.26133,0 11.33866,-5.07654 11.33866,-11.33854"
         style="fill:#e6e6e6;fill-opacity:1;fill-rule:nonzero;stroke:none;stroke-width:0.133333" />
      <path
         id="path41"
         d="m 301.12178,113.52327 v 0 c 0,-6.262 -5.07733,-11.33853 -11.33866,-11.33853 -6.262,0 -11.33867,5.07653 -11.33867,11.33853 0,6.262 5.07667,11.33854 11.33867,11.33854 6.26133,0 11.33866,-5.07654 11.33866,-11.33854 z"
         style="fill:none;stroke:#000000;stroke-width:0.664176;stroke-linecap:round;stroke-linejoin:round;stroke-miterlimit:10;stroke-dasharray:none;stroke-opacity:1" />
    </g>
  </g>
</svg>
