<?xml version="1.0" encoding="UTF-8" standalone="no"?>
<!-- Created with Inkscape (http://www.inkscape.org/) -->

<svg
   width="146.57414mm"
   height="14.105485mm"
   viewBox="0 0 146.57414 14.105485"
   version="1.1"
   id="svg1"
   inkscape:version="1.3.1 (9b9bdc1480, 2023-11-25, custom)"
   sodipodi:docname="B29-1.svg"
   xmlns:inkscape="http://www.inkscape.org/namespaces/inkscape"
   xmlns:sodipodi="http://sodipodi.sourceforge.net/DTD/sodipodi-0.dtd"
   xmlns="http://www.w3.org/2000/svg"
   xmlns:svg="http://www.w3.org/2000/svg">
  <sodipodi:namedview
     id="namedview1"
     pagecolor="#ffffff"
     bordercolor="#000000"
     borderopacity="0.25"
     inkscape:showpageshadow="2"
     inkscape:pageopacity="0.0"
     inkscape:pagecheckerboard="0"
     inkscape:deskcolor="#d1d1d1"
     inkscape:document-units="mm"
     inkscape:zoom="0.55589226"
     inkscape:cx="334.59721"
     inkscape:cy="203.2768"
     inkscape:window-width="1464"
     inkscape:window-height="800"
     inkscape:window-x="72"
     inkscape:window-y="27"
     inkscape:window-maximized="1"
     inkscape:current-layer="layer1" />
  <defs
     id="defs1" />
  <g
     inkscape:label="Layer 1"
     inkscape:groupmode="layer"
     id="layer1"
     transform="translate(-16.66875,-94.720834)">
    <path
       id="path1"
       d="m 29.783611,98.273638 c -1.25042,-2.165738 -3.561397,-3.500085 -6.062274,-3.500085 -3.865934,0 -6.999868,3.134078 -6.999868,7.000027 0,3.86595 3.133934,7.00002 6.999868,7.00002 2.500877,0 4.811854,-1.33435 6.062274,-3.50007 l -0.659518,-2.06665 c -0.252447,0.84734 -0.709401,1.36659 -1.202619,1.36659 -0.773077,0 -1.399964,-1.25359 -1.399964,-2.79989 0,-1.54629 0.626887,-2.79989 1.399964,-2.79989 0.493218,0 0.950172,0.519254 1.202619,1.36659"
       style="fill:#cccccc;fill-opacity:1;fill-rule:nonzero;stroke:none;stroke-width:0.0352778" />
    <path
       id="path2"
       d="m 29.783611,98.273638 c -1.25042,-2.165738 -3.561397,-3.500085 -6.062274,-3.500085 -3.865934,0 -6.999868,3.134078 -6.999868,7.000027 0,3.86595 3.133934,7.00002 6.999868,7.00002 2.500877,0 4.811854,-1.33435 6.062274,-3.50007 l -0.659518,-2.06665 c -0.252447,0.84734 -0.709401,1.36659 -1.202619,1.36659 -0.773077,0 -1.399964,-1.25359 -1.399964,-2.79989 0,-1.54629 0.626887,-2.79989 1.399964,-2.79989 0.493218,0 0.950172,0.519254 1.202619,1.36659 z"
       style="fill:none;stroke:#000000;stroke-width:0.105438;stroke-linecap:butt;stroke-linejoin:round;stroke-miterlimit:10;stroke-dasharray:none;stroke-opacity:1" />
    <path
       id="path3"
       d="m 22.671294,99.673602 c 0,-0.579755 -0.470183,-1.049938 -1.049938,-1.049938 -0.57972,0 -1.049937,0.470183 -1.049937,1.049938 0,0.579718 0.470217,1.049898 1.049937,1.049898 0.579755,0 1.049938,-0.47018 1.049938,-1.049898"
       style="fill:#000000;fill-opacity:1;fill-rule:nonzero;stroke:none;stroke-width:0.0352778" />
    <path
       id="path4"
       d="m 23.136925,98.798536 c -0.312526,-0.541302 -0.890341,-0.874924 -1.515569,-0.874924 -0.307022,0 -0.608965,0.08089 -0.874924,0.234421"
       style="fill:none;stroke:#000000;stroke-width:0.35146;stroke-linecap:butt;stroke-linejoin:round;stroke-miterlimit:10;stroke-dasharray:none;stroke-opacity:1" />
    <path
       id="path5"
       d="m 17.659224,105.27353 c 0.700042,0 3.262221,0 3.962132,-0.70006 v 0 c -0.699911,1.4001 -2.790388,1.41278 -3.490429,1.41278 v 0 c -0.171429,-0.22766 -0.329075,-0.46578 -0.471703,-0.71272"
       style="fill:#ffffff;fill-opacity:1;fill-rule:nonzero;stroke:none;stroke-width:0.0352778" />
    <path
       id="path6"
       d="m 17.659224,105.27353 c 0.700042,0 3.262221,0 3.962132,-0.70006 v 0 c -0.699911,1.4001 -2.790388,1.41278 -3.490429,1.41278 v 0 c -0.171429,-0.22766 -0.329075,-0.46578 -0.471703,-0.71272 z"
       style="fill:none;stroke:#000000;stroke-width:0.105438;stroke-linecap:butt;stroke-linejoin:round;stroke-miterlimit:10;stroke-dasharray:none;stroke-opacity:1" />
    <path
       id="path7"
       d="M 50.783557,98.273638 C 49.5331,96.1079 47.222159,94.773553 44.721423,94.773553 c -3.865951,0 -7.000029,3.134078 -7.000029,7.000027 0,3.86595 3.134078,7.00002 7.000029,7.00002 2.500736,0 4.811677,-1.33435 6.062134,-3.50007 l -0.659413,-2.06665 c -0.252447,0.84734 -0.709542,1.36659 -1.20276,1.36659 -0.773077,0 -1.399928,-1.25359 -1.399928,-2.79989 0,-1.54629 0.626851,-2.79989 1.399928,-2.79989 0.493218,0 0.950313,0.519254 1.20276,1.36659"
       style="fill:#cccccc;fill-opacity:1;fill-rule:nonzero;stroke:none;stroke-width:0.0352778" />
    <path
       id="path8"
       d="M 50.783557,98.273638 C 49.5331,96.1079 47.222159,94.773553 44.721423,94.773553 c -3.865951,0 -7.000029,3.134078 -7.000029,7.000027 0,3.86595 3.134078,7.00002 7.000029,7.00002 2.500736,0 4.811677,-1.33435 6.062134,-3.50007 l -0.659413,-2.06665 c -0.252447,0.84734 -0.709542,1.36659 -1.20276,1.36659 -0.773077,0 -1.399928,-1.25359 -1.399928,-2.79989 0,-1.54629 0.626851,-2.79989 1.399928,-2.79989 0.493218,0 0.950313,0.519254 1.20276,1.36659 z"
       style="fill:none;stroke:#000000;stroke-width:0.105438;stroke-linecap:butt;stroke-linejoin:round;stroke-miterlimit:10;stroke-dasharray:none;stroke-opacity:1" />
    <path
       id="path9"
       d="m 41.404324,99.347423 v 0 c 0.100048,-0.373309 0.726087,-0.530013 1.398164,-0.350026 0.672077,0.179952 1.135909,0.628791 1.035897,1.002242 -0.100048,0.373451 -0.726087,0.530121 -1.398164,0.350171 -0.672077,-0.18013 -1.13591,-0.628971 -1.035897,-1.002387"
       style="fill:#000000;fill-opacity:1;fill-rule:nonzero;stroke:none;stroke-width:0.0352778" />
    <path
       id="path10"
       d="m 44.136835,98.798536 c -0.312385,-0.541302 -0.8902,-0.874924 -1.515428,-0.874924 -0.307163,0 -0.609071,0.08089 -0.87503,0.234421"
       style="fill:none;stroke:#000000;stroke-width:0.35146;stroke-linecap:butt;stroke-linejoin:round;stroke-miterlimit:10;stroke-dasharray:none;stroke-opacity:1" />
    <path
       id="path11"
       d="m 38.659289,105.27353 c 0.699911,0 0.462069,0 1.162086,-0.70006 v 0 c 0.699911,-0.69991 2.100015,0.70006 2.800032,0 v 0 c -0.700017,1.4001 -1.750095,0 -2.450006,0.70006 v 0 c -0.700053,0.70004 -0.340501,0.71272 -1.040413,0.71272 v 0 c -0.171555,-0.22766 -0.329212,-0.46578 -0.471699,-0.71272"
       style="fill:#000000;fill-opacity:1;fill-rule:nonzero;stroke:none;stroke-width:0.0352778" />
    <path
       id="path12"
       d="m 38.659289,105.27353 c 0.699911,0 0.462069,0 1.162086,-0.70006 v 0 c 0.699911,-0.69991 2.100015,0.70006 2.800032,0 v 0 c -0.700017,1.4001 -1.750095,0 -2.450006,0.70006 v 0 c -0.700053,0.70004 -0.340501,0.71272 -1.040413,0.71272 v 0 c -0.171555,-0.22766 -0.329212,-0.46578 -0.471699,-0.71272 z"
       style="fill:none;stroke:#000000;stroke-width:0.105438;stroke-linecap:butt;stroke-linejoin:round;stroke-miterlimit:10;stroke-dasharray:none;stroke-opacity:1" />
    <path
       id="path13"
       d="m 72.461012,98.273638 c -1.250598,-2.165738 -3.561645,-3.500085 -6.062134,-3.500085 -2.500842,0 -4.811889,1.334347 -6.062487,3.500085 l -0.659341,2.066642 c -0.252589,-0.847336 -0.709436,-1.36659 -1.20262,-1.36659 -0.773289,0 -1.400175,1.2536 -1.400175,2.79989 0,1.5463 0.626886,2.79989 1.400175,2.79989 0.493184,0 0.950031,-0.51925 1.20262,-1.36659 l 0.659341,2.06665 c 1.250598,2.16572 3.561645,3.50007 6.062487,3.50007 2.500489,0 4.811536,-1.33435 6.062134,-3.50007 l -0.659695,-2.06665 c -0.252236,0.84734 -0.709436,1.36659 -1.202619,1.36659 -0.772937,0 -1.399823,-1.25359 -1.399823,-2.79989 0,-1.54629 0.626886,-2.79989 1.399823,-2.79989 0.493183,0 0.950383,0.519254 1.202619,1.36659"
       style="fill:#cccccc;fill-opacity:1;fill-rule:nonzero;stroke:none;stroke-width:0.0352778" />
    <path
       id="path14"
       d="m 72.461012,98.273638 c -1.250598,-2.165738 -3.561645,-3.500085 -6.062134,-3.500085 -2.500842,0 -4.811889,1.334347 -6.062487,3.500085 l -0.659341,2.066642 c -0.252589,-0.847336 -0.709436,-1.36659 -1.20262,-1.36659 -0.773289,0 -1.400175,1.2536 -1.400175,2.79989 0,1.5463 0.626886,2.79989 1.400175,2.79989 0.493184,0 0.950031,-0.51925 1.20262,-1.36659 l 0.659341,2.06665 c 1.250598,2.16572 3.561645,3.50007 6.062487,3.50007 2.500489,0 4.811536,-1.33435 6.062134,-3.50007 l -0.659695,-2.06665 c -0.252236,0.84734 -0.709436,1.36659 -1.202619,1.36659 -0.772937,0 -1.399823,-1.25359 -1.399823,-2.79989 0,-1.54629 0.626886,-2.79989 1.399823,-2.79989 0.493183,0 0.950383,0.519254 1.202619,1.36659 z"
       style="fill:none;stroke:#000000;stroke-width:0.105438;stroke-linecap:butt;stroke-linejoin:round;stroke-miterlimit:10;stroke-dasharray:none;stroke-opacity:1" />
    <path
       id="path15"
       d="m 63.038669,100.09348 c -1.363133,1.39555 -0.882297,4.60967 0.630062,5.88009 0.484363,0.40693 1.236486,-0.12595 1.88983,-0.12595 0.653697,0 1.40582,0.53288 1.890184,0.12595 1.512358,-1.27042 1.993194,-4.48454 0.630061,-5.88009 -0.582789,-0.596691 -1.647825,0.21001 -2.520245,0.21001 -0.872067,0 -1.937103,-0.806701 -2.519892,-0.21001"
       style="fill:#000000;fill-opacity:1;fill-rule:nonzero;stroke:none;stroke-width:0.0352778" />
    <path
       id="path16"
       d="m 65.558561,100.30349 c 0,0 -0.07373,-0.841308 -0.209903,-1.25995 -0.150283,-0.461786 -0.630061,-1.259945 -0.630061,-1.259945"
       style="fill:none;stroke:#000000;stroke-width:0.527191;stroke-linecap:butt;stroke-linejoin:round;stroke-miterlimit:10;stroke-dasharray:none;stroke-opacity:1" />
    <path
       id="path17"
       d="m 65.516581,99.04354 c 0,0 1.268589,0.141676 1.720144,-0.237137 0.451556,-0.378707 0.532342,-1.652693 0.532342,-1.652693 v 0 c 0,0 -1.268589,-0.141676 -1.720145,0.237031 -0.451555,0.378813 -0.532341,1.652799 -0.532341,1.652799 v 0"
       style="fill:#000000;fill-opacity:1;fill-rule:nonzero;stroke:none;stroke-width:0.0352778" />
    <path
       id="path18"
       d="m 93.460816,98.273638 c -1.250245,-2.165738 -3.561292,-3.500085 -6.062134,-3.500085 -2.500842,0 -4.811889,1.334347 -6.062134,3.500085 l -0.659341,2.066642 c -0.252589,-0.847336 -0.709789,-1.36659 -1.202973,-1.36659 -0.772936,0 -1.399822,1.2536 -1.399822,2.79989 0,1.5463 0.626886,2.79989 1.399822,2.79989 0.493184,0 0.950384,-0.51925 1.202973,-1.36659 l 0.659341,2.06665 c 1.250245,2.16572 3.561292,3.50007 6.062134,3.50007 2.500842,0 4.811889,-1.33435 6.062134,-3.50007 v -2.7999 h -1.16205 v 2.7999 h -2.100087 v -6.999892 h 2.100087 v 2.799892 h 1.16205"
       style="fill:#cccccc;fill-opacity:1;fill-rule:nonzero;stroke:none;stroke-width:0.0352778" />
    <path
       id="path19"
       d="m 93.460816,98.273638 c -1.250245,-2.165738 -3.561292,-3.500085 -6.062134,-3.500085 -2.500842,0 -4.811889,1.334347 -6.062134,3.500085 l -0.659341,2.066642 c -0.252589,-0.847336 -0.709789,-1.36659 -1.202973,-1.36659 -0.772936,0 -1.399822,1.2536 -1.399822,2.79989 0,1.5463 0.626886,2.79989 1.399822,2.79989 0.493184,0 0.950384,-0.51925 1.202973,-1.36659 l 0.659341,2.06665 c 1.250245,2.16572 3.561292,3.50007 6.062134,3.50007 2.500842,0 4.811889,-1.33435 6.062134,-3.50007 v -2.7999 h -1.16205 v 2.7999 h -2.100087 v -6.999892 h 2.100087 v 2.799892 h 1.16205 z"
       style="fill:none;stroke:#000000;stroke-width:0.105438;stroke-linecap:butt;stroke-linejoin:round;stroke-miterlimit:10;stroke-dasharray:none;stroke-opacity:1" />
    <path
       id="path20"
       d="m 86.103988,101.44148 c -0.639587,0.74055 -0.494595,2.29884 0.256116,2.92872 0.750711,0.63006 2.299053,0.4946 2.929114,-0.25615 0.629709,-0.75078 0.502356,-2.31055 -0.256116,-2.9289 -0.379589,-0.30921 -0.955323,0.12583 -1.461206,0.17007 -0.505178,0.0442 -1.147939,-0.28416 -1.467908,0.0863"
       style="fill:#000000;fill-opacity:1;fill-rule:nonzero;stroke:none;stroke-width:0.0352778" />
    <path
       id="path21"
       d="m 86.103988,101.44148 c -0.639587,0.74055 -0.494595,2.29884 0.256116,2.92872 0.750711,0.63006 2.299053,0.4946 2.929114,-0.25615 0.629709,-0.75078 0.502356,-2.31055 -0.256116,-2.9289 -0.379589,-0.30921 -0.955323,0.12583 -1.461206,0.17007 -0.505178,0.0442 -1.147939,-0.28416 -1.467908,0.0863 z"
       style="fill:none;stroke:#cccccc;stroke-width:0.246022;stroke-linecap:butt;stroke-linejoin:round;stroke-miterlimit:10;stroke-dasharray:none;stroke-opacity:1" />
    <path
       id="path22"
       d="m 84.141132,102.11327 c -0.809272,0.54984 -1.072445,2.09268 -0.51047,2.89539 0.562328,0.80285 2.092678,1.07267 2.895601,0.51057 0.802569,-0.56211 1.083027,-2.10177 0.510469,-2.89538 -0.286456,-0.39688 -0.955322,-0.12584 -1.455208,-0.21389 -0.499534,-0.0882 -1.035403,-0.57161 -1.440392,-0.29669"
       style="fill:#000000;fill-opacity:1;fill-rule:nonzero;stroke:none;stroke-width:0.0352778" />
    <path
       id="path23"
       d="m 84.141132,102.11327 c -0.809272,0.54984 -1.072445,2.09268 -0.51047,2.89539 0.562328,0.80285 2.092678,1.07267 2.895601,0.51057 0.802569,-0.56211 1.083027,-2.10177 0.510469,-2.89538 -0.286456,-0.39688 -0.955322,-0.12584 -1.455208,-0.21389 -0.499534,-0.0882 -1.035403,-0.57161 -1.440392,-0.29669 z"
       style="fill:none;stroke:#cccccc;stroke-width:0.246022;stroke-linecap:butt;stroke-linejoin:round;stroke-miterlimit:10;stroke-dasharray:none;stroke-opacity:1" />
    <path
       id="path24"
       d="m 87.608585,101.77358 c 0,0 -0.385939,-0.83964 -0.630061,-1.25994 -0.524228,-0.903856 -1.679928,-2.520002 -1.679928,-2.520002"
       style="fill:none;stroke:#000000;stroke-width:0.35146;stroke-linecap:butt;stroke-linejoin:round;stroke-miterlimit:10;stroke-dasharray:none;stroke-opacity:1" />
    <path
       id="path25"
       d="m 85.508851,102.82366 c 0,0 0.464256,-1.64169 0.419806,-2.52003 -0.04163,-0.823386 -0.630061,-2.309992 -0.630061,-2.309992"
       style="fill:none;stroke:#000000;stroke-width:0.35146;stroke-linecap:butt;stroke-linejoin:round;stroke-miterlimit:10;stroke-dasharray:none;stroke-opacity:1" />
    <path
       id="path26"
       d="m 85.214635,97.993638 c 0,0 -1.207206,0.394935 -1.53035,0.908932 -0.186267,0.296157 -0.08961,1.021398 -0.08961,1.021398 v 0 c 0,0 0.731308,-0.03087 0.9906,-0.265536 0.450145,-0.407352 0.629356,-1.664794 0.629356,-1.664794 v 0"
       style="fill:#000000;fill-opacity:1;fill-rule:nonzero;stroke:none;stroke-width:0.0352778" />
    <path
       id="path27"
       d="m 114.46097,98.273638 c -1.25059,-2.165738 -3.56164,-3.500085 -6.06248,-3.500085 -2.50049,0 -4.81154,1.334347 -6.06214,3.500085 l -0.65934,2.066642 c -0.25259,-0.847336 -0.70944,-1.36659 -1.20262,-1.36659 -0.772935,0 -1.399821,1.2536 -1.399821,2.79989 0,1.5463 0.626886,2.79989 1.399821,2.79989 0.49318,0 0.95003,-0.51925 1.20262,-1.36659 l 0.65934,2.06665 c 1.2506,2.16572 3.56165,3.50007 6.06214,3.50007 2.50084,0 4.81189,-1.33435 6.06248,-3.50007 l -0.65969,-2.06665 c -0.25224,0.84734 -0.70944,1.36659 -1.20262,1.36659 -0.77294,0 -1.39982,-1.25359 -1.39982,-2.79989 0,-1.54629 0.62688,-2.79989 1.39982,-2.79989 0.49318,0 0.95038,0.519254 1.20262,1.36659"
       style="fill:#cccccc;fill-opacity:1;fill-rule:nonzero;stroke:none;stroke-width:0.0352778" />
    <path
       id="path28"
       d="m 114.46097,98.273638 c -1.25059,-2.165738 -3.56164,-3.500085 -6.06248,-3.500085 -2.50049,0 -4.81154,1.334347 -6.06214,3.500085 l -0.65934,2.066642 c -0.25259,-0.847336 -0.70944,-1.36659 -1.20262,-1.36659 -0.772935,0 -1.399821,1.2536 -1.399821,2.79989 0,1.5463 0.626886,2.79989 1.399821,2.79989 0.49318,0 0.95003,-0.51925 1.20262,-1.36659 l 0.65934,2.06665 c 1.2506,2.16572 3.56165,3.50007 6.06214,3.50007 2.50084,0 4.81189,-1.33435 6.06248,-3.50007 l -0.65969,-2.06665 c -0.25224,0.84734 -0.70944,1.36659 -1.20262,1.36659 -0.77294,0 -1.39982,-1.25359 -1.39982,-2.79989 0,-1.54629 0.62688,-2.79989 1.39982,-2.79989 0.49318,0 0.95038,0.519254 1.20262,1.36659 z"
       style="fill:none;stroke:#000000;stroke-width:0.105438;stroke-linecap:butt;stroke-linejoin:round;stroke-miterlimit:10;stroke-dasharray:none;stroke-opacity:1" />
    <path
       id="path29"
       d="m 105.66869,98.413515 0.57926,-0.247509 v 0 0 c 0,0 0.85549,0.636234 0.94827,1.129594 0.0811,0.429789 -0.41169,1.21722 -0.41169,1.21722 v 0 c 0,0 -0.49707,-0.17268 -0.65476,-0.378 -0.0741,-0.0969 -0.0921,-0.344378 -0.0921,-0.344378 v 0 c 0,0 -0.18133,0.485778 -0.37818,0.654718 -0.41981,0.36089 -1.50283,0.58731 -1.50283,0.58731 v 0 0 0 c 0,0 -0.34537,-1.051176 -0.24307,-1.595229 0.048,-0.254918 0.37818,-0.654686 0.37818,-0.654686 v 0 c 0,0 -0.22331,0.108162 -0.34431,0.09218 -0.25647,-0.03376 -0.65476,-0.378001 -0.65476,-0.378001 v 0 c 0,0 0.43533,-0.82035 0.84808,-0.965165 0.47378,-0.166194 1.45239,0.256434 1.45239,0.256434 v 0 0 l 0.0755,0.625511"
       style="fill:#000000;fill-opacity:1;fill-rule:nonzero;stroke:none;stroke-width:0.0352778" />
    <path
       id="path30"
       d="m 105.66869,98.413515 c 0,0 0.76271,-1.024573 1.26012,-1.469955 0.28716,-0.257281 0.92393,-0.630026 0.92393,-0.630026"
       style="fill:none;stroke:#000000;stroke-width:0.35146;stroke-linecap:butt;stroke-linejoin:round;stroke-miterlimit:10;stroke-dasharray:none;stroke-opacity:1" />
    <path
       id="path31"
       d="m 106.92881,99.673602 c 0,0 -0.12347,-1.718134 0.20991,-2.520033 0.14534,-0.349603 0.71402,-0.840035 0.71402,-0.840035"
       style="fill:none;stroke:#000000;stroke-width:0.35146;stroke-linecap:butt;stroke-linejoin:round;stroke-miterlimit:10;stroke-dasharray:none;stroke-opacity:1" />
    <path
       id="path32"
       d="m 107.85274,105.97357 v 0 c 0,-0.51029 -0.41381,-0.92399 -0.92393,-0.92399 -0.51047,0 -0.92427,0.4137 -0.92427,0.92399 0,0.51028 0.4138,0.92411 0.92427,0.92411 0.51012,0 0.92393,-0.41383 0.92393,-0.92411"
       style="fill:#000000;fill-opacity:1;fill-rule:nonzero;stroke:none;stroke-width:0.0352778" />
    <path
       id="path33"
       d="m 107.85274,105.97357 v 0 c 0,-0.51029 -0.41381,-0.92399 -0.92393,-0.92399 -0.51047,0 -0.92427,0.4137 -0.92427,0.92399 0,0.51028 0.4138,0.92411 0.92427,0.92411 0.51012,0 0.92393,-0.41383 0.92393,-0.92411 z"
       style="fill:none;stroke:#cccccc;stroke-width:0.17573;stroke-linecap:butt;stroke-linejoin:round;stroke-miterlimit:10;stroke-dasharray:none;stroke-opacity:1" />
    <path
       id="path34"
       d="m 106.92881,104.71363 v 0 c 0,-0.51029 -0.4138,-0.9241 -0.92427,-0.9241 -0.51012,0 -0.92393,0.41381 -0.92393,0.9241 0,0.5103 0.41381,0.92397 0.92393,0.92397 0.51047,0 0.92427,-0.41367 0.92427,-0.92397"
       style="fill:#000000;fill-opacity:1;fill-rule:nonzero;stroke:none;stroke-width:0.0352778" />
    <path
       id="path35"
       d="m 106.92881,104.71363 v 0 c 0,-0.51029 -0.4138,-0.9241 -0.92427,-0.9241 -0.51012,0 -0.92393,0.41381 -0.92393,0.9241 0,0.5103 0.41381,0.92397 0.92393,0.92397 0.51047,0 0.92427,-0.41367 0.92427,-0.92397 z"
       style="fill:none;stroke:#cccccc;stroke-width:0.17573;stroke-linecap:butt;stroke-linejoin:round;stroke-miterlimit:10;stroke-dasharray:none;stroke-opacity:1" />
    <path
       id="path36"
       d="m 108.77666,104.71363 v 0 c 0,-0.51029 -0.4138,-0.9241 -0.92392,-0.9241 -0.51047,0 -0.92393,0.41381 -0.92393,0.9241 0,0.5103 0.41346,0.92397 0.92393,0.92397 0.51012,0 0.92392,-0.41367 0.92392,-0.92397"
       style="fill:#000000;fill-opacity:1;fill-rule:nonzero;stroke:none;stroke-width:0.0352778" />
    <path
       id="path37"
       d="m 108.77666,104.71363 v 0 c 0,-0.51029 -0.4138,-0.9241 -0.92392,-0.9241 -0.51047,0 -0.92393,0.41381 -0.92393,0.9241 0,0.5103 0.41346,0.92397 0.92393,0.92397 0.51012,0 0.92392,-0.41367 0.92392,-0.92397 z"
       style="fill:none;stroke:#cccccc;stroke-width:0.17573;stroke-linecap:butt;stroke-linejoin:round;stroke-miterlimit:10;stroke-dasharray:none;stroke-opacity:1" />
    <path
       id="path38"
       d="m 106.00454,103.45355 v 0 c 0,-0.5103 -0.41381,-0.92397 -0.92393,-0.92397 -0.51047,0 -0.92392,0.41367 -0.92392,0.92397 0,0.51029 0.41345,0.92396 0.92392,0.92396 0.51012,0 0.92393,-0.41367 0.92393,-0.92396"
       style="fill:#000000;fill-opacity:1;fill-rule:nonzero;stroke:none;stroke-width:0.0352778" />
    <path
       id="path39"
       d="m 106.00454,103.45355 v 0 c 0,-0.5103 -0.41381,-0.92397 -0.92393,-0.92397 -0.51047,0 -0.92392,0.41367 -0.92392,0.92397 0,0.51029 0.41345,0.92396 0.92392,0.92396 0.51012,0 0.92393,-0.41367 0.92393,-0.92396 z"
       style="fill:none;stroke:#cccccc;stroke-width:0.17573;stroke-linecap:butt;stroke-linejoin:round;stroke-miterlimit:10;stroke-dasharray:none;stroke-opacity:1" />
    <path
       id="path40"
       d="m 107.85274,103.45355 v 0 c 0,-0.5103 -0.41381,-0.92397 -0.92393,-0.92397 -0.51047,0 -0.92427,0.41367 -0.92427,0.92397 0,0.51029 0.4138,0.92396 0.92427,0.92396 0.51012,0 0.92393,-0.41367 0.92393,-0.92396"
       style="fill:#000000;fill-opacity:1;fill-rule:nonzero;stroke:none;stroke-width:0.0352778" />
    <path
       id="path41"
       d="m 107.85274,103.45355 v 0 c 0,-0.5103 -0.41381,-0.92397 -0.92393,-0.92397 -0.51047,0 -0.92427,0.41367 -0.92427,0.92397 0,0.51029 0.4138,0.92396 0.92427,0.92396 0.51012,0 0.92393,-0.41367 0.92393,-0.92396 z"
       style="fill:none;stroke:#cccccc;stroke-width:0.17573;stroke-linecap:butt;stroke-linejoin:round;stroke-miterlimit:10;stroke-dasharray:none;stroke-opacity:1" />
    <path
       id="path42"
       d="m 109.70059,103.45355 v 0 c 0,-0.5103 -0.41381,-0.92397 -0.92393,-0.92397 -0.51047,0 -0.92392,0.41367 -0.92392,0.92397 0,0.51029 0.41345,0.92396 0.92392,0.92396 0.51012,0 0.92393,-0.41367 0.92393,-0.92396"
       style="fill:#000000;fill-opacity:1;fill-rule:nonzero;stroke:none;stroke-width:0.0352778" />
    <path
       id="path43"
       d="m 109.70059,103.45355 v 0 c 0,-0.5103 -0.41381,-0.92397 -0.92393,-0.92397 -0.51047,0 -0.92392,0.41367 -0.92392,0.92397 0,0.51029 0.41345,0.92396 0.92392,0.92396 0.51012,0 0.92393,-0.41367 0.92393,-0.92396 z"
       style="fill:none;stroke:#cccccc;stroke-width:0.17573;stroke-linecap:butt;stroke-linejoin:round;stroke-miterlimit:10;stroke-dasharray:none;stroke-opacity:1" />
    <path
       id="path44"
       d="m 105.08061,102.1936 v 0 c 0,-0.51029 -0.41381,-0.92396 -0.92392,-0.92396 -0.51047,0 -0.92393,0.41367 -0.92393,0.92396 0,0.51029 0.41346,0.92399 0.92393,0.92399 0.51011,0 0.92392,-0.4137 0.92392,-0.92399"
       style="fill:#000000;fill-opacity:1;fill-rule:nonzero;stroke:none;stroke-width:0.0352778" />
    <path
       id="path45"
       d="m 105.08061,102.1936 v 0 c 0,-0.51029 -0.41381,-0.92396 -0.92392,-0.92396 -0.51047,0 -0.92393,0.41367 -0.92393,0.92396 0,0.51029 0.41346,0.92399 0.92393,0.92399 0.51011,0 0.92392,-0.4137 0.92392,-0.92399 z"
       style="fill:none;stroke:#cccccc;stroke-width:0.17573;stroke-linecap:butt;stroke-linejoin:round;stroke-miterlimit:10;stroke-dasharray:none;stroke-opacity:1" />
    <path
       id="path46"
       d="m 106.92881,102.1936 v 0 c 0,-0.51029 -0.4138,-0.92396 -0.92427,-0.92396 -0.51012,0 -0.92393,0.41367 -0.92393,0.92396 0,0.51029 0.41381,0.92399 0.92393,0.92399 0.51047,0 0.92427,-0.4137 0.92427,-0.92399"
       style="fill:#000000;fill-opacity:1;fill-rule:nonzero;stroke:none;stroke-width:0.0352778" />
    <path
       id="path47"
       d="m 106.92881,102.1936 v 0 c 0,-0.51029 -0.4138,-0.92396 -0.92427,-0.92396 -0.51012,0 -0.92393,0.41367 -0.92393,0.92396 0,0.51029 0.41381,0.92399 0.92393,0.92399 0.51047,0 0.92427,-0.4137 0.92427,-0.92399 z"
       style="fill:none;stroke:#cccccc;stroke-width:0.17573;stroke-linecap:butt;stroke-linejoin:round;stroke-miterlimit:10;stroke-dasharray:none;stroke-opacity:1" />
    <path
       id="path48"
       d="m 108.77666,102.1936 v 0 c 0,-0.51029 -0.4138,-0.92396 -0.92392,-0.92396 -0.51047,0 -0.92393,0.41367 -0.92393,0.92396 0,0.51029 0.41346,0.92399 0.92393,0.92399 0.51012,0 0.92392,-0.4137 0.92392,-0.92399"
       style="fill:#000000;fill-opacity:1;fill-rule:nonzero;stroke:none;stroke-width:0.0352778" />
    <path
       id="path49"
       d="m 108.77666,102.1936 v 0 c 0,-0.51029 -0.4138,-0.92396 -0.92392,-0.92396 -0.51047,0 -0.92393,0.41367 -0.92393,0.92396 0,0.51029 0.41346,0.92399 0.92393,0.92399 0.51012,0 0.92392,-0.4137 0.92392,-0.92399 z"
       style="fill:none;stroke:#cccccc;stroke-width:0.17573;stroke-linecap:butt;stroke-linejoin:round;stroke-miterlimit:10;stroke-dasharray:none;stroke-opacity:1" />
    <path
       id="path50"
       d="m 110.62487,102.1936 v 0 c 0,-0.51029 -0.41381,-0.92396 -0.92428,-0.92396 -0.51012,0 -0.92393,0.41367 -0.92393,0.92396 0,0.51029 0.41381,0.92399 0.92393,0.92399 0.51047,0 0.92428,-0.4137 0.92428,-0.92399"
       style="fill:#000000;fill-opacity:1;fill-rule:nonzero;stroke:none;stroke-width:0.0352778" />
    <path
       id="path51"
       d="m 110.62487,102.1936 v 0 c 0,-0.51029 -0.41381,-0.92396 -0.92428,-0.92396 -0.51012,0 -0.92393,0.41367 -0.92393,0.92396 0,0.51029 0.41381,0.92399 0.92393,0.92399 0.51047,0 0.92428,-0.4137 0.92428,-0.92399 z"
       style="fill:none;stroke:#cccccc;stroke-width:0.17573;stroke-linecap:butt;stroke-linejoin:round;stroke-miterlimit:10;stroke-dasharray:none;stroke-opacity:1" />
    <path
       id="path52"
       d="m 106.00454,100.93351 v 0 c 0,-0.51026 -0.41381,-0.92396 -0.92393,-0.92396 -0.51047,0 -0.92392,0.4137 -0.92392,0.92396 0,0.5103 0.41345,0.92414 0.92392,0.92414 0.51012,0 0.92393,-0.41384 0.92393,-0.92414"
       style="fill:#000000;fill-opacity:1;fill-rule:nonzero;stroke:none;stroke-width:0.0352778" />
    <path
       id="path53"
       d="m 106.00454,100.93351 v 0 c 0,-0.51026 -0.41381,-0.92396 -0.92393,-0.92396 -0.51047,0 -0.92392,0.4137 -0.92392,0.92396 0,0.5103 0.41345,0.92414 0.92392,0.92414 0.51012,0 0.92393,-0.41384 0.92393,-0.92414 z"
       style="fill:none;stroke:#cccccc;stroke-width:0.17573;stroke-linecap:butt;stroke-linejoin:round;stroke-miterlimit:10;stroke-dasharray:none;stroke-opacity:1" />
    <path
       id="path54"
       d="m 107.85274,100.93351 v 0 c 0,-0.51026 -0.41381,-0.92396 -0.92393,-0.92396 -0.51047,0 -0.92427,0.4137 -0.92427,0.92396 0,0.5103 0.4138,0.92414 0.92427,0.92414 0.51012,0 0.92393,-0.41384 0.92393,-0.92414"
       style="fill:#000000;fill-opacity:1;fill-rule:nonzero;stroke:none;stroke-width:0.0352778" />
    <path
       id="path55"
       d="m 107.85274,100.93351 v 0 c 0,-0.51026 -0.41381,-0.92396 -0.92393,-0.92396 -0.51047,0 -0.92427,0.4137 -0.92427,0.92396 0,0.5103 0.4138,0.92414 0.92427,0.92414 0.51012,0 0.92393,-0.41384 0.92393,-0.92414 z"
       style="fill:none;stroke:#cccccc;stroke-width:0.17573;stroke-linecap:butt;stroke-linejoin:round;stroke-miterlimit:10;stroke-dasharray:none;stroke-opacity:1" />
    <path
       id="path56"
       d="m 109.70059,100.93351 v 0 c 0,-0.51026 -0.41381,-0.92396 -0.92393,-0.92396 -0.51047,0 -0.92392,0.4137 -0.92392,0.92396 0,0.5103 0.41345,0.92414 0.92392,0.92414 0.51012,0 0.92393,-0.41384 0.92393,-0.92414"
       style="fill:#000000;fill-opacity:1;fill-rule:nonzero;stroke:none;stroke-width:0.0352778" />
    <path
       id="path57"
       d="m 109.70059,100.93351 v 0 c 0,-0.51026 -0.41381,-0.92396 -0.92393,-0.92396 -0.51047,0 -0.92392,0.4137 -0.92392,0.92396 0,0.5103 0.41345,0.92414 0.92392,0.92414 0.51012,0 0.92393,-0.41384 0.92393,-0.92414 z"
       style="fill:none;stroke:#cccccc;stroke-width:0.17573;stroke-linecap:butt;stroke-linejoin:round;stroke-miterlimit:10;stroke-dasharray:none;stroke-opacity:1" />
    <path
       id="path58"
       d="m 108.77666,99.673602 v 0 c 0,-0.510293 -0.4138,-0.923996 -0.92392,-0.923996 -0.51047,0 -0.92393,0.413703 -0.92393,0.923996 0,0.510258 0.41346,0.923958 0.92393,0.923958 0.51012,0 0.92392,-0.4137 0.92392,-0.923958"
       style="fill:#000000;fill-opacity:1;fill-rule:nonzero;stroke:none;stroke-width:0.0352778" />
    <path
       id="path59"
       d="m 108.77666,99.673602 v 0 c 0,-0.510293 -0.4138,-0.923996 -0.92392,-0.923996 -0.51047,0 -0.92393,0.413703 -0.92393,0.923996 0,0.510258 0.41346,0.923958 0.92393,0.923958 0.51012,0 0.92392,-0.4137 0.92392,-0.923958 z"
       style="fill:none;stroke:#cccccc;stroke-width:0.17573;stroke-linecap:butt;stroke-linejoin:round;stroke-miterlimit:10;stroke-dasharray:none;stroke-opacity:1" />
    <path
       id="path60"
       style="fill:#cccccc;fill-opacity:1;stroke:#000000;stroke-width:0.090515;stroke-linecap:butt;stroke-linejoin:round;stroke-miterlimit:10;stroke-dasharray:none;stroke-opacity:1"
       d="m 130.00579,94.773732 c -2.50084,0 -4.81193,1.334309 -6.06217,3.500045 v 2.799833 h -1.1622 v -2.799833 h -2.10013 v 6.999573 h 2.10013 v -2.79983 h 1.1622 v 2.79983 c 1.25024,2.16572 3.56133,3.50004 6.06217,3.50004 1.45602,0 2.80837,-0.44473 3.92844,-1.20561 v 0.002 c 2.38066,-0.79908 2.33762,-0.78043 6.21254,-5.69836 -3.40158,-4.238719 -3.57618,-4.548348 -5.67149,-5.487004 v 0.0021 c -1.21248,-1.007146 -2.7702,-1.612822 -4.46949,-1.612822 z"
       sodipodi:nodetypes="sccccccccccscccccs" />
    <path
       id="path60-2"
       style="fill:#cccccc;fill-opacity:1;stroke:#000000;stroke-width:0.090515;stroke-linecap:butt;stroke-linejoin:round;stroke-miterlimit:10;stroke-dasharray:none;stroke-opacity:1"
       d="m 153.05665,94.778343 c -2.50084,0 -4.81192,1.334309 -6.06216,3.500045 v 2.799832 h -1.16221 v -2.799832 h -2.10013 v 6.999572 h 2.10013 v -2.79983 h 1.16221 v 2.79983 c 1.25024,2.16572 3.56132,3.50005 6.06216,3.50005 1.45603,0 2.80838,-0.44474 3.92844,-1.20562 v 0.002 c 2.38066,-0.79908 2.33763,-0.78042 6.21254,-5.69836 -3.40157,-4.238718 -3.57618,-4.548347 -5.67149,-5.487002 v 0.0021 c -1.21247,-1.007146 -2.7702,-1.612821 -4.46949,-1.612821 z"
       sodipodi:nodetypes="sccccccccccscccccs" />
    <path
       id="path1-7-4"
       d="m 128.48207,99.463119 c -0.69522,0.184644 -1.45094,0.587061 -1.6801,1.260091 -0.42802,1.2573 0.39508,2.59937 1.05006,3.77995 0.57065,1.0287 1.1756,2.52002 2.31002,2.52002 1.13425,0 1.73934,-1.49132 2.30999,-2.52002 0.65486,-1.18058 1.47807,-2.52265 1.04994,-3.77995 -0.22917,-0.67303 -0.98489,-1.075447 -1.67997,-1.260091 -0.56046,-0.148837 -1.09625,0.210008 -1.67996,0.210008 -0.58389,0 -1.11967,-0.358845 -1.67998,-0.210008"
       style="fill:#000000;fill-opacity:1;fill-rule:nonzero;stroke:none;stroke-width:0.0352777" />
    <path
       id="path2-8-9"
       d="m 127.78905,100.80424 c 0,-0.0812 -0.0659,-0.1469 -0.14703,-0.1469 -0.0812,0 -0.14704,0.0657 -0.14704,0.1469 0,0.0811 0.0659,0.14704 0.14704,0.14704 0.0812,0 0.14703,-0.0659 0.14703,-0.14704"
       style="fill:#cccccc;fill-opacity:1;fill-rule:nonzero;stroke:none;stroke-width:0.0352777" />
    <path
       id="path3-4-2"
       d="m 128.79695,100.88869 c 0,-0.0812 -0.0657,-0.14703 -0.1469,-0.14703 -0.0812,0 -0.14704,0.0659 -0.14704,0.14703 0,0.0812 0.0659,0.14704 0.14704,0.14704 0.0812,0 0.1469,-0.0659 0.1469,-0.14704"
       style="fill:#cccccc;fill-opacity:1;fill-rule:nonzero;stroke:none;stroke-width:0.0352777" />
    <path
       id="path4-5-0"
       d="m 129.80499,100.92824 c 0,-0.0811 -0.0659,-0.1469 -0.14704,-0.1469 -0.0812,0 -0.14704,0.0658 -0.14704,0.1469 0,0.0812 0.0659,0.14704 0.14704,0.14704 0.0812,0 0.14704,-0.0659 0.14704,-0.14704"
       style="fill:#cccccc;fill-opacity:1;fill-rule:nonzero;stroke:none;stroke-width:0.0352777" />
    <path
       id="path5-0-6"
       d="m 130.81303,100.92824 c 0,-0.0811 -0.0659,-0.1469 -0.14704,-0.1469 -0.0812,0 -0.14703,0.0658 -0.14703,0.1469 0,0.0812 0.0659,0.14704 0.14703,0.14704 0.0812,0 0.14704,-0.0659 0.14704,-0.14704"
       style="fill:#cccccc;fill-opacity:1;fill-rule:nonzero;stroke:none;stroke-width:0.0352777" />
    <path
       id="path6-3-8"
       d="m 131.82106,100.88869 c 0,-0.0812 -0.0659,-0.14703 -0.14704,-0.14703 -0.0812,0 -0.14704,0.0659 -0.14704,0.14703 0,0.0812 0.0659,0.14704 0.14704,0.14704 0.0812,0 0.14704,-0.0659 0.14704,-0.14704"
       style="fill:#cccccc;fill-opacity:1;fill-rule:nonzero;stroke:none;stroke-width:0.0352777" />
    <path
       id="path7-6-9"
       d="m 132.82894,100.80424 c 0,-0.0812 -0.0659,-0.1469 -0.14703,-0.1469 -0.0812,0 -0.1469,0.0657 -0.1469,0.1469 0,0.0811 0.0657,0.14704 0.1469,0.14704 0.0812,0 0.14703,-0.0659 0.14703,-0.14704"
       style="fill:#cccccc;fill-opacity:1;fill-rule:nonzero;stroke:none;stroke-width:0.0352777" />
    <path
       id="path8-1-2"
       d="m 127.28497,101.67571 c 0,-0.0812 -0.0659,-0.14704 -0.14704,-0.14704 -0.0812,0 -0.1469,0.0659 -0.1469,0.14704 0,0.0812 0.0657,0.14703 0.1469,0.14703 0.0812,0 0.14704,-0.0659 0.14704,-0.14703"
       style="fill:#cccccc;fill-opacity:1;fill-rule:nonzero;stroke:none;stroke-width:0.0352777" />
    <path
       id="path9-0-6"
       d="m 128.293,101.85693 c 0,-0.0812 -0.0659,-0.14704 -0.14704,-0.14704 -0.0812,0 -0.14703,0.0659 -0.14703,0.14704 0,0.0811 0.0659,0.14689 0.14703,0.14689 0.0812,0 0.14704,-0.0658 0.14704,-0.14689"
       style="fill:#cccccc;fill-opacity:1;fill-rule:nonzero;stroke:none;stroke-width:0.0352777" />
    <path
       id="path10-6-6"
       d="m 129.30104,101.95281 c 0,-0.0811 -0.0659,-0.14704 -0.14704,-0.14704 -0.0812,0 -0.14704,0.0659 -0.14704,0.14704 0,0.0812 0.0659,0.14704 0.14704,0.14704 0.0812,0 0.14704,-0.0659 0.14704,-0.14704"
       style="fill:#cccccc;fill-opacity:1;fill-rule:nonzero;stroke:none;stroke-width:0.0352777" />
    <path
       id="path11-3-4"
       d="m 130.30895,101.98315 c 0,-0.0812 -0.0658,-0.14704 -0.1469,-0.14704 -0.0812,0 -0.14704,0.0659 -0.14704,0.14704 0,0.0811 0.0659,0.14704 0.14704,0.14704 0.0811,0 0.1469,-0.0659 0.1469,-0.14704"
       style="fill:#cccccc;fill-opacity:1;fill-rule:nonzero;stroke:none;stroke-width:0.0352777" />
    <path
       id="path12-2-9"
       d="m 131.31697,101.95281 c 0,-0.0811 -0.0659,-0.14704 -0.14703,-0.14704 -0.0812,0 -0.1469,0.0659 -0.1469,0.14704 0,0.0812 0.0657,0.14704 0.1469,0.14704 0.0812,0 0.14703,-0.0659 0.14703,-0.14704"
       style="fill:#cccccc;fill-opacity:1;fill-rule:nonzero;stroke:none;stroke-width:0.0352777" />
    <path
       id="path13-0-5"
       d="m 132.325,101.85693 c 0,-0.0812 -0.0659,-0.14704 -0.14704,-0.14704 -0.0812,0 -0.14703,0.0659 -0.14703,0.14704 0,0.0811 0.0659,0.14689 0.14703,0.14689 0.0812,0 0.14704,-0.0658 0.14704,-0.14689"
       style="fill:#cccccc;fill-opacity:1;fill-rule:nonzero;stroke:none;stroke-width:0.0352777" />
    <path
       id="path14-6-0"
       d="m 133.33303,101.67571 c 0,-0.0812 -0.0659,-0.14704 -0.14704,-0.14704 -0.0811,0 -0.14704,0.0659 -0.14704,0.14704 0,0.0812 0.0659,0.14703 0.14704,0.14703 0.0812,0 0.14704,-0.0659 0.14704,-0.14703"
       style="fill:#cccccc;fill-opacity:1;fill-rule:nonzero;stroke:none;stroke-width:0.0352777" />
    <path
       id="path15-1-4"
       d="m 127.78905,102.70289 c 0,-0.0812 -0.0659,-0.14704 -0.14703,-0.14704 -0.0812,0 -0.14704,0.0659 -0.14704,0.14704 0,0.0812 0.0659,0.14704 0.14704,0.14704 0.0812,0 0.14703,-0.0659 0.14703,-0.14704"
       style="fill:#cccccc;fill-opacity:1;fill-rule:nonzero;stroke:none;stroke-width:0.0352777" />
    <path
       id="path16-5-8"
       d="m 128.79695,102.92352 c 0,-0.0812 -0.0657,-0.14704 -0.1469,-0.14704 -0.0812,0 -0.14704,0.0659 -0.14704,0.14704 0,0.0812 0.0659,0.14703 0.14704,0.14703 0.0812,0 0.1469,-0.0659 0.1469,-0.14703"
       style="fill:#cccccc;fill-opacity:1;fill-rule:nonzero;stroke:none;stroke-width:0.0352777" />
    <path
       id="path17-5-7"
       d="m 129.80499,103.02134 c 0,-0.0811 -0.0659,-0.14704 -0.14704,-0.14704 -0.0812,0 -0.14704,0.0659 -0.14704,0.14704 0,0.0812 0.0659,0.14704 0.14704,0.14704 0.0812,0 0.14704,-0.0659 0.14704,-0.14704"
       style="fill:#cccccc;fill-opacity:1;fill-rule:nonzero;stroke:none;stroke-width:0.0352777" />
    <path
       id="path17-5-7-7"
       d="m 130.85621,103.0561 c 0,-0.0811 -0.0659,-0.14704 -0.14704,-0.14704 -0.0812,0 -0.14704,0.0659 -0.14704,0.14704 0,0.0812 0.0659,0.14704 0.14704,0.14704 0.0812,0 0.14704,-0.0659 0.14704,-0.14704"
       style="fill:#cccccc;fill-opacity:1;fill-rule:nonzero;stroke:none;stroke-width:0.0352777" />
    <path
       id="path19-7-1"
       d="m 131.82106,102.92352 c 0,-0.0812 -0.0659,-0.14704 -0.14704,-0.14704 -0.0812,0 -0.14704,0.0659 -0.14704,0.14704 0,0.0812 0.0659,0.14703 0.14704,0.14703 0.0812,0 0.14704,-0.0659 0.14704,-0.14703"
       style="fill:#cccccc;fill-opacity:1;fill-rule:nonzero;stroke:none;stroke-width:0.0352777" />
    <path
       id="path20-6-7"
       d="m 132.82894,102.70289 c 0,-0.0812 -0.0659,-0.14704 -0.14703,-0.14704 -0.0812,0 -0.1469,0.0659 -0.1469,0.14704 0,0.0812 0.0657,0.14704 0.1469,0.14704 0.0812,0 0.14703,-0.0659 0.14703,-0.14704"
       style="fill:#cccccc;fill-opacity:1;fill-rule:nonzero;stroke:none;stroke-width:0.0352777" />
    <path
       id="path21-5-2"
       d="m 128.293,103.74718 c 0,-0.0812 -0.0659,-0.14704 -0.14704,-0.14704 -0.0812,0 -0.14703,0.0659 -0.14703,0.14704 0,0.0811 0.0659,0.14703 0.14703,0.14703 0.0812,0 0.14704,-0.0659 0.14704,-0.14703"
       style="fill:#cccccc;fill-opacity:1;fill-rule:nonzero;stroke:none;stroke-width:0.0352777" />
    <path
       id="path22-6-7"
       d="m 129.30104,104.00582 c 0,-0.0812 -0.0659,-0.14703 -0.14704,-0.14703 -0.0812,0 -0.14704,0.0659 -0.14704,0.14703 0,0.0812 0.0659,0.1469 0.14704,0.1469 0.0812,0 0.14704,-0.0657 0.14704,-0.1469"
       style="fill:#cccccc;fill-opacity:1;fill-rule:nonzero;stroke:none;stroke-width:0.0352777" />
    <path
       id="path23-9-2"
       d="m 130.30895,104.08313 c 0,-0.0812 -0.0658,-0.14703 -0.1469,-0.14703 -0.0812,0 -0.14704,0.0659 -0.14704,0.14703 0,0.0812 0.0659,0.14704 0.14704,0.14704 0.0811,0 0.1469,-0.0659 0.1469,-0.14704"
       style="fill:#cccccc;fill-opacity:1;fill-rule:nonzero;stroke:none;stroke-width:0.0352777" />
    <path
       id="path24-3-2"
       d="m 131.31697,104.00582 c 0,-0.0812 -0.0659,-0.14703 -0.14703,-0.14703 -0.0812,0 -0.1469,0.0659 -0.1469,0.14703 0,0.0812 0.0657,0.1469 0.1469,0.1469 0.0812,0 0.14703,-0.0657 0.14703,-0.1469"
       style="fill:#cccccc;fill-opacity:1;fill-rule:nonzero;stroke:none;stroke-width:0.0352777" />
    <path
       id="path25-7-6"
       d="m 132.325,103.74718 c 0,-0.0812 -0.0659,-0.14704 -0.14704,-0.14704 -0.0812,0 -0.14703,0.0659 -0.14703,0.14704 0,0.0811 0.0659,0.14703 0.14703,0.14703 0.0812,0 0.14704,-0.0659 0.14704,-0.14703"
       style="fill:#cccccc;fill-opacity:1;fill-rule:nonzero;stroke:none;stroke-width:0.0352777" />
    <path
       id="path26-4-1"
       d="m 128.79695,104.8168 c 0,-0.0812 -0.0657,-0.14704 -0.1469,-0.14704 -0.0812,0 -0.14704,0.0659 -0.14704,0.14704 0,0.0812 0.0659,0.14704 0.14704,0.14704 0.0812,0 0.1469,-0.0659 0.1469,-0.14704"
       style="fill:#cccccc;fill-opacity:1;fill-rule:nonzero;stroke:none;stroke-width:0.0352777" />
    <path
       id="path27-5-0"
       d="m 129.80499,105.10068 c 0,-0.0812 -0.0659,-0.14704 -0.14704,-0.14704 -0.0812,0 -0.14704,0.0659 -0.14704,0.14704 0,0.0812 0.0659,0.14703 0.14704,0.14703 0.0812,0 0.14704,-0.0659 0.14704,-0.14703"
       style="fill:#cccccc;fill-opacity:1;fill-rule:nonzero;stroke:none;stroke-width:0.0352777" />
    <path
       id="path28-2-6"
       d="m 130.81303,105.10068 c 0,-0.0812 -0.0659,-0.14704 -0.14704,-0.14704 -0.0812,0 -0.14703,0.0659 -0.14703,0.14704 0,0.0812 0.0659,0.14703 0.14703,0.14703 0.0812,0 0.14704,-0.0659 0.14704,-0.14703"
       style="fill:#cccccc;fill-opacity:1;fill-rule:nonzero;stroke:none;stroke-width:0.0352777" />
    <path
       id="path29-5-1"
       d="m 131.82106,104.8168 c 0,-0.0812 -0.0659,-0.14704 -0.14704,-0.14704 -0.0812,0 -0.14704,0.0659 -0.14704,0.14704 0,0.0812 0.0659,0.14704 0.14704,0.14704 0.0812,0 0.14704,-0.0659 0.14704,-0.14704"
       style="fill:#cccccc;fill-opacity:1;fill-rule:nonzero;stroke:none;stroke-width:0.0352777" />
    <path
       id="path30-4-5"
       d="m 129.30104,105.92543 c 0,-0.0812 -0.0659,-0.14704 -0.14704,-0.14704 -0.0812,0 -0.14704,0.0659 -0.14704,0.14704 0,0.0812 0.0659,0.14704 0.14704,0.14704 0.0812,0 0.14704,-0.0659 0.14704,-0.14704"
       style="fill:#cccccc;fill-opacity:1;fill-rule:nonzero;stroke:none;stroke-width:0.0352777" />
    <path
       id="path31-7-9"
       d="m 130.30895,106.18313 c 0,-0.0812 -0.0658,-0.14704 -0.1469,-0.14704 -0.0812,0 -0.14704,0.0659 -0.14704,0.14704 0,0.0812 0.0659,0.14703 0.14704,0.14703 0.0811,0 0.1469,-0.0659 0.1469,-0.14703"
       style="fill:#cccccc;fill-opacity:1;fill-rule:nonzero;stroke:none;stroke-width:0.0352777" />
    <path
       id="path32-4-4"
       d="m 131.31697,105.92543 c 0,-0.0812 -0.0659,-0.14704 -0.14703,-0.14704 -0.0812,0 -0.1469,0.0659 -0.1469,0.14704 0,0.0812 0.0657,0.14704 0.1469,0.14704 0.0812,0 0.14703,-0.0659 0.14703,-0.14704"
       style="fill:#cccccc;fill-opacity:1;fill-rule:nonzero;stroke:none;stroke-width:0.0352777" />
    <path
       id="path33-4-9"
       d="m 130.16205,100.09314 c 0,0 0.2038,-1.542128 0,-2.309984 -0.14954,-0.562786 -0.84007,-1.469955 -0.84007,-1.469955"
       style="fill:none;stroke:#000000;stroke-width:0.351459;stroke-linecap:round;stroke-linejoin:round;stroke-miterlimit:10;stroke-dasharray:none;stroke-opacity:1" />
    <path
       id="path34-3-0"
       d="m 127.64202,99.043102 c 0.84005,-0.210009 1.25994,1.050038 2.31,0.630025 v 0 c -0.42002,-1.679962 -2.09999,-1.049937 -2.31,-0.630025"
       style="fill:#000000;fill-opacity:1;fill-rule:nonzero;stroke:#cccccc;stroke-width:0.0351896;stroke-linecap:round;stroke-linejoin:round;stroke-miterlimit:10;stroke-dasharray:none;stroke-opacity:1" />
    <path
       id="path35-0-9"
       d="m 133.10196,99.463119 c -0.83993,-0.210009 -1.68,0.630021 -2.7299,0.210008 v 0 c 0.41988,-1.679962 2.51985,-0.630025 2.7299,-0.210008"
       style="fill:#000000;fill-opacity:1;fill-rule:nonzero;stroke:#cccccc;stroke-width:0.0351896;stroke-dasharray:none;stroke-opacity:1" />
    <path
       id="path37-8-7"
       d="m 129.532,99.883136 c 0.42002,0.210004 0.84006,0.210004 1.46994,0 v 0 c -0.62988,-1.469954 -1.46994,-1.050043 -1.88997,-1.679963 v 0 c -0.42002,0.210009 0.84005,1.049937 0.42003,1.679963"
       style="fill:#000000;fill-opacity:1;fill-rule:nonzero;stroke:#cccccc;stroke-width:0.0352777;stroke-opacity:1" />
    <path
       id="path1-5-2"
       d="m 150.51838,105.98342 -0.21001,0.0841 0.12595,0.29394 0.29393,-0.042 v 0 c 7.56005,-0.16799 7.14003,-8.567956 3.7801,-8.777964 v 0 l -0.63002,-0.839929 -0.42005,0.420052 0.63005,0.839894 v 0 c 0.8399,2.730037 -0.63005,4.410007 -1.26008,5.040027 v 0 c -1.25994,1.25996 -1.88998,1.30199 -2.30987,2.98195"
       style="fill:#000000;fill-opacity:1;fill-rule:nonzero;stroke:none;stroke-width:0.0352777" />
    <path
       id="path2-6-9"
       d="m 151.27437,105.64745 c 1.9739,-0.75599 6.17389,-4.74596 3.44399,-7.475999"
       style="fill:none;stroke:#cccccc;stroke-width:0.105438;stroke-linecap:round;stroke-linejoin:round;stroke-miterlimit:10;stroke-dasharray:none;stroke-opacity:1" />
  </g>
</svg>
