<?xml version="1.0" encoding="UTF-8" standalone="no"?>
<!-- Created with Inkscape (http://www.inkscape.org/) -->

<svg
   version="1.1"
   id="svg1"
   width="125.33333"
   height="117.33333"
   viewBox="0 0 125.33333 117.33333"
   sodipodi:docname="S09-1.svg"
   inkscape:version="1.3.1 (9b9bdc1480, 2023-11-25, custom)"
   xmlns:inkscape="http://www.inkscape.org/namespaces/inkscape"
   xmlns:sodipodi="http://sodipodi.sourceforge.net/DTD/sodipodi-0.dtd"
   xmlns="http://www.w3.org/2000/svg"
   xmlns:svg="http://www.w3.org/2000/svg">
  <defs
     id="defs1">
    <clipPath
       clipPathUnits="userSpaceOnUse"
       id="clipPath2">
      <path
         d="M 0,0 H 94 V 88 H 0 Z"
         transform="scale(1.0007335,-1)"
         id="path2" />
    </clipPath>
    <clipPath
       clipPathUnits="userSpaceOnUse"
       id="clipPath5">
      <path
         d="M 0,0 H 94 V 88 H 0 Z"
         transform="scale(1.0007335,-1)"
         id="path5" />
    </clipPath>
    <clipPath
       clipPathUnits="userSpaceOnUse"
       id="clipPath7">
      <path
         d="m 65.75,81.203 c 8.57,-0.969 18.98,-0.137 24.066,-6.883 3.496,-4.632 4.055,-13.148 0,-17.203 -2.023,-2.027 -6.566,2.028 -8.593,0 -2.028,-2.027 -1.125,-5.879 0,-8.601 1.593,-3.848 7.004,-4.754 8.593,-8.602 3.379,-8.164 6.079,-19.723 0,-25.805 -17.828,-17.843 -57.808,-17.843 -75.636,0 -8.106,8.11 2.297,22.782 0,34.407 C 12.066,59.203 -3.367,69.023 2.145,77.762 13.254,95.371 43.938,83.66 65.75,81.203 Z"
         transform="scale(1.3333333)"
         id="path7" />
    </clipPath>
    <clipPath
       clipPathUnits="userSpaceOnUse"
       id="clipPath9">
      <g
         id="g10"
         transform="scale(0.75055015,-0.75000002)">
        <path
           d="m 87.666664,108.27066 c 11.426667,-1.292 25.306666,-0.18266 32.087996,-9.177329 4.66134,-6.176 5.40667,-17.530666 0,-22.937333 -2.69733,-2.702667 -8.75466,2.704 -11.45733,0 -2.704,-2.702667 -1.5,-7.838666 0,-11.468 2.124,-5.130666 9.33867,-6.338666 11.45733,-11.469333 4.50534,-10.885333 8.10534,-26.297332 0,-34.406665 -23.770662,-23.7906665 -77.077328,-23.7906665 -100.847994,0 -10.8079995,10.813333 3.062667,30.375999 0,45.875998 C 16.088,78.937331 -4.4893332,92.030664 2.8599999,103.68266 c 14.8120001,23.47867 55.7239991,7.864 84.8066641,4.588 z"
           id="path10"
           style="stroke-width:1.33333" />
      </g>
    </clipPath>
  </defs>
  <sodipodi:namedview
     id="namedview1"
     pagecolor="#ffffff"
     bordercolor="#000000"
     borderopacity="0.25"
     inkscape:showpageshadow="2"
     inkscape:pageopacity="0.0"
     inkscape:pagecheckerboard="0"
     inkscape:deskcolor="#d1d1d1"
     inkscape:zoom="4.9468088"
     inkscape:cx="62.666663"
     inkscape:cy="58.623653"
     inkscape:window-width="1464"
     inkscape:window-height="800"
     inkscape:window-x="72"
     inkscape:window-y="27"
     inkscape:window-maximized="1"
     inkscape:current-layer="g1">
    <inkscape:page
       x="0"
       y="0"
       id="page1"
       width="125.33333"
       height="117.33333"
       margin="0"
       bleed="0" />
  </sodipodi:namedview>
  <g
     id="g1"
     inkscape:groupmode="layer"
     inkscape:label="">
    <path
       id="path1"
       d="m 65.798,-81.203 c 8.577,0.969 18.995,0.137 24.084,6.883 3.499,4.632 4.058,13.148 0,17.203 -2.025,2.027 -6.571,-2.028 -8.6,0 -2.029,2.027 -1.126,5.879 0,8.601 1.595,3.848 7.009,4.754 8.6,8.602 3.382,8.164 6.083,19.723 0,25.805 -17.841,17.843 -57.851,17.843 -75.692,0 -8.111,-8.11 2.299,-22.782 0,-34.407 C 12.075,-59.203 -3.37,-69.023 2.146,-77.762 13.264,-95.371 43.97,-83.66 65.798,-81.203"
       style="fill:#f2f2f2;fill-opacity:1;fill-rule:nonzero;stroke:#000000;stroke-width:0.503858;stroke-linecap:butt;stroke-linejoin:round;stroke-miterlimit:10;stroke-dasharray:none;stroke-opacity:1"
       transform="scale(1.332356,-1.3333333)" />
    <path
       d="m 57.198,-91.523 c 0,0 4.746,19.46 0,27.523 -3.053,5.191 -12.274,3.496 -15.484,8.602 -5.308,8.449 -6.063,20.269 -1.72,29.246 3.116,6.437 13.897,5.691 17.204,12.043 2.709,5.203 0,17.203 0,17.203"
       style="fill:none;stroke:#000000;stroke-width:1.0064;stroke-linecap:butt;stroke-linejoin:round;stroke-miterlimit:10;stroke-dasharray:3.01919996,3.01919996;stroke-dashoffset:0;stroke-opacity:1"
       transform="scale(1.332356,-1.3333333)"
       clip-path="url(#clipPath9)"
       id="path3" />
    <g
       id="g6"
       clip-path="url(#clipPath7)">
      <path
         d="m 39.994,-91.523 c 0,0 -4.3,17.128 0,24.085 3.432,5.555 13.772,3.043 17.204,8.602 6.141,9.938 6.532,24.758 0,34.406 -3.518,5.196 -13.686,1.684 -17.204,6.879 -3.921,5.789 0,20.645 0,20.645"
         style="fill:none;stroke:#000000;stroke-width:1.00771;stroke-linecap:butt;stroke-linejoin:round;stroke-miterlimit:10;stroke-dasharray:none;stroke-opacity:1"
         transform="scale(1.332356,-1.3333333)"
         clip-path="url(#clipPath5)"
         id="path6" />
    </g>
    <path
       id="path8"
       d="m 65.798,-81.203 c 8.577,0.969 18.995,0.137 24.084,6.883 3.499,4.632 4.058,13.148 0,17.203 -2.025,2.027 -6.571,-2.028 -8.6,0 -2.029,2.027 -1.126,5.879 0,8.601 1.595,3.848 7.009,4.754 8.6,8.602 3.382,8.164 6.083,19.723 0,25.805 -17.841,17.843 -57.851,17.843 -75.692,0 -8.111,-8.11 2.299,-22.782 0,-34.407 C 12.075,-59.203 -3.37,-69.023 2.146,-77.762 13.264,-95.371 43.97,-83.66 65.798,-81.203 Z"
       style="fill:none;stroke:#000000;stroke-width:0.503858;stroke-linecap:butt;stroke-linejoin:round;stroke-miterlimit:10;stroke-dasharray:none;stroke-opacity:1"
       transform="scale(1.332356,-1.3333333)" />
    <path
       id="path9"
       d="m 46.121,13.457 c -0.414,0.711 -0.828,0.949 -1.41,0.984 -0.129,0.012 -0.227,0.012 -0.227,0.235 0,0.074 0.063,0.121 0.145,0.121 0.211,0 0.758,-0.024 0.98,-0.024 0.344,0 0.735,0.024 1.067,0.024 0.074,0 0.226,0 0.226,-0.227 0,-0.117 -0.093,-0.129 -0.179,-0.129 -0.27,-0.023 -0.496,-0.121 -0.496,-0.402 0,-0.18 0.07,-0.309 0.226,-0.57 l 0.91,-1.531 h 3.094 c 0.012,0.109 0.012,0.214 0.023,0.32 0.036,0.308 0.176,1.566 0.176,1.804 0,0.356 -0.613,0.379 -0.804,0.379 -0.141,0 -0.274,0 -0.274,0.223 0,0.133 0.11,0.133 0.18,0.133 0.211,0 0.449,-0.024 0.664,-0.024 h 0.683 c 0.735,0 1.27,0.024 1.282,0.024 0.082,0 0.211,0 0.211,-0.227 0,-0.129 -0.106,-0.129 -0.282,-0.129 -0.664,0 -0.675,-0.109 -0.722,-0.464 L 50.859,6.426 c -0.023,-0.235 -0.07,-0.258 -0.203,-0.258 -0.117,0 -0.187,0.023 -0.308,0.199 z m 1.457,-1.863 2.426,-4.063 0.418,4.063 z m 0.551,25.015 c 0.117,-0.449 0.164,-0.472 0.629,-0.472 h 1.574 c 1.363,0 1.363,1.16 1.363,1.265 0,0.985 -0.972,2.231 -2.57,2.231 h -1.742 z m 2.047,3.118 c 1.316,-0.25 2.512,-1.161 2.512,-2.278 0,-0.933 -0.84,-1.668 -2.204,-1.668 h -3.871 c -0.238,0 -0.343,0 -0.343,0.235 0,0.121 0.105,0.121 0.296,0.121 0.735,0 0.735,0.093 0.735,0.222 0,0.024 0,0.098 -0.051,0.286 l -1.633,6.507 c -0.105,0.414 -0.129,0.536 -0.972,0.536 -0.235,0 -0.356,0 -0.356,0.222 0,0.133 0.074,0.133 0.309,0.133 h 4.144 c 1.852,0 3.281,-1.398 3.281,-2.621 0,-0.996 -0.875,-1.602 -1.847,-1.695 z m -1.715,3.961 h -1.637 c -0.164,0 -0.187,0 -0.258,-0.012 -0.132,-0.012 -0.156,-0.039 -0.156,-0.133 0,-0.082 0.035,-0.152 0.059,-0.262 l 0.843,-3.414 h 2.274 c 1.422,0 1.422,1.328 1.422,1.426 0,1.16 -1.055,2.395 -2.547,2.395 z m 4.516,24.636 c 0,-0.109 -0.082,-0.109 -0.11,-0.109 -0.023,0 -0.07,0 -0.176,0.121 l -0.828,1.019 c -0.425,-0.722 -1.09,-1.14 -1.992,-1.14 -2.617,0 -5.316,2.644 -5.316,5.488 0,2.016 1.41,3.274 3.172,3.274 0.972,0 1.812,-0.403 2.511,-0.997 1.055,-0.89 1.375,-2.062 1.375,-2.156 0,-0.109 -0.093,-0.109 -0.14,-0.109 -0.11,0 -0.121,0.074 -0.145,0.121 -0.555,1.883 -2.18,2.797 -3.387,2.797 -1.289,0 -2.39,-0.828 -2.39,-2.535 0,-0.395 0.117,-2.493 1.48,-4.078 0.66,-0.774 1.797,-1.461 2.949,-1.461 1.325,0 1.918,1.105 1.918,2.336 0,0.32 -0.035,0.582 -0.035,0.628 0,0.118 0.117,0.118 0.153,0.118 0.144,0 0.156,-0.012 0.203,-0.235 z"
       style="fill:#000000;fill-opacity:1;fill-rule:nonzero;stroke:none"
       transform="scale(1.3333333)" />
  </g>
</svg>
