<?xml version="1.0" encoding="UTF-8" standalone="no"?>
<!-- Created with Inkscape (http://www.inkscape.org/) -->

<svg
   width="29.454311mm"
   height="30.716562mm"
   viewBox="0 0 29.454312 30.716562"
   version="1.1"
   id="svg1"
   inkscape:version="1.3.1 (9b9bdc1480, 2023-11-25, custom)"
   sodipodi:docname="P08-3.svg"
   xmlns:inkscape="http://www.inkscape.org/namespaces/inkscape"
   xmlns:sodipodi="http://sodipodi.sourceforge.net/DTD/sodipodi-0.dtd"
   xmlns="http://www.w3.org/2000/svg"
   xmlns:svg="http://www.w3.org/2000/svg">
  <sodipodi:namedview
     id="namedview1"
     pagecolor="#ffffff"
     bordercolor="#000000"
     borderopacity="0.25"
     inkscape:showpageshadow="2"
     inkscape:pageopacity="0.0"
     inkscape:pagecheckerboard="0"
     inkscape:deskcolor="#d1d1d1"
     inkscape:document-units="mm"
     inkscape:zoom="5.3749505"
     inkscape:cx="55.62842"
     inkscape:cy="58.047046"
     inkscape:window-width="1464"
     inkscape:window-height="800"
     inkscape:window-x="72"
     inkscape:window-y="27"
     inkscape:window-maximized="1"
     inkscape:current-layer="layer1" />
  <defs
     id="defs1" />
  <g
     inkscape:label="Layer 1"
     inkscape:groupmode="layer"
     id="layer1"
     transform="translate(-110.64187,-94.45625)">
    <g
       id="g1">
      <path
         style="fill:#c9b29b;stroke-width:0.264583"
         d="m 135.09065,98.296876 c 0.51711,-0.815403 1.0787,-2.521533 0.98532,-2.99345 -0.11008,-0.556315 -0.14331,-0.619532 -0.39372,-0.749021 -0.38921,-0.201272 -0.85226,-0.108157 -2.09275,0.420838 -0.58671,0.250196 -1.1239,0.472724 -1.19375,0.494507 -0.0824,0.02569 -5.3e-4,0.104495 0.23335,0.224287 0.50821,0.260464 1.47022,1.194075 1.73872,1.687395 0.12454,0.22882 0.27904,0.621575 0.34333,0.872788 l 0.11689,0.456752 z"
         id="path91" />
      <path
         style="fill:#c9b29b;stroke-width:0.264583"
         d="m 134.96136,113.55718 0.5399,0.22333 -0.53004,-1.87267 c -0.38459,-1.35879 -0.76546,-2.24949 -1.67493,-4.02929 -0.0904,-0.17681 -0.0919,-0.17687 -0.36673,-0.0147 -0.29774,0.17567 -0.60398,0.74718 -0.84544,1.57778 -0.29574,1.0173 -0.43607,2.90214 0.24356,3.56218 0.5423,0.52668 2.24473,1.5174 2.42521,0.90973 z"
         id="path70"
         sodipodi:nodetypes="ccssssssc" />
      <path
         style="fill:#c9b29b;stroke-width:0.264583"
         d="m 126.88209,120.44263 c 0.32957,-0.0956 1.00807,-0.7854 1.29226,-1.34623 0.42828,-0.84516 0.79756,-1.77448 0.80084,-3.0226 0.003,-0.96674 -0.18164,-1.58163 -0.34927,-2.11871 -0.42199,-1.35202 -1.8707,-2.02238 -2.90586,-2.56353 -0.88424,-0.46226 -0.81955,-0.48655 -1.20872,0.45396 -0.44473,1.0748 -0.59838,1.62029 -0.69501,2.46754 -0.26484,2.32213 0.7504,5.65981 1.92313,6.14981 0.32378,0.13529 0.77699,0.0858 1.14263,-0.0202 z"
         id="path53"
         sodipodi:nodetypes="sscssssss" />
      <path
         id="path3"
         style="fill:#a4693a;stroke-width:0.264583"
         d="m 128.80115,121.6112 h 2.21071 c -0.23448,0.17535 -0.39001,0.4414 -0.40204,0.88005 -0.6851,1.6033 -2.32604,2.78056 -4.10259,2.66547 -0.77401,0.0247 -1.55943,0.0393 -2.32441,-0.0992 -2.31171,-0.47228 -4.06158,-2.50272 -4.38061,-4.80694 -0.19175,-1.68796 0.67973,-3.26414 1.22163,-4.81676 0.99455,-2.03962 2.01265,-4.35722 1.23094,-6.6492 -0.69534,-2.71052 -3.99831,-3.62292 -6.43682,-2.94504 -2.16087,0.48993 -4.12646,2.72492 -3.33003,5.01571 0.33107,1.55782 1.94519,2.68405 3.5202,2.23552 1.53645,0.0573 3.18108,-1.37288 2.06344,-2.90318 -0.82419,-1.54372 -2.54431,-0.19584 -3.61012,-0.6196 -0.99973,-2.06762 2.23809,-2.44122 3.49333,-1.64589 1.67276,0.50889 2.38798,2.35568 2.14044,3.9672 -0.25928,1.55872 -1.96442,2.19589 -3.26905,2.67477 -2.00369,0.4363 -4.50956,-0.0329 -5.54489,-1.9973 -1.10666,-1.82128 -0.64472,-4.2 0.38189,-5.95002 1.61788,-2.09672 4.45446,-3.09744 7.04919,-2.66909 2.25466,0.23722 4.42044,1.67851 5.12526,3.89847 0.87085,2.60023 0.14287,5.4208 -1.02422,7.80831 -0.59654,1.72783 -1.79936,3.5874 -0.99322,5.43946 1.05198,2.27037 4.18822,3.03745 6.29987,1.85622 0.59219,-0.41172 0.8562,-0.96872 0.6811,-1.33894 z" />
      <path
         id="path1"
         style="fill:#a4693a;stroke-width:0.264583"
         d="m 124.13817,94.896533 c -0.2948,-0.01172 -0.59063,0.02128 -0.8847,0.116789 -0.74761,1.305112 0.8307,2.558029 0.91622,3.881934 0.44636,1.199744 -0.51027,0.899305 -1.40973,0.779797 -0.65358,-0.322695 -3.05668,0.334567 -2.62,0.696597 1.49017,0.0233 3.00496,-0.12499 4.47311,0.16847 -0.80105,0.35767 -2.82844,-0.1839 -3.97288,0.53588 -0.64932,0.0451 -2.15895,1.56917 -0.69453,0.83561 1.47385,-0.60164 3.16111,-0.8285 4.73252,-0.60772 -0.23051,0.64963 -2.31174,0.10642 -3.02875,0.99994 -0.87682,0.24575 -1.36426,2.41501 -0.18965,1.01751 1.13155,-0.86397 2.72045,-1.45351 4.10672,-1.18391 0.76981,0.91538 3.42494,0.77295 2.12752,2.39366 -0.93437,2.16725 -1.87492,4.33235 -2.77192,6.51536 1.50697,0.64927 2.78789,1.89216 3.13624,3.54449 0.40642,1.89551 0.17558,4.16967 -1.24489,5.59707 -0.46131,0.41285 -1.65074,0.0934 -0.49764,0.62787 0.68743,0.52999 1.86642,0.34542 2.48254,0.80615 h 2.21071 c 0.12385,-0.26185 0.46556,-0.43089 1.07436,-0.38602 2.04982,-0.51698 3.75643,-2.41911 3.63027,-4.59868 -0.17883,-1.31181 0.39264,-4.08021 -1.66398,-3.49178 -1.83627,-0.2246 -2.24685,-2.27393 -1.89705,-3.77962 0.10907,-0.59506 0.58842,-1.10121 1.03198,-1.67328 -0.19422,-0.60059 -0.13528,-0.44509 -0.52348,-1.24902 -0.42758,-0.88546 -2.10152,-2.79209 -0.71882,-3.23081 1.46124,-0.16381 2.4216,-1.84842 4.00027,-0.95188 1.09241,0.0529 2.19748,1.30715 2.94453,1.3224 -0.58505,-1.72178 -2.67196,-1.8007 -4.13877,-2.30942 1.74767,-0.0961 3.56812,0.0674 5.16816,0.84491 0.78502,-0.14786 -1.22399,-1.33316 -1.77457,-1.36012 -0.83039,-0.53726 -2.67891,0.27977 -2.97966,-0.19896 1.27647,-0.77951 3.42165,0.11328 4.31188,-0.31109 -1.17682,-0.947103 -3.07538,-0.2905 -4.24574,-0.407209 0.21647,-1.666783 -0.75269,-3.220017 -2.16575,-4.042647 -1.86869,-1.346931 -4.3486,-0.812893 -6.35569,-0.08733 -0.80721,-0.34418 -1.68444,-0.779786 -2.56883,-0.814938 z" />
    </g>
  </g>
</svg>
