<?xml version="1.0" encoding="UTF-8" standalone="no"?>
<!-- Created with Inkscape (http://www.inkscape.org/) -->

<svg
   xmlns:dc="http://purl.org/dc/elements/1.1/"
   xmlns:cc="http://creativecommons.org/ns#"
   xmlns:rdf="http://www.w3.org/1999/02/22-rdf-syntax-ns#"
   xmlns:svg="http://www.w3.org/2000/svg"
   xmlns="http://www.w3.org/2000/svg"
   xmlns:sodipodi="http://sodipodi.sourceforge.net/DTD/sodipodi-0.dtd"
   xmlns:inkscape="http://www.inkscape.org/namespaces/inkscape"
   id="svg2"
   version="1.1"
   inkscape:version="0.48.5 r10040"
   width="150.25869"
   height="150.25869"
   xml:space="preserve"
   sodipodi:docname="kengurazenkle.pdf"><metadata
     id="metadata8"><rdf:RDF><cc:Work
         rdf:about=""><dc:format>image/svg+xml</dc:format><dc:type
           rdf:resource="http://purl.org/dc/dcmitype/StillImage" /><dc:title></dc:title></cc:Work></rdf:RDF></metadata><defs
     id="defs6" /><sodipodi:namedview
     pagecolor="#ffffff"
     bordercolor="#666666"
     borderopacity="1"
     objecttolerance="10"
     gridtolerance="10"
     guidetolerance="10"
     inkscape:pageopacity="0"
     inkscape:pageshadow="2"
     inkscape:window-width="1920"
     inkscape:window-height="1029"
     id="namedview4"
     showgrid="false"
     inkscape:zoom="3.1412491"
     inkscape:cx="61.46147"
     inkscape:cy="101.70563"
     inkscape:window-x="0"
     inkscape:window-y="0"
     inkscape:window-maximized="1"
     inkscape:current-layer="g12" /><g
     id="g10"
     inkscape:groupmode="layer"
     inkscape:label="kengurazenkle"
     transform="matrix(1.25,0,0,-1.25,0,150.25869)"><g
       id="g12"><path
         d="m 96.93,27.336 c -0.207,0.047 -1.477,0.328 -2.821,0.629 -3.406,0.761 -4.91,1.039 -9.113,1.687 -10.223,1.574 -13.281,2.215 -15.332,3.199 -1.816,0.875 -2.391,1.426 -3.34,3.211 -1.012,1.907 -1.695,3.957 -2.945,8.817 -0.602,2.324 -1.231,4.609 -1.399,5.074 -0.402,1.102 -2.316,5.023 -2.773,5.68 -0.195,0.281 -1.09,0.906 -1.988,1.39 -3.199,1.723 -5.77,3.383 -7.367,4.766 -1.055,0.914 -2.067,1.91 -2.067,2.035 0,0.074 -0.191,0.344 -0.426,0.602 -0.23,0.258 -0.589,0.789 -0.797,1.179 -0.429,0.817 -0.734,0.825 -1.968,0.043 -0.953,-0.605 -3.153,-1.773 -6.035,-3.214 -3.926,-1.958 -6.786,-2.985 -11.149,-4.004 -1.281,-0.301 -5.879,-0.25 -7.625,0.082 -2.387,0.457 -5.558,1.472 -7.34,2.355 -1.98,0.981 -2.894,2.02 -4.332,4.922 -1.98,4 -2.347,5.762 -1.402,6.781 0.816,0.879 1.184,0.672 1.781,-1.004 0.774,-2.179 1.731,-3.734 3.391,-5.523 2.984,-3.207 7.566,-4.399 11.656,-3.027 2.695,0.898 7.852,3.781 9.492,5.3 0.207,0.192 0.797,0.668 1.317,1.059 1.543,1.164 9.019,8.191 10.504,9.871 1.507,1.699 7.925,6.922 9.98,8.117 1.902,1.106 2.203,1.246 3.852,1.781 1.429,0.465 1.878,0.52 4.23,0.528 4.274,0.012 6.898,-0.903 10.641,-3.696 1.898,-1.417 3.336,-2.843 6.84,-6.8 3.351,-3.782 6.566,-7.028 7.703,-7.774 0.664,-0.437 0.937,-0.496 2.351,-0.496 1.426,0 1.739,0.067 2.836,0.61 1.457,0.714 2.707,1.66 2.43,1.832 -0.11,0.066 -0.938,0.5 -1.84,0.968 -3.141,1.618 -4.203,2.61 -3.93,3.657 0.172,0.66 1.274,1.296 2.246,1.296 0.793,0 2.411,-0.66 3.207,-1.304 0.625,-0.508 3.196,-2.715 3.778,-3.242 0.304,-0.278 0.89,-0.563 1.297,-0.633 0.98,-0.164 1.832,-0.531 2.496,-1.074 0.746,-0.614 1.566,-1.09 3.64,-2.118 2.938,-1.461 4.696,-2.8 4.696,-3.586 0,-0.519 -0.77,-1.003 -2.528,-1.589 l -1.304,-0.438 -3.297,0.418 c -3.09,0.395 -3.371,0.402 -4.43,0.125 -1.758,-0.457 -3.457,-1.719 -6.711,-4.992 -3.406,-3.426 -4.609,-4.375 -6.187,-4.895 -1.649,-0.539 -2.067,-0.972 -5.895,-6.125 -1.703,-2.289 -3.152,-3.632 -4.726,-4.386 -1.247,-0.598 -2.883,-0.934 -2.883,-0.59 0,0.109 -0.149,0.246 -0.328,0.304 -0.496,0.161 -1.364,1.661 -1.364,2.356 0,0.672 0.879,1.676 1.524,1.73 0.906,0.082 1,0.047 1.105,-0.406 0.141,-0.59 0.817,-0.715 1.598,-0.293 0.699,0.379 2.078,2.41 2.555,3.774 0.488,1.382 0.468,2.757 -0.051,3.683 -0.227,0.403 -0.457,0.731 -0.516,0.731 -0.058,0 -0.527,0.379 -1.039,0.843 -0.519,0.473 -1.117,0.848 -1.351,0.848 -0.372,0 -1.692,-0.641 -1.946,-0.941 -0.051,-0.063 -0.39,-0.293 -0.75,-0.512 -1.797,-1.094 -2.601,-2.836 -2.758,-5.973 -0.058,-1.144 -0.007,-2.82 0.114,-3.758 0.121,-0.929 0.328,-2.789 0.461,-4.132 0.273,-2.75 0.625,-3.68 1.652,-4.364 1.32,-0.875 7.055,-2.972 13.121,-4.804 6.977,-2.102 8.012,-2.446 11.277,-3.742 2.477,-0.985 3.004,-1.313 3.004,-1.868 0,-0.578 -1.718,-1.195 -2.722,-0.98 z"
         style="fill:#020202;fill-opacity:1;fill-rule:nonzero;stroke:none"
         id="path14"
         inkscape:connector-curvature="0"
         sodipodi:nodetypes="ccccccccccscccccccccccccccscccccsccccscccccsccccccccscscccccscsccccccccsc" /></g></g></svg>