<?xml version="1.0" encoding="UTF-8" standalone="no"?>
<!-- Created with Inkscape (http://www.inkscape.org/) -->

<svg
   width="41.573803mm"
   height="36.1357mm"
   viewBox="0 0 41.573803 36.135701"
   version="1.1"
   id="svg2912"
   inkscape:version="1.3.1 (9b9bdc1480, 2023-11-25, custom)"
   sodipodi:docname="kengura_official.svg"
   xmlns:inkscape="http://www.inkscape.org/namespaces/inkscape"
   xmlns:sodipodi="http://sodipodi.sourceforge.net/DTD/sodipodi-0.dtd"
   xmlns="http://www.w3.org/2000/svg"
   xmlns:svg="http://www.w3.org/2000/svg"
   xmlns:rdf="http://www.w3.org/1999/02/22-rdf-syntax-ns#"
   xmlns:cc="http://creativecommons.org/ns#"
   xmlns:dc="http://purl.org/dc/elements/1.1/">
  <defs
     id="defs2906" />
  <sodipodi:namedview
     id="base"
     pagecolor="#ffffff"
     bordercolor="#666666"
     borderopacity="1.0"
     inkscape:pageopacity="0.0"
     inkscape:pageshadow="2"
     inkscape:zoom="1.979899"
     inkscape:cx="14.142136"
     inkscape:cy="18.182746"
     inkscape:document-units="mm"
     inkscape:current-layer="layer1"
     showgrid="false"
     inkscape:window-width="1848"
     inkscape:window-height="1016"
     inkscape:window-x="72"
     inkscape:window-y="27"
     inkscape:window-maximized="1"
     fit-margin-top="0"
     fit-margin-left="0"
     fit-margin-right="0"
     fit-margin-bottom="0"
     inkscape:showpageshadow="2"
     inkscape:pagecheckerboard="0"
     inkscape:deskcolor="#d1d1d1" />
  <metadata
     id="metadata2909">
    <rdf:RDF>
      <cc:Work
         rdf:about="">
        <dc:format>image/svg+xml</dc:format>
        <dc:type
           rdf:resource="http://purl.org/dc/dcmitype/StillImage" />
      </cc:Work>
    </rdf:RDF>
  </metadata>
  <g
     inkscape:label="Layer 1"
     inkscape:groupmode="layer"
     id="layer1"
     transform="translate(-18.522616,-99.015484)">
    <path
       inkscape:connector-curvature="0"
       id="path1695"
       style="fill:#686868;fill-opacity:1;fill-rule:nonzero;stroke:none;stroke-width:0.352778"
       d="m 60.08773,109.09117 c 0.06209,-0.50729 -0.228953,-0.63747 -0.228953,-0.63747 -3.292827,-0.94721 -7.975247,-4.12291 -9.759597,-9.438216 l -0.984955,1.103846 -0.0021,-7.1e-4 c -0.459317,-0.407811 -0.862189,-0.694972 -1.126772,-0.825147 0,0 -0.0018,0 -0.0025,-0.0049 -0.540102,4.080227 2.446161,8.054627 2.512131,10.918827 0.02434,1.04246 -0.09842,1.71415 -0.254,2.147 -0.06844,0.19297 -0.148872,0.34043 -0.221545,0.44733 -0.240947,0.33549 -1.575152,0.5588 -2.883605,0.56197 -2.438753,7.1e-4 -4.385733,-1.14512 -7.250994,-1.07809 -0.724959,0.0183 -1.455209,0.0434 -2.161823,0.14252 -1.823861,0.24942 -3.516136,0.78352 -4.708877,1.66265 l -0.339372,0.21096 c -2.023534,4.6997 -3.908425,7.4041 -5.607756,8.9288 -1.210733,1.08585 -2.566458,1.73779 -4.060119,1.83621 -1.017764,0.0677 -1.957917,-0.4953 -1.880658,-1.21391 0.02222,-0.24482 0.09349,-0.44097 0.200377,-0.57044 0.109714,-0.13158 0.258939,-0.20002 0.446264,-0.20002 0.383117,0 0.5588,0.52105 0.610658,0.52105 0.03316,0 0.249414,-0.0628 0.405342,-0.29704 0.09349,-0.14252 0.166864,-0.34255 0.166864,-0.63182 0,-1.00119 -0.972255,-1.55858 -1.61678,-1.52612 -0.856192,0.0434 -1.625953,0.36442 -2.145948,1.06503 -0.40393,0.53975 -0.656519,1.30916 -0.669925,2.35868 -0.03281,2.39359 1.650648,4.50074 4.669367,4.53637 0.483658,0.003 1.059392,-0.0744 1.686983,-0.24166 0.01164,-0.004 0.02434,-0.0106 0.03634,-0.012 0.0063,0 0.543631,-0.16581 0.541161,-0.16122 0.12312,-0.0413 0.247298,-0.0811 0.372181,-0.12876 0.0049,-0.001 0.01023,-0.006 0.01199,-0.006 0.110067,-0.0388 0.216959,-0.0801 0.328437,-0.12488 0.0046,0 0.006,-0.001 0.01164,-0.001 3.162653,-1.26894 7.080956,-4.30847 8.675511,-9.06462 0,0 3.53e-4,0 7.06e-4,-7.1e-4 l 0.761647,0.89923 h -3.53e-4 l 0.16757,0.20462 c 0.40393,-0.34679 0.71508,-0.56233 0.899583,-0.66146 7.05e-4,0 0.0014,-10e-4 0.0056,-10e-4 0.361598,4.15395 -2.553405,7.70184 -2.565047,10.73291 -0.0028,1.51447 0.239536,2.25707 0.47625,2.59186 0.198967,0.2861 1.692628,0.51011 2.684286,0.51681 0.168628,0 0.454731,-0.001 0.454731,-0.001 2.746022,-0.0427 4.408664,-1.14794 7.292269,-1.07879 0.714022,0.0138 1.442508,0.0448 2.150886,0.15028 1.728964,0.25965 4.067528,1.21956 5.371747,2.07504 -0.05927,-0.1397 -0.123825,-0.27622 -0.183091,-0.41345 l -0.148167,-0.41134 c -0.0053,-0.0162 -0.0067,-0.0226 -0.0067,-0.0226 -0.4953,-1.27882 -1.214614,-2.91465 -1.214614,-2.91465 0,0 -2.826808,-0.44697 -3.812116,-0.75177 -0.281164,-0.0868 -0.570442,-0.17745 -0.838553,-0.2734 -0.02399,-0.0102 -0.04833,-0.0166 -0.07232,-0.0247 l -7.05e-4,-0.004 c -0.217311,-0.0818 -0.422275,-0.16968 -0.595489,-0.26811 -0.02046,7.1e-4 -0.490008,-0.34784 -0.546806,-0.744 -0.06174,-0.50377 0.232834,-0.63324 0.232834,-0.63324 0.01588,-0.005 0.03528,-0.0116 0.05292,-0.0166 -0.720725,0.2039 -1.766711,0.4251 -2.28988,0.42016 -2.268008,-0.0261 -3.6703,-1.18992 -4.213931,-2.62361 -0.176388,-0.47625 -0.262113,-0.9839 -0.250472,-1.48767 0.04974,-2.35585 1.321153,-3.24238 2.668059,-3.27483 0.526344,-0.013 1.164872,0.3175 1.394177,0.83926 0.05115,0.12312 0.08149,0.25294 0.08643,0.39546 0.0078,0.762 -0.359481,0.92463 -0.42157,0.92463 -0.06632,0 -0.142169,-0.59055 -0.688622,-0.6036 -0.357364,-0.0102 -0.686858,0.29986 -0.75565,0.92463 -0.0187,0.15593 0.0056,0.30515 0.06209,0.44732 0.248003,0.62548 1.133828,1.0735 1.960033,1.01706 1.458736,-0.0938 2.833511,-0.68792 4.07917,-1.75366 2.225322,-1.899 4.082344,-5.15443 5.798961,-9.04134 l 0.148519,-0.41063 c 0.0053,-0.0131 0.0078,-0.0236 0.0078,-0.0236 0.496006,-1.27882 1.21532,-2.9143 1.21532,-2.9143 0,0 2.825044,-0.44661 3.811411,-0.75106 0.53975,-0.16757 1.103841,-0.34114 1.506361,-0.56656 0.02046,10e-4 0.491419,-0.35137 0.5461,-0.7433 z" />
    <g
       id="g1697"
       transform="matrix(0.35277777,0,0,-0.35277777,39.086412,115.14491)">
      <path
         d="m 0,0 c 0,0 -2.776,0 -2.776,-2.777 v -50.77 c 0,0 0,-2.777 2.776,-2.777 h 50.778 c 0,0 2.777,0 2.777,2.777 v 50.77 c 0,0 0,2.777 -2.777,2.777 z"
         style="fill:#ffffff;fill-opacity:1;fill-rule:nonzero;stroke:none"
         id="path1699"
         inkscape:connector-curvature="0" />
    </g>
    <g
       id="g1701"
       transform="matrix(0.35277777,0,0,-0.35277777,38.106959,133.63611)"
       style="fill:#020202;fill-opacity:1">
      <path
         d="m 0,0 c 7.185,0.365 11.831,3.215 19.635,3.023 2.022,-0.039 4.09,-0.125 6.097,-0.425 4.902,-0.735 11.529,-3.457 15.226,-5.873 -0.176,0.386 -0.352,0.775 -0.525,1.164 l -0.413,1.164 c -0.015,0.049 -0.018,0.066 -0.018,0.066 -1.405,3.623 -3.444,8.26 -3.444,8.26 0,0 -8.013,1.269 -10.805,2.131 -0.798,0.248 -1.618,0.504 -2.378,0.785 -0.069,0.021 -0.138,0.039 -0.206,0.06 0,0 -0.001,0.01 -0.001,0.012 -0.615,0.233 -1.196,0.481 -1.689,0.758 -0.057,-0.002 -1.392,0.986 -1.548,2.109 -0.176,1.44 0.654,1.795 0.654,1.795 0.05,0.016 0.104,0.034 0.154,0.049 -2.043,-0.58 -5.008,-1.207 -6.489,-1.193 -6.431,0.074 -10.405,3.375 -11.946,7.437 -0.51,1.35 -0.742,2.789 -0.709,4.217 0.14,6.678 3.745,9.191 7.561,9.285 1.491,0.035 3.304,-0.902 3.952,-2.381 0.146,-0.347 0.231,-0.716 0.235,-1.121 0.033,-2.158 -1.008,-2.621 -1.196,-2.621 -0.175,0 -0.391,1.688 -1.939,1.723 C 9.192,30.443 8.26,29.563 8.065,27.793 8.013,27.35 8.082,26.926 8.24,26.523 c 0.704,-1.773 3.215,-3.043 5.556,-2.882 4.135,0.279 8.033,1.949 11.563,4.97 5.958,5.086 10.987,13.596 15.628,23.805 H 2.776 c 0,0 -2.776,0 -2.776,-2.777 z"
         style="fill:#020202;fill-opacity:1;fill-rule:nonzero;stroke:none"
         id="path1703"
         inkscape:connector-curvature="0" />
    </g>
    <g
       id="g1705"
       transform="matrix(0.35277777,0,0,-0.35277777,45.14015,128.9673)"
       style="fill:#686868;fill-opacity:1">
      <path
         d="M 0,0 C -0.176,1.439 0.661,1.795 0.661,1.795 9.984,4.48 23.267,13.482 28.316,28.549 l 2.793,-3.127 0.002,0.01 c 1.301,1.148 2.455,1.97 3.197,2.341 0,0.002 0.002,0.002 0.003,0.002 1.543,-11.564 -6.929,-22.832 -7.107,-30.939 -0.07,-2.953 0.277,-4.869 0.708,-6.096 0.206,-0.549 0.42,-0.957 0.631,-1.267 0.663,-0.92 4.252,-1.549 7.852,-1.586 v -2.252 c 0,-2.778 -2.778,-2.778 -2.778,-2.778 H 21.319 c -0.268,0.588 -0.544,1.196 -0.807,1.797 l -0.412,1.165 c -0.026,0.046 -0.031,0.066 -0.031,0.066 -1.405,3.623 -3.443,8.26 -3.443,8.26 0,0 -8.005,1.267 -10.798,2.13 C 4.287,-3.252 2.7,-2.758 1.555,-2.109 1.498,-2.111 0.166,-1.123 0,0"
         style="fill:#686868;fill-opacity:1;fill-rule:nonzero;stroke:none"
         id="path1707"
         inkscape:connector-curvature="0" />
    </g>
    <g
       id="g1709"
       transform="matrix(0.35277777,0,0,-0.35277777,39.086412,115.28133)"
       style="fill:#020202;fill-opacity:1">
      <path
         d="M 0,0 C -0.244,-0.001 -2.39,-0.081 -2.39,-2.391 V -53.16 c 0.002,-0.244 0.081,-2.391 2.39,-2.391 h 50.778 -10e-4 c 0.245,0.002 2.391,0.081 2.391,2.391 V -2.391 C 53.167,-2.147 53.087,0 50.778,0 Z M 50.778,-56.324 H 0 c -2.502,0 -3.163,2.07 -3.163,3.164 v 50.769 c 0,2.503 2.069,3.164 3.163,3.164 h 50.778 c 2.502,0 3.163,-2.069 3.163,-3.164 V -53.16 c 0,-2.503 -2.068,-3.164 -3.163,-3.164"
         style="fill:#020202;fill-opacity:1;fill-rule:nonzero;stroke:none"
         id="path1711"
         inkscape:connector-curvature="0" />
    </g>
  </g>
</svg>
